<svg width="100%" height="100%" viewBox="0 0 1374 493" fill="none" xmlns="http://www.w3.org/2000/svg">
<path opacity="0.1" d="M547 410.094C547.009 419.21 545.907 428.293 543.717 437.142C542.98 440.123 542.124 443.043 541.148 445.9C539.955 449.428 538.572 452.888 537.006 456.266C536.216 457.975 535.382 459.65 534.503 461.291C534.517 470.639 532.593 479.888 528.851 488.454C522.087 503.823 510.026 516.251 494.865 523.471C485.387 527.993 475.028 530.372 464.525 530.437H103.847C87.7993 530.471 72.0291 526.255 58.1394 518.218L57.9258 518.097C55.9474 516.939 54.0185 515.713 52.1392 514.419C47.9109 511.498 43.9383 508.223 40.2643 504.629C35.2916 499.77 30.9098 494.341 27.2097 488.454C18.5197 474.656 13.9161 458.678 13.9323 442.371C5.13172 426.929 0 408.432 0 388.555C0 363.477 8.15503 340.6 21.5532 323.282C24.3465 319.664 27.4062 316.26 30.7067 313.098C33.9633 309.969 37.4636 307.104 41.1745 304.53C44.1435 302.468 47.2464 300.606 50.4627 298.957C51.8049 298.274 53.1517 297.628 54.5217 297.029C55.7245 296.495 56.9412 295.998 58.1719 295.529C59.6487 294.969 61.1441 294.453 62.6581 293.983C64.1721 293.512 65.6659 293.1 67.1397 292.747C69.3069 292.218 71.5113 291.788 73.7528 291.456C75.6105 291.182 77.4681 290.992 79.3258 290.848C80.8026 290.737 82.2933 290.676 83.7934 290.658H84.6061C86.2594 290.658 87.9034 290.723 89.5335 290.834C89.7053 290.49 89.8911 290.142 90.0629 289.803C90.7131 288.563 91.3865 287.328 92.0645 286.12C92.063 286.11 92.063 286.099 92.0645 286.088C92.1806 285.874 92.2967 285.665 92.4175 285.461C92.9655 284.472 93.5367 283.492 94.1218 282.521C94.3912 282.057 94.6559 281.62 94.9299 281.184C94.9879 281.075 95.0514 280.97 95.1203 280.868C95.399 280.403 95.6823 279.939 95.9702 279.475C97.4037 277.184 98.8944 274.933 100.442 272.722L100.837 272.156C101.079 271.812 101.302 271.478 101.571 271.134C102.212 270.238 102.871 269.337 103.535 268.454C104 267.823 104.464 267.196 104.966 266.597C106.173 265.049 107.412 263.501 108.681 261.953C109.95 260.404 111.269 258.877 112.638 257.369C112.824 257.16 113.009 256.955 113.204 256.751L115.187 254.587C115.285 254.485 115.369 254.392 115.461 254.299C115.698 254.044 115.926 253.788 116.181 253.542C117.245 252.414 118.336 251.308 119.432 250.208C125.01 244.652 130.952 239.475 137.219 234.71C137.465 234.515 137.716 234.329 137.962 234.144C139.142 233.257 140.34 232.379 141.538 231.515C148.128 226.787 155.018 222.49 162.162 218.651C162.655 218.368 163.156 218.103 163.662 217.843C170.068 214.454 176.656 211.422 183.395 208.759C187.069 207.306 190.826 205.94 194.606 204.691C197.123 203.864 199.65 203.079 202.208 202.341C206.209 201.189 210.237 200.157 214.292 199.243C226.241 196.562 238.397 194.906 250.628 194.293C254.343 194.104 258.1 194.006 261.899 194C280.229 193.976 298.488 196.286 316.235 200.873C316.418 201.151 316.669 201.377 316.964 201.53C317.259 201.684 317.588 201.76 317.921 201.751H319.481C320.159 201.937 320.833 202.123 321.511 202.318C325.297 203.408 329.029 204.598 332.707 205.889L333.636 206.223C342.714 209.452 351.547 213.332 360.066 217.834C367.745 221.882 375.138 226.45 382.195 231.506C383.282 232.286 384.353 233.072 385.409 233.865C386.69 233.045 387.994 232.258 389.319 231.506C394.436 228.591 399.872 226.274 405.518 224.6C417.322 221.107 429.812 220.618 441.853 223.179C457.295 226.453 471.273 234.58 482.563 246.139C487.16 250.869 491.252 256.064 494.772 261.641C495.028 262.041 495.283 262.445 495.529 262.853C498.555 267.79 501.156 272.974 503.304 278.351C503.383 278.551 503.462 278.736 503.531 278.931C505.514 283.966 507.113 289.143 508.315 294.419C508.37 294.689 508.435 294.953 508.491 295.223C509.615 300.329 510.379 305.507 510.776 310.72C510.776 310.906 510.776 311.096 510.813 311.291C511.008 313.988 511.107 316.713 511.11 319.465C511.11 321.926 511.027 324.369 510.874 326.793C510.874 327.058 510.836 327.332 510.813 327.606C510.771 328.307 510.711 328.999 510.651 329.705C514.198 332.566 517.517 335.698 520.58 339.072C521.933 340.549 523.242 342.082 524.509 343.67C528.366 348.504 531.756 353.693 534.633 359.167C542.486 373.991 547 391.43 547 410.094Z" fill="#006574"/>
<path d="M951.356 610.065L714.277 373.033" stroke="#1D262D" stroke-width="2" stroke-miterlimit="10"/>
<path d="M947.049 551.927L709.97 314.848" stroke="#1D262D" stroke-width="2" stroke-miterlimit="10"/>
<path d="M942.742 493.741L705.663 256.709" stroke="#8BD2BD" stroke-width="2" stroke-miterlimit="10"/>
<path d="M938.434 435.604L701.356 198.525" stroke="#FFE031" stroke-width="2" stroke-miterlimit="10"/>
<path d="M1150.02 453.106C1240.97 476.438 1333.6 421.628 1356.94 330.684C1380.27 239.741 1325.46 147.103 1234.51 123.772C1143.57 100.44 1050.93 155.25 1027.6 246.194C1004.27 337.137 1059.08 429.775 1150.02 453.106Z" fill="#FFB300"/>
<path d="M1227.04 163.049C1228.2 163.347 1229.39 162.647 1229.68 161.485C1229.98 160.322 1229.28 159.138 1228.12 158.84C1226.96 158.542 1225.77 159.242 1225.47 160.405C1225.18 161.567 1225.88 162.751 1227.04 163.049Z" fill="#006574"/>
<path d="M1248.57 170.519C1247.43 170.228 1246.75 169.075 1247.04 167.938C1247.33 166.801 1248.49 166.119 1249.62 166.411C1250.76 166.702 1251.44 167.855 1251.15 168.992C1250.86 170.129 1249.71 170.811 1248.57 170.519Z" fill="#006574"/>
<path d="M1268.49 181.587C1269.59 181.871 1270.72 181.204 1271 180.097C1271.29 178.991 1270.62 177.863 1269.51 177.579C1268.41 177.296 1267.28 177.963 1267 179.069C1266.71 180.176 1267.38 181.303 1268.49 181.587Z" fill="#006574"/>
<path d="M1286.17 195.923C1285.1 195.647 1284.44 194.546 1284.72 193.469C1285 192.391 1286.1 191.74 1287.18 192.017C1288.25 192.293 1288.9 193.393 1288.63 194.471C1288.36 195.551 1287.26 196.202 1286.17 195.923Z" fill="#006574"/>
<path d="M1301.14 213.078C1300.08 212.808 1299.45 211.739 1299.72 210.687C1299.99 209.635 1301.06 209.002 1302.11 209.272C1303.16 209.542 1303.8 210.611 1303.53 211.663C1303.26 212.716 1302.19 213.348 1301.14 213.078Z" fill="#006574"/>
<path d="M1312.93 232.543C1313.96 232.807 1315.01 232.188 1315.27 231.16C1315.53 230.132 1314.91 229.086 1313.89 228.822C1312.86 228.558 1311.81 229.178 1311.55 230.205C1311.28 231.233 1311.9 232.28 1312.93 232.543Z" fill="#006574"/>
<path d="M1321.22 253.728C1320.21 253.471 1319.61 252.456 1319.87 251.454C1320.13 250.452 1321.14 249.851 1322.14 250.108C1323.15 250.365 1323.75 251.381 1323.49 252.382C1323.23 253.384 1322.22 253.985 1321.22 253.728Z" fill="#006574"/>
<path d="M1327.86 275.017C1328.26 274.098 1327.84 273.027 1326.92 272.626C1326 272.225 1324.93 272.646 1324.53 273.565C1324.13 274.485 1324.55 275.555 1325.47 275.956C1326.39 276.357 1327.46 275.937 1327.86 275.017Z" fill="#006574"/>
<path d="M1326.33 298.756C1325.38 298.514 1324.81 297.551 1325.06 296.608C1325.3 295.666 1326.26 295.096 1327.2 295.338C1328.15 295.58 1328.72 296.542 1328.47 297.485C1328.23 298.428 1327.27 298.998 1326.33 298.756Z" fill="#006574"/>
<path d="M1322.99 321.247C1322.07 321.012 1321.52 320.081 1321.76 319.163C1321.99 318.246 1322.92 317.695 1323.84 317.93C1324.76 318.166 1325.31 319.097 1325.07 320.014C1324.84 320.932 1323.91 321.483 1322.99 321.247Z" fill="#006574"/>
<path d="M1315.87 342.849C1314.97 342.62 1314.45 341.713 1314.67 340.829C1314.9 339.936 1315.81 339.406 1316.69 339.633C1317.58 339.862 1318.11 340.77 1317.89 341.654C1317.66 342.538 1316.75 343.076 1315.87 342.849Z" fill="#006574"/>
<path d="M1305.13 362.896C1304.28 362.676 1303.76 361.798 1303.98 360.939C1304.2 360.081 1305.07 359.561 1305.93 359.781C1306.79 360.002 1307.31 360.88 1307.09 361.738C1306.87 362.597 1305.99 363.117 1305.13 362.896Z" fill="#006574"/>
<path d="M1291.09 380.792C1290.25 380.578 1289.75 379.732 1289.96 378.898C1290.18 378.065 1291.03 377.564 1291.86 377.778C1292.69 377.992 1293.19 378.838 1292.98 379.671C1292.77 380.496 1291.92 381.006 1291.09 380.792Z" fill="#006574"/>
<path d="M1274.17 395.995C1273.36 395.787 1272.88 394.964 1273.08 394.165C1273.29 393.356 1274.11 392.876 1274.91 393.082C1275.72 393.289 1276.2 394.112 1276 394.912C1275.79 395.712 1274.97 396.202 1274.17 395.995Z" fill="#006574"/>
<path d="M1254.89 408.08C1254.1 407.879 1253.63 407.086 1253.83 406.303C1254.04 405.52 1254.83 405.05 1255.61 405.251C1256.39 405.452 1256.86 406.245 1256.66 407.028C1256.45 407.809 1255.66 408.279 1254.89 408.08Z" fill="#006574"/>
<path d="M1233.82 416.69C1233.07 416.498 1232.61 415.734 1232.8 414.976C1233 414.218 1233.76 413.768 1234.52 413.962C1235.27 414.157 1235.72 414.918 1235.53 415.676C1235.33 416.434 1234.56 416.882 1233.82 416.69Z" fill="#006574"/>
<path d="M1211.57 421.554C1210.85 421.368 1210.41 420.627 1210.59 419.903C1210.78 419.179 1211.52 418.741 1212.24 418.927C1212.97 419.113 1213.41 419.853 1213.22 420.577C1213.04 421.301 1212.29 421.739 1211.57 421.554Z" fill="#006574"/>
<path d="M1188.81 422.499C1188.12 422.32 1187.7 421.611 1187.88 420.912C1188.05 420.213 1188.76 419.794 1189.46 419.973C1190.16 420.153 1190.58 420.861 1190.4 421.56C1190.22 422.259 1189.51 422.678 1188.81 422.499Z" fill="#006574"/>
<path d="M1166.22 419.512C1165.55 419.339 1165.15 418.662 1165.32 417.989C1165.5 417.315 1166.17 416.915 1166.85 417.087C1167.52 417.26 1167.92 417.937 1167.75 418.611C1167.57 419.284 1166.9 419.685 1166.22 419.512Z" fill="#006574"/>
<path d="M1144.47 412.718C1143.83 412.554 1143.44 411.898 1143.6 411.259C1143.77 410.619 1144.42 410.231 1145.06 410.395C1145.7 410.559 1146.09 411.215 1145.93 411.855C1145.76 412.494 1145.11 412.883 1144.47 412.718Z" fill="#006574"/>
<path d="M1124.19 402.293C1123.57 402.136 1123.2 401.512 1123.36 400.897C1123.52 400.282 1124.14 399.913 1124.76 400.071C1125.37 400.228 1125.74 400.853 1125.58 401.467C1125.43 402.082 1124.8 402.451 1124.19 402.293Z" fill="#006574"/>
<path d="M1106 388.511C1105.41 388.36 1105.06 387.759 1105.21 387.178C1105.36 386.589 1105.96 386.241 1106.54 386.39C1107.13 386.541 1107.48 387.142 1107.33 387.723C1107.19 388.314 1106.59 388.663 1106 388.511Z" fill="#006574"/>
<path d="M1090.45 371.808C1089.89 371.663 1089.56 371.094 1089.7 370.539C1089.85 369.983 1090.42 369.645 1090.97 369.788C1091.53 369.93 1091.87 370.501 1091.72 371.057C1091.58 371.613 1091.02 371.953 1090.45 371.808Z" fill="#006574"/>
<path d="M1077.98 352.689C1078.51 352.826 1079.06 352.504 1079.19 351.969C1079.33 351.435 1079.01 350.89 1078.47 350.753C1077.94 350.616 1077.4 350.938 1077.26 351.473C1077.12 352.007 1077.44 352.552 1077.98 352.689Z" fill="#006574"/>
<path d="M1224.51 172.908C1225.67 173.206 1226.86 172.505 1227.15 171.343C1227.45 170.18 1226.75 168.996 1225.59 168.698C1224.43 168.4 1223.24 169.101 1222.95 170.263C1222.65 171.425 1223.35 172.609 1224.51 172.908Z" fill="#006574"/>
<path d="M1245.76 180.405C1244.64 180.117 1243.96 178.975 1244.25 177.855C1244.53 176.735 1245.68 176.059 1246.8 176.347C1247.92 176.634 1248.59 177.776 1248.31 178.896C1248.02 180.016 1246.88 180.692 1245.76 180.405Z" fill="#006574"/>
<path d="M1265.24 191.668C1266.32 191.943 1267.41 191.296 1267.69 190.222C1267.96 189.148 1267.32 188.054 1266.24 187.778C1265.17 187.503 1264.07 188.15 1263.8 189.224C1263.52 190.298 1264.17 191.392 1265.24 191.668Z" fill="#006574"/>
<path d="M1282.3 206.344C1281.27 206.081 1280.64 205.032 1280.91 203.996C1281.17 202.969 1282.22 202.341 1283.26 202.606C1284.28 202.87 1284.91 203.919 1284.65 204.955C1284.37 205.988 1283.32 206.608 1282.3 206.344Z" fill="#006574"/>
<path d="M1296.34 223.892C1295.36 223.639 1294.76 222.634 1295.02 221.649C1295.27 220.664 1296.27 220.069 1297.26 220.322C1298.24 220.575 1298.84 221.58 1298.59 222.565C1298.33 223.55 1297.34 224.147 1296.34 223.892Z" fill="#006574"/>
<path d="M1306.93 243.711C1305.99 243.469 1305.42 242.506 1305.66 241.564C1305.91 240.621 1306.87 240.051 1307.81 240.293C1308.75 240.535 1309.32 241.498 1309.08 242.44C1308.84 243.383 1307.88 243.953 1306.93 243.711Z" fill="#006574"/>
<path d="M1313.7 265.135C1312.8 264.904 1312.27 263.986 1312.5 263.094C1312.73 262.193 1313.65 261.657 1314.54 261.886C1315.43 262.115 1315.97 263.035 1315.75 263.927C1315.52 264.82 1314.61 265.366 1313.7 265.135Z" fill="#006574"/>
<path d="M1316.39 287.423C1317.25 287.643 1318.12 287.127 1318.34 286.272C1318.56 285.416 1318.04 284.545 1317.19 284.325C1316.33 284.106 1315.46 284.621 1315.24 285.477C1315.02 286.332 1315.54 287.204 1316.39 287.423Z" fill="#006574"/>
<path d="M1314.9 309.832C1314.09 309.625 1313.6 308.8 1313.81 307.991C1314.02 307.183 1314.84 306.695 1315.65 306.902C1316.46 307.11 1316.95 307.935 1316.74 308.743C1316.53 309.551 1315.71 310.039 1314.9 309.832Z" fill="#006574"/>
<path d="M1309.32 331.577C1308.55 331.38 1308.09 330.598 1308.29 329.832C1308.48 329.065 1309.27 328.602 1310.03 328.799C1310.8 328.995 1311.26 329.778 1311.06 330.544C1310.87 331.31 1310.09 331.774 1309.32 331.577Z" fill="#006574"/>
<path d="M1299.84 351.93C1299.12 351.744 1298.69 351.005 1298.87 350.29C1299.06 349.566 1299.8 349.136 1300.51 349.32C1301.24 349.505 1301.67 350.244 1301.48 350.959C1301.3 351.675 1300.57 352.115 1299.84 351.93Z" fill="#006574"/>
<path d="M1286.76 370.179C1286.07 370.004 1285.67 369.316 1285.84 368.634C1286.02 367.953 1286.7 367.546 1287.39 367.721C1288.07 367.896 1288.47 368.583 1288.3 369.265C1288.13 369.939 1287.44 370.354 1286.76 370.179Z" fill="#006574"/>
<path d="M1270.52 385.691C1269.89 385.529 1269.5 384.884 1269.67 384.252C1269.83 383.621 1270.47 383.239 1271.11 383.401C1271.74 383.563 1272.12 384.208 1271.96 384.84C1271.79 385.471 1271.15 385.853 1270.52 385.691Z" fill="#006574"/>
<path d="M1251.69 397.965C1251.1 397.814 1250.75 397.211 1250.9 396.621C1251.05 396.032 1251.65 395.675 1252.24 395.827C1252.83 395.978 1253.19 396.581 1253.04 397.17C1252.88 397.757 1252.28 398.116 1251.69 397.965Z" fill="#006574"/>
<path d="M1230.93 406.581C1230.38 406.441 1230.06 405.882 1230.19 405.343C1230.33 404.805 1230.89 404.473 1231.43 404.611C1231.98 404.752 1232.3 405.31 1232.16 405.849C1232.03 406.388 1231.47 406.722 1230.93 406.581Z" fill="#006574"/>
<path d="M1208.91 411.235C1208.41 411.105 1208.11 410.598 1208.24 410.092C1208.37 409.587 1208.88 409.287 1209.38 409.416C1209.89 409.546 1210.19 410.054 1210.06 410.559C1209.93 411.064 1209.42 411.364 1208.91 411.235Z" fill="#006574"/>
<path d="M1186.41 411.733C1186.87 411.851 1187.34 411.574 1187.46 411.114C1187.57 410.653 1187.3 410.184 1186.84 410.066C1186.38 409.948 1185.91 410.226 1185.79 410.686C1185.67 411.146 1185.95 411.615 1186.41 411.733Z" fill="#006574"/>
<path d="M1164.18 408.068C1164.59 408.174 1165.02 407.925 1165.12 407.511C1165.23 407.097 1164.98 406.675 1164.56 406.569C1164.15 406.463 1163.73 406.712 1163.62 407.126C1163.52 407.54 1163.77 407.962 1164.18 408.068Z" fill="#006574"/>
<path d="M1221.59 184.272C1222.76 184.57 1223.94 183.87 1224.24 182.707C1224.54 181.545 1223.84 180.361 1222.67 180.062C1221.51 179.764 1220.33 180.465 1220.03 181.627C1219.73 182.79 1220.43 183.974 1221.59 184.272Z" fill="#006574"/>
<path d="M1241.98 191.468C1240.92 191.196 1240.29 190.119 1240.56 189.066C1240.83 188.006 1241.91 187.376 1242.96 187.646C1244.02 187.916 1244.65 188.995 1244.38 190.047C1244.12 191.102 1243.04 191.74 1241.98 191.468Z" fill="#006574"/>
<path d="M1260.54 202.499C1259.58 202.255 1259.01 201.282 1259.25 200.33C1259.5 199.379 1260.47 198.803 1261.42 199.047C1262.37 199.291 1262.95 200.265 1262.7 201.216C1262.46 202.167 1261.49 202.743 1260.54 202.499Z" fill="#006574"/>
<path d="M1276.52 216.936C1277.37 217.153 1278.23 216.643 1278.44 215.797C1278.66 214.951 1278.15 214.089 1277.31 213.872C1276.46 213.655 1275.6 214.165 1275.38 215.011C1275.16 215.857 1275.67 216.719 1276.52 216.936Z" fill="#006574"/>
<path d="M1289.35 234.209C1288.61 234.019 1288.16 233.257 1288.35 232.516C1288.54 231.775 1289.3 231.324 1290.04 231.515C1290.78 231.705 1291.24 232.466 1291.04 233.207C1290.85 233.948 1290.09 234.399 1289.35 234.209Z" fill="#006574"/>
<path d="M1298.55 253.626C1297.91 253.462 1297.53 252.817 1297.69 252.177C1297.86 251.537 1298.5 251.155 1299.14 251.319C1299.78 251.484 1300.16 252.129 1300 252.769C1299.83 253.408 1299.19 253.79 1298.55 253.626Z" fill="#006574"/>
<path d="M1303.75 274.449C1303.22 274.313 1302.89 273.772 1303.03 273.233C1303.17 272.702 1303.71 272.375 1304.25 272.513C1304.78 272.649 1305.1 273.191 1304.97 273.73C1304.83 274.268 1304.28 274.585 1303.75 274.449Z" fill="#006574"/>
<path d="M1304.73 295.88C1304.3 295.769 1304.04 295.336 1304.15 294.906C1304.26 294.477 1304.7 294.22 1305.13 294.331C1305.56 294.441 1305.81 294.874 1305.7 295.304C1305.59 295.733 1305.16 295.99 1304.73 295.88Z" fill="#006574"/>
<path d="M1301.47 317.07C1301.79 317.152 1302.11 316.959 1302.2 316.638C1302.28 316.317 1302.08 315.99 1301.76 315.908C1301.44 315.826 1301.12 316.019 1301.03 316.34C1300.95 316.661 1301.14 316.987 1301.47 317.07Z" fill="#006574"/>
<g clip-path="url(#clip0)">
<path d="M82.4064 507.717C90.2891 522.336 107.019 528.612 107.019 528.612C107.019 528.612 110.969 511.186 103.086 496.567C95.2032 481.948 78.4732 475.672 78.4732 475.672C78.4732 475.672 74.5237 493.099 82.4064 507.717Z" fill="#2F2E41"/>
<path d="M87.8244 502.908C102.056 511.47 107.537 528.477 107.537 528.477C107.537 528.477 89.9441 531.602 75.7126 523.04C61.481 514.478 56 497.471 56 497.471C56 497.471 73.5929 494.346 87.8244 502.908Z" fill="#FFB300"/>
<path d="M649.658 528.461H73.1248V529.729H649.658V528.461Z" fill="#3F3D56"/>
<path d="M394.477 236.784H346.615V246.169H394.477V236.784Z" fill="#FFB300"/>
<path d="M355.659 275.602H307.797V284.986H355.659V275.602Z" fill="#FFB300"/>
<path d="M420.755 345.961H396.667V355.346H420.755V345.961Z" fill="#3F3D56"/>
<path d="M503.654 345.961H479.566V355.346H503.654V345.961Z" fill="#3F3D56"/>
<path d="M547.136 345.961H523.049V355.346H547.136V345.961Z" fill="#3F3D56"/>
<path d="M525.239 417.285H501.151V426.67H525.239V417.285Z" fill="#3F3D56"/>
<path d="M612.204 417.285H588.117V426.67H612.204V417.285Z" fill="#3F3D56"/>
<path d="M590.619 345.961H566.532V355.346H590.619V345.961Z" fill="#3F3D56"/>
<path d="M634.102 345.961H610.015V355.346H634.102V345.961Z" fill="#3F3D56"/>
<path d="M656 295.283H370.077V254.928H370.703V294.656H656V295.283Z" fill="#3F3D56"/>
<path d="M633.32 367.389H448.34V295.087H448.966V366.763H633.32V367.389Z" fill="#3F3D56"/>
<path d="M409.024 295.127H408.398V335.442H409.024V295.127Z" fill="#3F3D56"/>
<path d="M491.923 295.127H491.297V335.442H491.923V295.127Z" fill="#3F3D56"/>
<path d="M535.405 295.127H534.78V335.442H535.405V295.127Z" fill="#3F3D56"/>
<path d="M578.888 295.127H578.263V335.442H578.888V295.127Z" fill="#3F3D56"/>
<path d="M622.371 295.127H621.745V335.442H622.371V295.127Z" fill="#3F3D56"/>
<path d="M513.508 367.077H512.882V407.392H513.508V367.077Z" fill="#3F3D56"/>
<path d="M600.473 367.077H599.848V407.392H600.473V367.077Z" fill="#3F3D56"/>
<path d="M394.477 316.038H346.615V325.423H394.477V316.038Z" fill="#FFB300"/>
<path d="M420.755 206.862H396.667V216.247H420.755V206.862Z" fill="#3F3D56"/>
<path d="M503.654 206.862H479.566V216.247H503.654V206.862Z" fill="#3F3D56"/>
<path d="M547.136 206.862H523.049V216.247H547.136V206.862Z" fill="#3F3D56"/>
<path d="M525.239 135.538H501.151V144.923H525.239V135.538Z" fill="#3F3D56"/>
<path d="M612.204 135.538H588.117V144.923H612.204V135.538Z" fill="#3F3D56"/>
<path d="M590.619 206.862H566.532V216.247H590.619V206.862Z" fill="#3F3D56"/>
<path d="M634.102 206.862H610.015V216.247H634.102V206.862Z" fill="#3F3D56"/>
<path d="M656 266.925H370.077V307.28H370.703V267.551H656V266.925Z" fill="#3F3D56"/>
<path d="M633.32 194.818H448.34V267.121H448.966V195.444H633.32V194.818Z" fill="#3F3D56"/>
<path d="M409.024 226.766H408.398V267.081H409.024V226.766Z" fill="#3F3D56"/>
<path d="M491.923 226.766H491.297V267.081H491.923V226.766Z" fill="#3F3D56"/>
<path d="M535.405 226.766H534.78V267.081H535.405V226.766Z" fill="#3F3D56"/>
<path d="M578.888 226.766H578.263V267.081H578.888V226.766Z" fill="#3F3D56"/>
<path d="M622.371 226.766H621.745V267.081H622.371V226.766Z" fill="#3F3D56"/>
<path d="M513.508 154.815H512.882V195.131H513.508V154.815Z" fill="#3F3D56"/>
<path d="M600.473 154.815H599.848V195.131H600.473V154.815Z" fill="#3F3D56"/>
<path d="M245.723 139.398C238.174 126.643 223.239 126.048 223.239 126.048C223.239 126.048 208.686 124.187 199.351 143.613C190.649 161.72 178.64 179.203 197.417 183.441L200.809 172.885L202.91 184.227C205.583 184.419 208.265 184.465 210.944 184.364C231.053 183.715 250.204 184.554 249.587 177.338C248.768 167.746 252.986 151.671 245.723 139.398Z" fill="#2F2E41"/>
<path d="M217.875 182.856C217.911 184.292 217.9 185.806 217.187 187.052C215.773 189.523 212.32 189.893 210.243 191.841C208.059 193.889 207.812 197.213 207.708 200.205C207.599 203.333 207.507 206.564 208.649 209.479C209.348 211.085 210.232 212.603 211.282 214.004C212.55 215.832 213.83 217.651 215.122 219.463C215.811 220.483 216.58 221.447 217.42 222.348C219.733 224.703 222.905 226.007 226.073 226.938C228.119 227.539 230.329 228.007 232.36 227.354C233.703 226.83 234.942 226.068 236.016 225.106C237.585 223.98 238.98 222.629 240.154 221.095C241.859 218.622 242.331 215.525 242.684 212.542C243.729 203.72 244.136 194.834 243.901 185.954C243.944 184.986 243.77 184.021 243.393 183.129C242.342 181.076 239.525 180.637 238.041 178.871C236.772 177.361 236.72 175.205 236.731 173.233L236.759 168.212C236.803 167.789 236.718 167.362 236.515 166.988C236.331 166.787 236.109 166.624 235.862 166.509C235.614 166.393 235.347 166.328 235.074 166.316C231.954 165.798 228.79 165.587 225.628 165.684C223.064 165.763 218.145 165.548 215.928 166.976C213.916 168.272 216.436 171.851 216.902 173.862C217.528 176.82 217.854 179.833 217.875 182.856Z" fill="#FFB8B8"/>
<path d="M176.184 519.063C175.533 521.28 175.23 523.865 176.584 525.738C177.332 526.676 178.317 527.397 179.437 527.828C182.262 529.058 185.424 529.3 188.502 529.158C189.092 529.185 189.682 529.09 190.234 528.878C190.786 528.666 191.288 528.342 191.709 527.926C198.863 522.003 203.702 513.749 205.375 504.613C205.51 504.142 205.485 503.638 205.302 503.183C205.067 502.83 204.737 502.55 204.35 502.375C202.759 501.378 201.043 500.594 199.247 500.045C189.418 497.507 178.619 510.777 176.184 519.063Z" fill="#2F2E41"/>
<path d="M279.261 487.997C280.582 489.531 282.209 490.77 284.039 491.636C284.957 492.06 285.959 492.272 286.97 492.255C287.981 492.238 288.975 491.992 289.878 491.536C292.582 489.997 293.348 486.42 293.132 483.316C292.733 477.575 289.991 472.401 286.839 467.712C285.842 466.228 283.635 461.812 281.698 461.757C280.777 461.731 277.336 465.068 276.401 465.703C272.984 468.023 270.618 469.683 271.329 474.137C272.122 479.104 275.918 484.42 279.261 487.997Z" fill="#2F2E41"/>
<path d="M223.759 174.233C234.968 174.233 244.055 165.146 244.055 153.937C244.055 142.727 234.968 133.641 223.759 133.641C212.55 133.641 203.463 142.727 203.463 153.937C203.463 165.146 212.55 174.233 223.759 174.233Z" fill="#FFB8B8"/>
<path d="M215.402 204.208C214.111 202.29 213.048 200.226 212.236 198.061C211.425 195.874 211.406 193.472 212.181 191.272C209.988 189.999 207.01 191.03 205.413 192.999C203.816 194.969 203.327 197.609 203.186 200.14C203.046 202.672 203.195 205.241 202.644 207.716C201.425 213.192 196.902 217.694 196.565 223.294C196.234 228.803 200.012 233.602 201.871 238.799C202.997 242.038 203.468 245.469 203.256 248.891C203.195 249.996 203.126 251.255 203.906 252.041C204.311 252.395 204.791 252.654 205.311 252.798C214.279 255.953 223.965 256.226 233.469 256.466L249.166 256.864C250.116 256.977 251.078 256.816 251.938 256.4C253.346 255.536 253.535 253.601 253.559 251.949C253.765 237.723 253.16 223.499 252.555 209.285C252.336 204.132 252.113 198.95 251.02 193.911C250.742 192.627 250.286 191.2 249.101 190.634C248.098 190.154 246.909 190.465 245.866 190.85C241.001 192.659 236.795 195.896 233.802 200.137C230.581 204.721 228.996 210.22 225.844 214.839C223.557 218.19 222.234 215.269 220.71 212.801C218.941 209.936 217.172 207.072 215.402 204.208Z" fill="#FFB300"/>
<path d="M210.201 185.767C208.993 186.36 207.629 186.618 206.48 187.318C205.104 188.156 204.168 189.54 203.277 190.882L198.466 198.118C197.335 199.672 196.408 201.364 195.708 203.153C194.957 205.348 194.906 207.711 194.836 210.03C194.64 216.48 194.239 222.92 193.633 229.349C193.395 232.448 192.948 235.529 192.297 238.569C191.724 241.034 190.913 243.437 190.104 245.835L181.19 272.26C180.64 273.576 180.378 274.995 180.422 276.421C180.57 277.836 181.506 279.273 182.906 279.525C183.831 279.604 184.76 279.416 185.582 278.984C188.985 277.563 192.363 275.881 194.983 273.286C199.29 269.02 201.023 262.871 202.59 257.016C203.421 253.909 204.258 250.758 204.255 247.542C204.247 240.242 199.936 233.481 199.822 226.182C199.843 224.198 200.021 222.22 200.356 220.265C201.124 214.948 201.922 209.592 203.764 204.546C205.605 199.5 208.587 194.725 212.972 191.623C215.075 190.136 220.72 187.159 218.515 183.74C216.318 180.332 212.35 184.71 210.201 185.767Z" fill="#006574"/>
<path d="M249.306 251.183C234.762 250.055 220.204 249.117 205.634 248.369C204.41 248.306 203.017 248.309 202.176 249.201C201.816 249.64 201.547 250.147 201.385 250.691L198.272 259.085C196.894 262.804 196.265 266.314 193.513 269.169C190.76 272.024 187.485 274.339 184.767 277.227C180.713 281.555 178.046 286.997 177.109 292.853C176.352 297.659 176.783 302.638 175.541 307.342C174.011 313.139 176.466 319.176 176.428 325.171C176.37 334.1 175.146 342.976 173.923 351.821C170.378 377.467 166.833 403.113 162.983 428.714C159.821 449.734 156.709 472.423 166.58 491.247C168.939 495.747 172.153 500.019 176.666 502.353C179.165 503.528 181.812 504.358 184.534 504.823C191.525 506.285 198.595 507.333 205.71 507.959C208.595 508.213 211.959 508.209 213.81 505.98C215.051 504.485 215.225 502.402 215.344 500.462L216.121 487.794C217.128 471.4 216.759 454.405 213.101 438.393C211.868 432.995 210.317 427.667 209.285 422.227C208.305 417.059 207.797 411.812 207.768 406.553C207.688 402.782 208.035 399.015 208.802 395.322C211.478 383.416 220.343 372.68 219.054 360.546C227.223 372.526 229.93 386.243 232.486 400.516C234.351 410.927 236.367 421.361 239.897 431.332C243.735 442.171 249.433 452.933 248.622 464.403C248.424 466.794 248.027 469.164 247.436 471.489C245.115 481.116 254.922 489.349 263.965 485.312C264.027 485.285 264.089 485.257 264.15 485.228C272.508 481.378 276.729 471.242 285.254 467.778C289.211 466.17 294.142 465.943 295.746 461.083C296.102 459.96 296.221 458.776 296.097 457.604C295.722 453.673 293.482 450.493 291.739 447.115C287.936 439.744 286.494 431.419 285.126 423.239C283.767 415.111 282.433 406.98 281.124 398.845C280.268 393.526 279.415 388.175 277.667 383.079C276.902 380.849 275.966 378.673 275.353 376.396C273.062 367.889 275.432 358.825 274.474 350.067C273.396 340.215 271.417 330.431 269.25 320.76C266.444 308.233 265.87 295.326 265.42 282.496C265.24 277.4 265.054 272.179 263.133 267.455C260.424 260.792 255.08 255.472 249.306 251.183Z" fill="#2F2E41"/>
<path d="M242.386 138.168L227.63 130.439L207.255 133.601L203.039 152.221L213.534 151.817L216.465 144.976V151.704L221.307 151.518L224.118 140.627L225.874 152.221L243.088 151.869L242.386 138.168Z" fill="#2F2E41"/>
<path d="M234.624 194.747C235.818 193.616 237.323 192.869 238.946 192.602C239.514 192.599 240.06 192.379 240.472 191.988C240.673 191.646 240.764 191.25 240.731 190.855C240.783 187.278 240.486 183.704 239.845 180.185C241.238 179.691 242.717 179.49 244.191 179.594L257.854 179.633C260.601 179.64 263.445 179.668 265.945 180.808C268.505 182.096 270.562 184.202 271.79 186.793C273 189.367 273.888 192.081 274.433 194.873C276.056 201.885 270.228 208.942 269.707 216.12C269.556 218.19 269.73 220.275 269.54 222.342C269.339 224.518 268.737 226.653 268.688 228.838C268.627 231.54 269.414 234.186 270.321 236.731C273.094 244.509 277.042 251.808 280.246 259.418C281.065 261.153 281.617 263.003 281.88 264.905C282.007 265.857 281.938 266.824 281.679 267.749C281.42 268.674 280.976 269.536 280.373 270.284C279.038 271.783 277.004 272.395 275.128 273.111C272.771 274.01 270.521 275.166 268.418 276.558C267.569 277.186 266.653 277.717 265.685 278.142C264.736 278.439 263.763 278.654 262.778 278.784C260.247 279.266 257.856 280.287 255.41 281.097C254.604 281.365 253.673 281.598 252.944 281.162C252.536 280.87 252.208 280.48 251.991 280.028C247.303 271.91 245.648 262.423 244.573 253.11C243.499 243.797 242.906 234.334 240.055 225.404C239.188 222.688 238.113 220.023 237.62 217.215C236.908 213.157 237.442 208.955 236.709 204.9C236.059 201.305 234.376 198.391 234.624 194.747Z" fill="#006574"/>
<path d="M265.775 272.218C261.708 274.163 258.49 277.256 255.767 280.85C255.191 281.611 255.964 283.03 257.691 283.007C259.299 282.985 260.259 280.924 261.866 280.903C262.357 285.199 263.247 289.44 264.523 293.571C267.73 290.755 269.65 286.791 271.487 282.94L275.118 275.326C276.451 272.531 277.785 269.734 278.986 266.88C279.313 266.213 279.515 265.491 279.582 264.751C279.74 259.84 274.897 259.81 272.809 262.884C270.525 266.246 269.813 270.286 265.775 272.218Z" fill="#FFB8B8"/>
<path d="M266.611 187.773C269.715 191 272.842 194.253 275.252 198.026C277.662 201.8 279.337 206.175 279.225 210.651C279.105 211.784 279.146 212.928 279.348 214.05C279.698 215.084 280.221 216.052 280.894 216.911C283.936 221.377 286.297 226.27 287.9 231.429C288.16 232.447 288.545 233.429 289.046 234.353C289.504 235.103 290.13 235.737 290.635 236.456C291.516 237.756 291.998 239.285 292.023 240.855C292.047 242.425 291.613 243.968 290.773 245.294C290.519 245.612 290.333 245.979 290.226 246.373C290.018 247.606 291.566 248.348 292.135 249.461C292.712 250.591 292.159 252.033 291.202 252.865C290.182 253.626 289.006 254.151 287.759 254.405C289.36 256.697 287.417 259.919 286.766 262.638C286.31 264.541 286.315 266.522 286.017 268.456C285.719 270.389 285.047 272.378 283.558 273.647C283.368 273.829 283.135 273.959 282.88 274.026C282.054 274.187 281.491 273.231 281.202 272.441C280.302 269.979 279.393 267.47 277.805 265.385C276.217 263.3 273.811 261.666 271.19 261.674C270.973 261.156 270.884 260.593 270.928 260.033C270.973 259.473 271.151 258.931 271.447 258.454C271.972 257.463 272.742 256.624 273.321 255.664C274.055 254.356 274.554 252.93 274.795 251.45C276.09 244.651 274.787 237.613 271.145 231.727C270.298 230.332 269.274 229.052 268.098 227.919C266.818 226.72 265.321 225.756 264.14 224.46C262.318 222.303 261.216 219.631 260.99 216.817C260.772 214.022 260.846 211.212 261.212 208.432C261.743 202.916 262.426 197.392 263.214 191.907C263.275 191.192 263.46 190.494 263.761 189.843C264.38 188.689 265.426 188.33 266.611 187.773Z" fill="#006574"/>
</g>
<defs>
<clipPath id="clip0">
<rect width="600" height="403.73" fill="white" transform="translate(56 126)"/>
</clipPath>
</defs>
</svg>
