<svg width="100%" height="100%" viewBox="0 0 1374 493" fill="none" xmlns="http://www.w3.org/2000/svg">
<g clip-path="url(#clip0)">
<path opacity="0.1" d="M800 316.049C800.014 329.381 798.401 342.665 795.198 355.606C794.12 359.967 792.868 364.237 791.442 368.416C789.697 373.575 787.674 378.636 785.383 383.577C784.228 386.076 783.008 388.526 781.722 390.926C781.743 404.598 778.928 418.125 773.456 430.654C763.563 453.132 745.923 471.307 723.751 481.867C709.887 488.481 694.737 491.96 679.377 492.055H151.867C128.397 492.105 105.332 485.939 85.018 474.185L84.7056 474.008C81.8121 472.315 78.991 470.522 76.2425 468.629C70.0583 464.356 64.2481 459.567 58.8748 454.311C51.602 447.204 45.1933 439.263 39.7819 430.654C27.0722 410.473 20.3393 387.104 20.363 363.254C7.49172 340.67 -0.0136719 313.617 -0.0136719 284.546C-0.0136719 247.868 11.9134 214.41 31.509 189.082C35.5943 183.79 40.0692 178.811 44.8964 174.186C49.6594 169.61 54.7787 165.42 60.2061 161.655C64.5483 158.64 69.0865 155.917 73.7905 153.504C75.7534 152.506 77.7232 151.562 79.7269 150.685C81.486 149.904 83.2656 149.178 85.0655 148.492C87.2255 147.672 89.4126 146.918 91.6268 146.23C93.8411 145.541 96.0259 144.939 98.1813 144.423C101.351 143.649 104.575 143.019 107.853 142.535C110.57 142.134 113.287 141.856 116.004 141.645C118.164 141.482 120.344 141.394 122.538 141.367H123.727C126.145 141.367 128.549 141.462 130.933 141.625C131.185 141.122 131.456 140.613 131.708 140.117C132.659 138.303 133.643 136.497 134.635 134.731C134.633 134.715 134.633 134.699 134.635 134.683C134.805 134.371 134.975 134.065 135.151 133.766C135.953 132.319 136.788 130.886 137.644 129.467C138.038 128.787 138.425 128.149 138.826 127.51C138.911 127.352 139.004 127.198 139.104 127.049C139.512 126.369 139.926 125.69 140.347 125.011C142.444 121.66 144.624 118.368 146.888 115.135L147.466 114.306C147.819 113.804 148.145 113.315 148.539 112.812C149.476 111.501 150.441 110.183 151.412 108.893C152.091 107.969 152.77 107.052 153.504 106.176C155.27 103.912 157.081 101.648 158.938 99.3839C160.794 97.1198 162.723 94.8852 164.725 92.68C164.996 92.3743 165.268 92.0755 165.553 91.7766L168.453 88.6114C168.596 88.462 168.718 88.3262 168.854 88.1903C169.201 87.8168 169.533 87.4432 169.907 87.0832C171.462 85.4327 173.059 83.8161 174.662 82.2064C182.819 74.0812 191.51 66.5092 200.676 59.5408C201.036 59.2555 201.403 58.9838 201.762 58.7121C203.488 57.4148 205.24 56.1311 206.992 54.8677C216.631 47.9529 226.707 41.6683 237.157 36.0533C237.877 35.639 238.61 35.2518 239.351 34.8715C248.719 29.9153 258.353 25.48 268.211 21.5859C273.583 19.46 279.078 17.463 284.607 15.6359C288.288 14.4269 291.983 13.279 295.726 12.1991C301.576 10.5146 307.467 9.00448 313.399 7.66868C330.875 3.74744 348.654 1.32514 366.541 0.428184C371.975 0.151968 377.47 0.00933306 383.026 0.000276785C409.835 -0.0352152 436.539 3.34276 462.495 10.0527C462.763 10.4583 463.13 10.7889 463.562 11.0135C463.993 11.2381 464.474 11.3492 464.961 11.3365H467.243C468.234 11.6082 469.219 11.8798 470.211 12.1651C475.749 13.759 481.208 15.5001 486.587 17.3883L487.945 17.8774C501.223 22.5986 514.141 28.2736 526.6 34.8579C537.831 40.779 548.644 47.46 558.965 54.8542C560.554 55.9952 562.121 57.1454 563.665 58.3046C565.54 57.1046 567.446 55.9545 569.384 54.8542C576.868 50.5916 584.818 47.2027 593.075 44.7541C610.34 39.6452 628.607 38.9307 646.217 42.6757C668.802 47.4642 689.246 59.3506 705.758 76.2564C712.481 83.1735 718.466 90.7719 723.615 98.9288C723.988 99.5129 724.362 100.104 724.722 100.702C729.147 107.921 732.951 115.503 736.092 123.367C736.207 123.659 736.323 123.931 736.425 124.216C739.325 131.58 741.663 139.152 743.421 146.868C743.502 147.262 743.597 147.649 743.679 148.043C745.323 155.511 746.439 163.085 747.021 170.709C747.021 170.981 747.021 171.259 747.075 171.544C747.36 175.488 747.505 179.473 747.51 183.499C747.51 187.098 747.387 190.671 747.163 194.217C747.163 194.604 747.109 195.005 747.075 195.405C747.014 196.431 746.926 197.443 746.837 198.475C752.025 202.66 756.88 207.24 761.359 212.175C763.338 214.335 765.253 216.577 767.105 218.9C772.746 225.97 777.704 233.559 781.912 241.565C793.398 263.246 800 288.751 800 316.049Z" fill="#006574"/>
<path opacity="0.1" d="M723.248 479.353C723.248 483.992 707.266 488.339 679.377 492.075H151.867C128.397 492.125 105.332 485.959 85.018 474.205L84.7056 474.028C92.7204 471.108 107.188 468.384 126.878 465.925L127.761 465.816C136.591 464.736 146.46 463.711 157.246 462.74C157.518 462.74 157.797 462.699 158.068 462.665C166.626 461.904 175.73 461.191 185.38 460.525C185.685 460.525 185.984 460.471 186.29 460.457C190.012 460.19 193.811 459.937 197.687 459.697L199.181 459.602C227.403 457.849 259.483 456.45 294.272 455.526H294.313C299.185 455.39 304.11 455.27 309.086 455.166C314.62 455.035 320.221 454.919 325.89 454.82C330.217 454.725 334.598 454.657 338.992 454.589H339.094C358.921 454.29 379.406 454.141 400.353 454.141C452.151 454.141 501.109 455.085 544.491 456.783H544.613C551.283 457.041 557.831 457.326 564.215 457.618L569.649 457.876C576.853 458.22 583.872 458.59 590.705 458.983C671.057 463.555 723.248 470.978 723.248 479.353Z" fill="#006574"/>
<g opacity="0.2">
<path opacity="0.2" d="M462.06 451.023C462.039 451.755 461.955 452.485 461.809 453.203C457.082 452.451 452.327 451.772 447.545 451.165C447.545 450.975 447.545 450.778 447.545 450.581C447.59 448.545 448.176 446.556 449.243 444.821C450.643 442.607 452.769 441.222 455.112 441.296C457.455 441.371 459.486 442.886 460.743 445.175C461.693 446.973 462.148 448.991 462.06 451.023V451.023Z" fill="#006574"/>
<path opacity="0.2" d="M462.45 439.416C462.616 434.163 459.499 429.802 455.487 429.676C451.475 429.549 448.088 433.704 447.922 438.957C447.756 444.21 450.874 448.571 454.886 448.698C458.897 448.825 462.284 444.669 462.45 439.416Z" fill="#006574"/>
<path opacity="0.2" d="M462.821 427.787C462.987 422.534 459.869 418.173 455.857 418.047C451.846 417.92 448.459 422.075 448.293 427.328C448.127 432.581 451.244 436.942 455.256 437.069C459.268 437.196 462.655 433.04 462.821 427.787Z" fill="#006574"/>
<path opacity="0.2" d="M463.185 416.159C463.351 410.906 460.233 406.545 456.221 406.418C452.209 406.291 448.823 410.447 448.657 415.7C448.491 420.953 451.608 425.314 455.62 425.44C459.632 425.567 463.019 421.412 463.185 416.159Z" fill="#006574"/>
<path opacity="0.2" d="M463.548 404.53C463.714 399.277 460.597 394.916 456.585 394.789C452.573 394.663 449.186 398.818 449.02 404.071C448.854 409.324 451.972 413.685 455.984 413.812C459.996 413.938 463.382 409.783 463.548 404.53Z" fill="#006574"/>
<path opacity="0.2" d="M431.563 323.845C430.607 322.55 429.744 321.188 428.982 319.77L448.177 317.236L427.515 316.741C425.671 312.367 424.739 307.663 424.775 302.917C424.811 298.171 425.815 293.482 427.726 289.137L454.976 304.386L430.015 284.797C432.533 280.724 435.863 277.214 439.799 274.487C443.734 271.759 448.19 269.872 452.887 268.944C457.585 268.016 462.423 268.066 467.1 269.092C471.778 270.117 476.193 272.096 480.071 274.905C483.949 277.714 487.206 281.292 489.639 285.416C492.072 289.54 493.629 294.122 494.211 298.874C494.794 303.627 494.391 308.449 493.026 313.039C491.662 317.628 489.366 321.888 486.281 325.55C487.769 327.565 489.033 329.735 490.051 332.023L464.859 344.113L491.572 336.078C493.255 341.629 493.526 347.512 492.361 353.194C491.196 358.876 488.633 364.178 484.902 368.62C488.781 373.882 491.1 380.129 491.595 386.647C492.09 393.166 490.741 399.692 487.701 405.479C484.662 411.266 480.055 416.082 474.408 419.374C468.761 422.667 462.301 424.304 455.767 424.098C449.233 423.892 442.889 421.851 437.461 418.209C432.032 414.568 427.738 409.472 425.069 403.504C422.4 397.537 421.465 390.939 422.369 384.465C423.274 377.991 425.982 371.902 430.184 366.894C425.551 360.606 423.166 352.942 423.412 345.135C423.658 337.327 426.522 329.829 431.543 323.845H431.563Z" fill="#FFBC20"/>
<path opacity="0.1" d="M493.053 347.333C492.815 355.145 489.943 362.647 484.902 368.619C488.781 373.882 491.1 380.129 491.595 386.647C492.09 393.166 490.741 399.692 487.701 405.479C484.662 411.266 480.055 416.082 474.408 419.374C468.761 422.667 462.301 424.304 455.767 424.098C449.233 423.892 442.889 421.851 437.461 418.209C432.032 414.568 427.738 409.472 425.069 403.504C422.4 397.537 421.465 390.939 422.369 384.465C423.274 377.991 425.982 371.902 430.184 366.894C425.722 360.829 493.175 343.427 493.053 347.333Z" fill="black"/>
</g>
<g opacity="0.2">
<path opacity="0.2" d="M358.819 451.023C358.797 451.755 358.713 452.485 358.568 453.203C353.84 452.451 349.086 451.772 344.304 451.165C344.304 450.975 344.304 450.778 344.304 450.581C344.348 448.545 344.935 446.556 346.002 444.821C347.401 442.607 349.527 441.222 351.871 441.296C354.214 441.371 356.245 442.886 357.501 445.175C358.452 446.973 358.907 448.991 358.819 451.023V451.023Z" fill="#006574"/>
<path opacity="0.2" d="M359.202 439.419C359.368 434.166 356.25 429.805 352.238 429.678C348.226 429.551 344.84 433.707 344.674 438.96C344.508 444.212 347.625 448.573 351.637 448.7C355.649 448.827 359.036 444.672 359.202 439.419Z" fill="#006574"/>
<path opacity="0.2" d="M359.572 427.79C359.738 422.537 356.621 418.176 352.609 418.05C348.597 417.923 345.21 422.078 345.044 427.331C344.878 432.584 347.996 436.945 352.008 437.072C356.019 437.199 359.406 433.043 359.572 427.79Z" fill="#006574"/>
<path opacity="0.2" d="M359.936 416.162C360.102 410.909 356.984 406.548 352.973 406.421C348.961 406.294 345.574 410.45 345.408 415.703C345.242 420.956 348.36 425.317 352.371 425.443C356.383 425.57 359.77 421.415 359.936 416.162Z" fill="#006574"/>
<path opacity="0.2" d="M360.3 404.533C360.466 399.28 357.348 394.919 353.336 394.792C349.325 394.665 345.938 398.821 345.772 404.074C345.606 409.327 348.723 413.688 352.735 413.815C356.747 413.941 360.134 409.786 360.3 404.533Z" fill="#006574"/>
<path opacity="0.2" d="M328.322 323.845C327.365 322.55 326.503 321.188 325.741 319.77L344.936 317.236L324.274 316.741C322.43 312.367 321.498 307.663 321.534 302.917C321.57 298.171 322.574 293.482 324.484 289.137L351.735 304.386L326.773 284.797C329.291 280.724 332.622 277.214 336.558 274.487C340.493 271.759 344.949 269.872 349.646 268.944C354.344 268.016 359.182 268.066 363.859 269.092C368.536 270.117 372.952 272.096 376.83 274.905C380.708 277.714 383.965 281.292 386.398 285.416C388.831 289.54 390.387 294.122 390.97 298.874C391.553 303.627 391.15 308.449 389.785 313.039C388.421 317.628 386.125 321.888 383.04 325.55C384.528 327.565 385.792 329.735 386.81 332.023L361.617 344.113L388.331 336.078C390.014 341.629 390.285 347.512 389.12 353.194C387.955 358.876 385.392 364.178 381.661 368.62C385.54 373.882 387.859 380.129 388.354 386.647C388.849 393.166 387.5 399.692 384.46 405.479C381.421 411.266 376.814 416.082 371.167 419.374C365.519 422.667 359.06 424.304 352.526 424.098C345.992 423.892 339.648 421.851 334.219 418.209C328.791 414.568 324.497 409.472 321.828 403.504C319.159 397.537 318.223 390.939 319.128 384.465C320.033 377.991 322.741 371.902 326.943 366.894C322.31 360.606 319.924 352.942 320.171 345.135C320.417 337.327 323.281 329.829 328.302 323.845H328.322Z" fill="#FFBC20"/>
<path opacity="0.1" d="M389.812 347.333C389.574 355.145 386.702 362.647 381.661 368.619C385.54 373.882 387.859 380.129 388.354 386.647C388.849 393.166 387.499 399.692 384.46 405.479C381.421 411.266 376.814 416.082 371.167 419.374C365.519 422.667 359.06 424.304 352.526 424.098C345.992 423.892 339.648 421.851 334.219 418.209C328.791 414.568 324.497 409.472 321.828 403.504C319.159 397.537 318.223 390.939 319.128 384.465C320.033 377.991 322.741 371.902 326.943 366.894C322.481 360.829 389.934 343.427 389.812 347.333Z" fill="black"/>
</g>
<g opacity="0.2">
<path opacity="0.2" d="M640.832 458.454C640.78 459.842 640.614 461.223 640.336 462.584C631.234 461.131 622.067 459.831 612.834 458.685C612.834 458.319 612.834 457.945 612.834 457.565C612.92 453.642 614.05 449.814 616.108 446.473C618.825 442.214 622.9 439.545 627.403 439.681C631.907 439.817 635.826 442.744 638.271 447.152C640.115 450.625 640.999 454.526 640.832 458.454V458.454Z" fill="#006574"/>
<path opacity="0.2" d="M641.57 436.092C641.89 425.976 635.885 417.578 628.157 417.334C620.43 417.089 613.906 425.092 613.587 435.208C613.267 445.323 619.272 453.722 627 453.966C634.727 454.21 641.25 446.208 641.57 436.092Z" fill="#006574"/>
<path opacity="0.2" d="M642.276 413.704C642.596 403.588 636.591 395.19 628.863 394.946C621.136 394.702 614.612 402.704 614.293 412.82C613.973 422.936 619.978 431.334 627.706 431.578C635.433 431.823 641.957 423.82 642.276 413.704Z" fill="#006574"/>
<path opacity="0.2" d="M642.989 391.317C643.309 381.201 637.304 372.803 629.576 372.559C621.849 372.314 615.325 380.317 615.006 390.433C614.686 400.549 620.691 408.947 628.419 409.191C636.146 409.435 642.669 401.433 642.989 391.317Z" fill="#006574"/>
<path opacity="0.2" d="M642.898 367.911C643.202 357.79 637.181 349.398 629.449 349.166C621.718 348.934 615.204 356.95 614.901 367.071C614.597 377.192 620.619 385.585 628.35 385.816C636.081 386.048 642.595 378.032 642.898 367.911Z" fill="#006574"/>
<path opacity="0.2" d="M582.113 213.622C580.28 211.129 578.621 208.512 577.148 205.791L614.097 200.914L574.329 199.956C570.777 191.537 568.979 182.482 569.047 173.345C569.115 164.207 571.046 155.179 574.723 146.814L627.193 176.163L579.144 138.453C584.003 130.631 590.42 123.893 597.996 118.66C605.572 113.427 614.145 109.81 623.18 108.036C632.215 106.261 641.519 106.366 650.512 108.344C659.505 110.323 667.994 114.132 675.45 119.535C682.906 124.938 689.169 131.819 693.849 139.749C698.53 147.679 701.527 156.487 702.653 165.626C703.78 174.764 703.012 184.037 700.398 192.866C697.785 201.695 693.38 209.891 687.46 216.944C690.321 220.825 692.756 225.004 694.721 229.407L646.218 252.698L697.641 237.212C700.882 247.885 701.41 259.198 699.177 270.127C696.943 281.056 692.02 291.255 684.852 299.802C692.317 309.932 696.78 321.959 697.732 334.507C698.684 347.055 696.086 359.617 690.234 370.758C684.383 381.899 675.514 391.168 664.643 397.506C653.772 403.844 641.336 406.995 628.759 406.598C616.181 406.202 603.969 402.274 593.518 395.264C583.068 388.253 574.801 378.444 569.663 366.957C564.525 355.469 562.723 342.768 564.463 330.305C566.204 317.842 571.416 306.121 579.504 296.48C570.589 284.374 565.999 269.624 566.472 254.597C566.945 239.569 572.454 225.137 582.113 213.615V213.622Z" fill="#FFBC20"/>
<path opacity="0.1" d="M700.501 258.831C700.055 273.862 694.551 288.302 684.879 299.816C692.344 309.946 696.808 321.973 697.759 334.521C698.711 347.069 696.113 359.631 690.262 370.772C684.41 381.913 675.542 391.182 664.67 397.52C653.799 403.858 641.364 407.009 628.786 406.612C616.208 406.216 603.996 402.288 593.546 395.277C583.095 388.267 574.828 378.458 569.69 366.971C564.552 355.483 562.75 342.782 564.491 330.319C566.231 317.856 571.443 306.134 579.532 296.494C570.879 284.805 700.739 251.312 700.501 258.831Z" fill="black"/>
</g>
<path d="M107.195 459.65L114.32 459.629H124.366L137.067 253.295L262.852 43.3958L257.384 37.5274V22.666L121.35 248.432L107.195 459.65Z" fill="#F1C0C0"/>
<path opacity="0.1" d="M115.081 459.629H124.366L137.067 253.295L262.852 43.3958L257.384 37.5273L127.639 250.151L115.081 459.629Z" fill="black"/>
<path d="M86.2002 461.368L412.124 486.309L412.403 486.329L727.826 466.93L728.064 466.917V453.597L380.507 447.219L90.5404 446.941H88.4212L88.1903 448.435L86.2002 461.368Z" fill="#F1C0C0"/>
<path opacity="0.1" d="M86.2002 461.368L412.124 486.309L412.403 486.329L727.826 466.93L728.064 466.672V453.876H727.785L412.124 464.417L90.5404 446.941H90.4929L89.9223 447.314L88.1903 448.435L86.2002 461.368Z" fill="black"/>
<path opacity="0.1" d="M86.2002 461.368L412.124 486.309V464.417L89.9223 447.314L88.1903 448.435L86.2002 461.368Z" fill="black"/>
<path d="M257.343 37.2489L401.032 191.473L396.59 462.754L408.796 464.228L409 464.255H421.205L422.666 203.121L691.725 292.996L696.263 453.02L706.084 454.121L709.412 454.494L701.71 281.897L420.445 183.152L266.221 22.8223H257.343V37.2489Z" fill="#F1C0C0"/>
<path opacity="0.1" d="M421.559 198.129L422.666 203.121L691.725 292.996L696.263 453.02L706.084 454.121L698.382 289.668L421.559 198.129Z" fill="black"/>
<path opacity="0.1" d="M257.343 37.2489L401.032 191.473L396.59 462.754L408.796 464.228L412.124 182.595L257.343 22.8223V37.2489Z" fill="black"/>
<path d="M422.082 307.001L520.766 326.433L520.8 326.44L693.641 360.49L701.554 357.318L701.527 356.761L701.01 345.723L422.183 289.382L422.082 307.001Z" fill="#F1C0C0"/>
<path opacity="0.1" d="M520.799 326.44L693.641 360.49L701.553 357.318L701.526 356.761L520.799 326.44Z" fill="black"/>
<path d="M527.408 238.107L530.078 385.05L531.456 460.437L543.608 460.029L551.256 459.771L548.878 240.233L543.608 238.481L542.453 238.107H527.408Z" fill="#F1C0C0"/>
<path opacity="0.1" d="M527.517 238.074V238.108L530.078 385.051L531.457 460.438L543.608 460.03V238.074H527.517Z" fill="black"/>
<path d="M337.07 275.635C337.783 276.022 338.464 276.465 339.108 276.959C339.869 277.625 340.552 278.375 341.145 279.194C344.059 282.964 346.749 287.345 346.464 292.099C346.47 292.791 346.339 293.477 346.079 294.118C345.819 294.759 345.435 295.343 344.949 295.835C343.747 296.86 342.022 296.908 340.446 296.908C338.734 296.908 336.934 296.908 335.454 296.025C333.973 295.142 332.737 293.424 330.984 293.464C330.737 293.505 330.485 293.505 330.237 293.464C329.633 293.267 329.51 292.473 329.116 291.97C328.437 291.067 327.004 291.291 325.938 291.685C324.871 292.079 323.689 292.67 322.637 292.215C322.025 291.892 321.526 291.393 321.204 290.781C318.684 286.706 318.147 281.809 317.672 277.075C317.38 274.195 315.152 264.373 321.299 266.608C324.015 267.586 326.556 269.542 329.028 270.975L337.07 275.635Z" fill="#006574"/>
<path d="M330.998 276.606C331.547 277.001 332.213 277.2 332.888 277.173C333.564 277.146 334.211 276.894 334.727 276.456C335.738 275.542 336.383 274.292 336.541 272.938C337.22 272.727 337.566 273.617 338.001 274.16C338.762 275.084 340.31 275.071 341.003 276.055C341.485 276.735 341.377 277.679 341.716 278.446C342.158 279.438 343.251 279.954 343.998 280.756C344.704 281.631 345.214 282.648 345.493 283.737L346.607 287.079C347.14 288.469 347.482 289.924 347.625 291.406C347.696 292.146 347.618 292.894 347.396 293.604C347.175 294.314 346.814 294.973 346.335 295.542C344.841 297.152 342.389 297.322 340.222 297.274C339.498 297.29 338.776 297.205 338.076 297.023C336.153 296.425 334.924 294.49 334.415 292.54C333.905 290.591 333.96 288.546 333.661 286.549C333.338 284.588 332.767 282.675 331.963 280.858C331.365 279.445 329.721 277.339 329.748 275.838C330.237 275.838 330.591 276.286 330.998 276.606Z" fill="#006574"/>
<path d="M333.437 269.726C333.119 268.761 332.934 267.758 332.886 266.744C332.886 264.706 333.817 262.791 334.754 260.971L326.991 262.023C326.053 262.153 325.007 262.343 324.478 263.124C324.276 263.511 324.171 263.941 324.171 264.377C324.171 264.813 324.276 265.243 324.478 265.63C324.867 266.405 325.176 267.218 325.401 268.055C325.419 268.788 325.503 269.518 325.653 270.235C325.894 270.762 326.233 271.239 326.651 271.641C328.872 274.1 330.536 277 332.194 279.873C332.146 279.792 336.873 276.131 336.683 274.936C336.575 274.256 335.209 273.441 334.775 272.789C334.174 271.843 333.723 270.81 333.437 269.726V269.726Z" fill="#BE6F72"/>
<path d="M400 243.188V249.879L285.436 272.225L279.493 275.825H258.987V272.055L371.547 244.859L400 243.188Z" fill="#F1C0C0"/>
<path opacity="0.1" d="M400 249.879L285.436 272.225L279.493 275.825H258.987L372.383 251.557L400 249.879Z" fill="black"/>
<path d="M308.02 433.112C306.744 431.566 304.982 430.498 303.021 430.081C301.06 429.664 299.015 429.924 297.22 430.816C296.836 430.997 296.497 431.262 296.229 431.591C295.55 432.542 295.984 433.853 296.045 435.028C296.202 437.894 293.919 440.224 291.868 442.227C290.768 443.301 289.647 444.448 289.151 445.909C288.656 447.369 289.022 449.223 290.354 449.984C290.935 450.275 291.567 450.451 292.215 450.5C294.386 450.924 296.612 450.986 298.803 450.684C300.97 450.269 303.096 449.04 304.033 447.043C304.214 446.502 304.513 446.007 304.909 445.596C306.105 444.652 307.939 445.759 309.297 445.087C310.418 444.53 310.465 443.654 310.479 442.499C310.52 439.307 310.044 435.693 308.02 433.112Z" fill="#FFBC20"/>
<path d="M324.321 432.99C325.157 435.19 325.272 437.588 325.381 439.938C325.442 441.296 325.483 442.75 324.749 443.898C324.016 445.046 322.583 445.65 321.211 445.936C318.378 446.52 315.098 445.969 313.271 443.721C311.871 442.003 311.579 439.646 311.837 437.418C312.055 435.591 312.517 433.451 311.206 432.154C310.866 431.808 310.425 431.563 310.112 431.19C309.433 430.361 309.542 429.111 309.908 428.092C310.386 427.118 310.744 426.09 310.975 425.029C311.029 424.527 320.171 425.382 321.014 425.797C322.162 426.36 321.985 427.305 322.331 428.446C322.814 430.035 323.737 431.468 324.321 432.99Z" fill="#FFBC20"/>
<path d="M325.999 335.413C327.792 336.574 328.485 338.857 328.763 340.976C329.531 346.783 328.186 352.652 328.084 358.513C327.989 366.725 330.366 375.086 328.335 383.04C327.119 387.795 328.152 393.228 327.011 398.03C326.671 399.457 326.046 400.802 325.72 402.228C325.041 405.318 325.754 408.552 326.712 411.574C327.018 412.389 327.212 413.241 327.289 414.108C327.243 415.442 326.905 416.749 326.298 417.938L322.222 427.577C321.767 428.656 319.974 428.833 318.826 428.976C316.666 429.234 314.255 429.417 312.537 428.079C310.818 426.741 310.404 424.5 310.139 422.408C309.631 418.392 309.404 414.345 309.46 410.297C309.534 409.241 309.44 408.179 309.181 407.152C308.808 405.991 307.986 404.986 307.762 403.756C307.476 402.167 308.285 400.605 308.583 399.002C308.788 397.538 308.766 396.051 308.516 394.594C308.251 392.42 307.945 390.247 307.599 388.087C307.11 385.064 307.809 382.082 308.278 379.053C308.719 376.207 308.156 373.307 307.599 370.481C307.647 372.774 307.361 375.063 306.75 377.273C306.39 378.353 305.873 379.386 305.561 380.486C304.169 385.424 307.137 390.607 306.716 395.721C306.519 398.112 305.581 400.476 305.846 402.833C306.03 404.558 306.831 406.14 307.381 407.784C307.931 409.428 308.217 411.309 307.381 412.844C305.174 417.015 306.824 422.686 308.801 426.965C309.202 427.724 309.551 428.509 309.847 429.315C310.431 431.244 309.942 433.316 310.098 435.326C309.529 435.42 308.947 435.382 308.395 435.216C307.843 435.05 307.336 434.76 306.913 434.369C306.614 434.056 306.369 433.689 306.077 433.363C305.261 432.586 304.295 431.983 303.238 431.591C302.617 431.243 301.91 431.081 301.2 431.122C300.454 431.331 299.782 431.748 299.265 432.324C298.593 432.915 297.88 433.457 297.132 433.948C296.813 434.193 296.441 434.358 296.045 434.43C295.846 434.461 295.643 434.428 295.464 434.336C295.284 434.245 295.138 434.099 295.047 433.92C295.004 433.807 294.979 433.688 294.972 433.567C294.72 431.516 294.586 429.453 294.571 427.386C294.571 423.834 290.319 421.389 289.783 417.877C289.355 415.045 290.149 412.158 289.885 409.305C289.755 407.838 289.348 406.398 289.375 404.931C289.375 403.98 289.592 403.05 289.667 402.106C289.729 401.058 289.714 400.007 289.62 398.961L289.409 395.68C289.205 392.44 288.981 389.133 287.704 386.171C286.19 382.713 285.293 379.017 285.055 375.249C284.919 372.872 285.008 370.495 284.736 368.111C284.492 365.958 283.948 363.818 284.104 361.658C284.233 359.987 284.784 358.371 284.913 356.7C285.178 353.487 283.955 350.363 282.997 347.286C282.04 344.209 281.333 340.799 282.59 337.831C282.769 337.344 283.068 336.909 283.459 336.568C283.941 336.249 284.489 336.044 285.062 335.97C296.716 333.522 308.661 332.76 320.531 333.708C322.466 333.818 324.344 334.404 325.999 335.413Z" fill="#006574"/>
<path d="M287.44 263.273C293.449 263.273 298.321 258.401 298.321 252.392C298.321 246.382 293.449 241.511 287.44 241.511C281.43 241.511 276.559 246.382 276.559 252.392C276.559 258.401 281.43 263.273 287.44 263.273Z" fill="#BE6F72"/>
<path d="M285.334 265.983C285.49 266.605 285.49 267.256 285.334 267.878C285.163 268.313 284.922 268.717 284.621 269.074C283.567 270.432 282.402 271.7 281.136 272.864C281.781 274.304 282.942 275.45 284.39 276.076C285.827 276.688 287.335 277.119 288.879 277.36C289.65 277.563 290.452 277.618 291.243 277.523C291.972 277.34 292.662 277.027 293.281 276.599L299.326 272.979C300.238 272.485 301.083 271.875 301.839 271.166C302.948 270.026 303.575 268.503 303.591 266.914C303.619 266.629 303.542 266.344 303.374 266.112C303.142 265.91 302.852 265.789 302.545 265.766C300.419 265.297 298.742 263.572 297.791 261.616C296.931 259.61 296.375 257.488 296.14 255.319L289.694 258.715C288.737 259.225 287.786 259.734 286.794 260.176C286.162 260.461 284.886 260.699 284.437 261.276C283.581 262.342 285.11 264.699 285.334 265.983Z" fill="#BE6F72"/>
<path d="M281.177 270.887C280.259 271.639 279.543 272.608 279.092 273.705C278.671 275.064 279.092 276.497 279.472 277.842C281.255 283.574 282.617 289.429 283.548 295.359C284.118 299.434 284.329 303.571 284.607 307.694C285.178 316.102 286.006 329.51 287.114 337.865C291.189 338.048 295.162 336.859 299.204 336.425C306.757 335.623 314.534 337.457 321.93 335.745C320.137 328.661 318.344 316.564 316.551 309.487C315.758 306.698 315.208 303.846 314.907 300.963C314.751 298.891 314.846 296.812 314.873 294.727C314.934 290.652 314.71 286.577 314.486 282.501C314.228 277.747 313.97 272.992 312.842 268.34C312.764 267.747 312.486 267.198 312.055 266.784C311.375 266.288 310.492 266.465 309.684 266.574C307.209 266.888 304.704 266.294 302.634 264.903C301.737 264.291 300.535 263.544 299.7 264.223C299.343 264.633 299.108 265.134 299.02 265.67C298.651 266.631 298.08 267.502 297.347 268.225C296.614 268.947 295.735 269.505 294.768 269.861C292.833 270.562 290.806 270.978 288.75 271.097C288.122 271.232 287.466 271.158 286.883 270.887C285.918 270.296 285.85 268.17 284.634 268.027C283.568 267.905 281.897 270.201 281.177 270.887Z" fill="#006574"/>
<path d="M297.248 287.473C294.741 285.075 293.641 281.598 291.814 278.643C290.57 276.656 288.98 274.908 287.121 273.481C286.186 272.864 285.328 272.136 284.567 271.314C283.921 270.52 283.432 269.46 282.454 269.154C282.05 269.067 281.631 269.078 281.232 269.188C280.833 269.298 280.467 269.503 280.165 269.786C279.567 270.357 279 270.96 278.467 271.593C275.587 274.575 270.527 274.989 268.245 278.439C267.629 279.171 267.211 280.048 267.029 280.986C266.372 286.008 267.671 291.091 270.656 295.182C271.234 296.131 272.122 296.85 273.169 297.22C273.027 298.486 273.195 299.768 273.658 300.956C274.916 305.254 276.461 309.464 278.284 313.555C277.848 315.156 277.544 316.789 277.374 318.439C276.898 322.589 277.34 326.8 276.891 330.957C276.525 334.353 275.533 337.661 275.499 341.064C275.499 341.607 275.547 342.252 276.015 342.531C276.265 342.659 276.544 342.717 276.824 342.7L285.178 342.952C290.028 343.094 294.925 343.237 299.7 342.341C300.336 342.246 300.952 342.052 301.527 341.763C303.143 340.86 303.68 338.822 303.938 337.009C304.275 334.656 304.409 332.279 304.339 329.904C305.351 333.103 306.553 336.411 309.61 337.797C311.226 338.53 313.074 338.476 314.846 338.428C318.667 338.258 322.475 337.866 326.25 337.253C326.483 337.282 326.719 337.256 326.94 337.177C327.161 337.098 327.36 336.969 327.522 336.799C327.684 336.63 327.803 336.424 327.872 336.2C327.94 335.976 327.954 335.739 327.915 335.508L327.955 331.799C328.037 324.266 326.169 317.067 325.442 309.568C325.211 307.204 325.232 304.814 324.654 302.497C324.417 301.526 324.07 300.575 323.86 299.597C323.678 298.64 323.565 297.67 323.52 296.697L322.99 289.225C322.739 285.768 322.379 282.433 322.114 278.983C321.968 275.623 321.481 272.287 320.66 269.025C320.07 266.988 318.84 264.678 316.714 264.427C315.58 264.298 314.48 264.794 313.4 265.14C310.745 265.976 307.896 265.964 305.249 265.106C304.431 264.783 303.579 264.555 302.709 264.427C302.271 264.367 301.825 264.425 301.417 264.595C301.008 264.764 300.653 265.039 300.386 265.392C300.122 265.922 299.998 266.511 300.026 267.103C299.706 273.889 299.116 280.878 297.248 287.473Z" fill="#FFBC20"/>
<path d="M286.319 287.677C283.188 284.376 279.975 281.014 275.941 278.915C274.351 278.087 272.544 277.462 270.785 277.774C269.026 278.087 267.389 279.615 267.471 281.401C267.525 282.508 268.197 283.487 268.408 284.573C268.653 285.796 268.299 287.1 268.68 288.282C268.989 289.061 269.451 289.77 270.038 290.367L274.847 296.066C276.885 298.443 278.922 300.854 281.544 302.498C284.166 304.142 287.562 304.909 290.442 303.741C292.491 302.789 294.195 301.225 295.319 299.265C296.514 297.363 297.356 295.285 298.477 293.322C300.221 290.185 302.523 287.393 305.269 285.083C303.857 284.716 302.084 284.2 301.194 283.045C300.941 282.678 300.725 282.287 300.549 281.877L299.448 279.499C299.074 279.48 298.7 279.538 298.349 279.67C297.999 279.802 297.679 280.005 297.411 280.267C296.939 280.812 296.433 281.327 295.896 281.809C294.938 282.529 293.641 282.726 292.772 283.548C292.435 283.9 292.131 284.282 291.862 284.689C291.204 285.553 290.369 286.267 289.413 286.782C288.458 287.298 287.403 287.603 286.319 287.677V287.677Z" fill="#006574"/>
<path d="M305.52 273.475C307.877 269.175 307.769 264.02 308.441 259.164C308.514 257.877 308.965 256.642 309.738 255.611C311.097 254.076 313.494 254.056 315.546 254.253C316.15 254.321 316.904 254.606 316.87 255.21C316.823 255.427 316.717 255.627 316.565 255.788C314.576 258.354 313.407 261.459 313.209 264.699C314.276 265.44 315.926 263.918 316.952 264.699C317.631 265.27 317.318 266.397 316.911 267.212C315.965 269.101 314.989 270.975 313.983 272.836C313.181 274.477 312.134 275.986 310.879 277.312C310.017 278.141 309.005 278.793 308.129 279.608C306.091 281.517 304.862 284.213 302.756 286.074C302.578 286.267 302.337 286.39 302.077 286.421C301.809 286.402 301.556 286.289 301.364 286.101C300.312 285.246 299.439 284.191 298.796 282.997C297.995 281.517 298.117 281.082 299.38 280.036C301.744 278.168 304.046 276.164 305.52 273.475Z" fill="#BE6F72"/>
<path d="M282.379 284.756C282.787 285.008 283.29 285.293 283.738 285.082C283.921 284.972 284.077 284.821 284.193 284.641C284.969 283.605 285.617 282.478 286.122 281.285C286.209 281.117 286.258 280.931 286.265 280.742C286.265 280.307 285.877 279.988 285.517 279.737C283.589 278.507 281.515 277.522 279.343 276.803C277.55 276.123 275.676 275.532 273.774 275.702C273.059 275.75 272.362 275.942 271.723 276.267C271.085 276.591 270.518 277.042 270.058 277.591C268.7 279.336 270.975 279.866 272.402 280.498C275.703 281.999 279.275 282.868 282.379 284.756Z" fill="#FFBC20"/>
<path opacity="0.1" d="M280.24 296.303C280.217 296.458 280.231 296.616 280.28 296.765C280.33 296.914 280.414 297.049 280.525 297.159C280.722 296.194 280.464 295.176 280.668 294.204C280.967 292.744 282.386 291.644 282.508 290.176C279.907 289.667 280.26 294.727 280.24 296.303Z" fill="black"/>
<path opacity="0.2" d="M400 243.188V249.879L372.383 251.556L371.547 244.859L400 243.188Z" fill="black"/>
<path d="M277.645 254.009C279.371 252.603 278.372 249.655 279.54 247.767C280.22 246.734 281.368 246.191 282.495 245.729C283.856 245.092 285.314 244.688 286.808 244.534C287.557 244.462 288.312 244.559 289.017 244.819C289.723 245.079 290.36 245.494 290.883 246.035C291.325 246.537 291.624 247.149 292.038 247.672C292.551 248.282 293.22 248.742 293.973 249.002C294.727 249.263 295.537 249.315 296.317 249.152C297.221 248.949 298.158 248.262 298.097 247.339C297.995 246.777 297.708 246.265 297.282 245.885L295.339 243.732C293.132 241.287 290.68 238.692 287.44 238.081C285.185 237.653 282.875 238.258 280.702 238.984C279.826 239.276 278.841 239.711 278.596 240.601C278.433 241.212 278.678 241.878 278.535 242.496C278.257 243.725 276.681 244.14 275.947 245.172C275.214 246.204 275.438 247.427 275.227 248.568C275.017 249.709 274.406 250.823 274.331 252.005C274.283 252.718 274.643 254.043 275.445 254.301C276.246 254.559 277.15 253.16 277.645 254.009Z" fill="#006574"/>
<path d="M297.438 246.36C296.865 243.372 295.63 240.55 293.824 238.101C292.218 235.813 289.984 234.039 287.392 232.993C286.096 232.487 284.703 232.28 283.316 232.39C281.929 232.499 280.584 232.921 279.384 233.625C277.602 234.897 276.215 236.646 275.383 238.671C273.624 242.461 272.972 247.094 275.017 250.734C275.832 249.743 277.231 250.191 278.467 249.831C280.016 249.389 281.327 248.357 282.801 247.712C287.249 245.749 292.683 247.338 297.438 246.36Z" fill="#FED253"/>
<path opacity="0.1" d="M276.056 246.15C275.9 244.927 275.798 243.507 276.667 242.638C276.71 242.585 276.765 242.542 276.828 242.514C276.89 242.486 276.959 242.472 277.027 242.475C277.088 242.495 277.144 242.526 277.192 242.569C277.24 242.611 277.278 242.662 277.306 242.719C277.807 243.511 278.235 244.348 278.583 245.219C278.076 245.102 277.547 245.14 277.062 245.328C276.578 245.516 276.161 245.844 275.866 246.272" fill="black"/>
<path opacity="0.1" d="M291.929 242.699L291.685 240.275C291.645 240.075 291.662 239.868 291.732 239.677C291.835 239.517 291.993 239.401 292.176 239.351C292.359 239.3 292.554 239.32 292.724 239.405C293.058 239.59 293.333 239.866 293.518 240.2C294.084 241.068 294.553 241.995 294.918 242.964C293.824 242.754 292.698 242.768 291.61 243.005" fill="black"/>
<path opacity="0.1" d="M298.008 341.111V346.654L293.328 346.966H268.713V341.111H298.008Z" fill="black"/>
<path d="M298.008 341.112V346.967H268.713L190.888 249.478V244.873H207.203L298.008 341.112Z" fill="#F1C0C0"/>
<path opacity="0.1" d="M298.008 341.112V346.967H268.713L190.888 249.478V244.873H207.203L298.008 341.112Z" fill="black"/>
<path opacity="0.1" d="M298.008 341.112V346.967H268.713L190.888 249.478V244.873L269.134 341.112H298.008Z" fill="black"/>
<path d="M201.09 438.824C201.141 439.1 201.135 439.383 201.072 439.656C201.009 439.929 200.89 440.186 200.723 440.411C200.556 440.636 200.344 440.824 200.101 440.964C199.858 441.103 199.589 441.191 199.311 441.222C197.422 441.86 195.419 442.492 194.081 443.939C192.743 445.386 192.478 448.069 194.081 449.244C194.9 449.738 195.841 449.994 196.798 449.984C199.874 450.195 203.08 450.154 205.872 448.85C207.869 447.926 209.75 446.35 211.944 446.493C213.078 446.561 214.288 447.09 215.3 446.574C216.312 446.058 216.597 444.618 216.604 443.416C216.629 440.906 216.251 438.409 215.483 436.019C215.381 435.693 211.061 435.442 210.545 435.34L205.308 434.661C204.317 434.532 202.177 433.784 201.396 434.613C200.615 435.442 201.09 437.839 201.09 438.824Z" fill="#FFBC20"/>
<path d="M232.341 421.871C232.563 423.094 232.923 424.288 233.414 425.43C234.141 427.278 235.072 429.241 236.851 430.137C238.468 430.945 240.451 430.653 242.095 429.886C242.781 429.602 243.382 429.146 243.84 428.561C244.371 427.637 244.608 426.574 244.52 425.512C244.52 422.883 244.363 420.166 243.161 417.83C242.129 415.792 240.329 414.04 240.302 411.785L234.114 412.98C233.783 413.012 233.467 413.137 233.204 413.34C233.008 413.547 232.872 413.802 232.81 414.08C232.149 416.622 231.99 419.268 232.341 421.871V421.871Z" fill="#FFBC20"/>
<path d="M158.448 357.345C158.19 359.532 158.299 361.875 159.44 363.764C160.581 365.652 162.986 366.902 165.064 366.148C165.171 366.121 165.271 366.072 165.358 366.006C165.446 365.939 165.519 365.856 165.573 365.761C165.629 365.531 165.597 365.289 165.485 365.081C164.568 362.633 164.643 359.922 165.696 357.528C165.832 357.216 166.124 356.849 166.443 356.971C166.576 357.039 166.684 357.149 166.749 357.284C167.077 357.853 167.242 358.502 167.224 359.158C167.128 359.754 167.11 360.359 167.17 360.958C167.299 361.543 167.924 362.093 168.467 361.841C168.624 361.745 168.76 361.618 168.866 361.467C168.972 361.316 169.047 361.146 169.085 360.965C170.6 356.584 169.914 351.796 169.221 347.211C169.227 347.106 169.209 347 169.17 346.903C169.131 346.805 169.07 346.717 168.993 346.645C168.916 346.573 168.824 346.519 168.724 346.486C168.623 346.454 168.517 346.444 168.413 346.457C165.207 346.138 163.454 345.37 161.62 348.352C160.045 350.865 158.448 354.322 158.448 357.345Z" fill="#FFBC20"/>
<path d="M195.928 346.199C194.977 350.152 194.02 354.153 193.958 358.214C193.975 360.744 194.166 363.27 194.529 365.774L195.242 371.656C195.487 373.639 195.724 375.616 196.071 377.579C196.292 378.59 196.412 379.621 196.431 380.656C196.364 381.676 196.203 382.688 195.949 383.678C195.521 385.758 195.283 387.872 195.235 389.995C195.161 393.391 195.582 396.787 195.847 400.183C196.376 406.951 196.296 413.752 195.609 420.506C195.335 422.329 195.73 424.189 196.723 425.743C197.126 426.232 197.457 426.777 197.708 427.359C198.217 428.914 197.029 430.47 196.723 432.066C196.527 433.311 196.834 434.582 197.575 435.601C198.316 436.62 199.432 437.303 200.676 437.5C206.11 438.145 211.693 437.853 216.59 440.339C217.106 438.831 215.979 437.119 216.495 435.584C216.821 434.634 217.718 434.015 218.329 433.214C219.15 431.993 219.56 430.541 219.497 429.071C219.521 427.152 219.18 425.245 218.492 423.454C217.915 421.959 217.086 420.485 217.134 418.882C217.134 418.094 217.412 417.266 217.093 416.539C216.874 416.122 216.576 415.75 216.217 415.446C214.187 413.222 212.939 410.395 212.664 407.397C212.399 404.421 212.495 401.424 212.95 398.472C213.282 395.66 213.731 392.692 215.517 390.498C214.689 383.845 215.176 377.095 216.95 370.631C217.127 370.033 217.405 369.34 218.017 369.197C218.259 369.173 218.505 369.206 218.732 369.296C218.959 369.386 219.161 369.529 219.321 369.714C220.387 370.712 220.896 372.159 221.358 373.544C221.868 375.045 222.384 376.648 221.997 378.183C221.834 378.863 221.508 379.46 221.318 380.112C220.904 381.423 220.977 382.838 221.521 384.1C221.787 384.56 221.953 385.072 222.01 385.601C221.947 386.055 221.81 386.495 221.603 386.905C221.351 387.708 221.271 388.556 221.368 389.393C221.465 390.23 221.737 391.036 222.167 391.761C223.032 393.203 224.1 394.514 225.339 395.653C224.747 398.26 224.9 400.981 225.78 403.505C225.844 403.619 225.884 403.744 225.899 403.873C225.914 404.002 225.904 404.133 225.868 404.259C225.746 404.517 225.434 404.612 225.189 404.795C224.51 405.352 224.931 406.405 225.386 407.132C226.633 409.127 228.011 411.037 229.509 412.851C230.867 414.474 230.745 417.605 232.769 418.19C233.62 418.373 234.5 418.373 235.35 418.19C237.347 417.884 239.575 417.307 240.553 415.541C240.954 414.814 241.117 413.931 241.742 413.387C242.367 412.844 243.175 412.749 243.521 412.097C243.868 411.445 243.481 410.589 243.596 409.835C243.711 409.081 244.37 408.477 244.581 407.682C245.083 405.848 242.944 404.34 242.652 402.466C242.231 399.749 245.654 397.711 245.511 394.994C245.213 389.092 245.022 383.162 244.717 377.26C244.333 371.973 244.279 366.667 244.554 361.373C244.791 358.079 245.233 354.628 244.024 351.565C242.285 347.245 237.49 344.82 232.851 344.358C228.212 343.896 223.586 344.997 218.988 345.717C211.356 346.893 203.602 347.055 195.928 346.199V346.199Z" fill="#006574"/>
<path d="M209.716 281.279C215.726 281.279 220.597 276.407 220.597 270.398C220.597 264.388 215.726 259.517 209.716 259.517C203.707 259.517 198.835 264.388 198.835 270.398C198.835 276.407 203.707 281.279 209.716 281.279Z" fill="#FBBEBE"/>
<path d="M205.288 283.309C204.918 284.17 204.297 284.899 203.505 285.399C202.713 285.9 201.789 286.149 200.852 286.115C200.459 287.745 201.403 289.388 202.483 290.672C204.725 293.282 207.623 295.246 210.878 296.362C214.133 297.479 217.626 297.707 220.998 297.023C222.31 296.788 223.555 296.269 224.646 295.501C226.115 294.274 227.102 292.565 227.43 290.679C227.743 288.806 227.832 286.902 227.695 285.007C227.733 284.633 227.626 284.259 227.396 283.961C227.125 283.751 226.789 283.641 226.446 283.649C224.15 283.445 221.752 283.357 219.735 282.229C217.718 281.102 216.284 278.555 217.256 276.463C217.099 276.789 213.133 276.945 212.61 277.013C210.973 277.244 209.336 277.502 207.706 277.801C206.923 277.844 206.148 277.99 205.403 278.236C204.418 278.745 204.785 278.494 205.016 279.418C205.363 280.83 205.872 281.842 205.288 283.309Z" fill="#FBBEBE"/>
<path d="M213.567 289.926C212.102 289.942 210.64 289.781 209.214 289.443C207.774 289.107 206.504 288.26 205.641 287.059C205.138 286.299 204.812 285.341 204.011 284.913C202.7 284.234 201.206 285.382 200.16 286.434C199.207 287.473 198.104 288.361 196.886 289.07C195.432 289.837 193.734 290.109 192.362 291.012C191.29 291.822 190.371 292.816 189.645 293.947L180.021 307.056C176.156 312.326 172.794 317.984 169.35 323.547C166.368 328.363 164.806 333.905 162.558 339.101C162.38 339.419 162.306 339.785 162.347 340.147C162.429 340.5 162.857 340.786 163.156 340.582C162.144 341.587 163.033 343.299 162.796 344.712C162.526 345.7 161.962 346.583 161.179 347.245C162.674 347.05 164.192 347.121 165.662 347.456C167.181 347.886 168.615 348.576 169.9 349.493C170.722 349.364 170.648 347.904 171.259 347.36C171.626 347.041 172.169 347.082 172.651 346.987C174.465 346.634 175.185 344.453 176.577 343.224C177.739 342.198 179.382 341.866 180.612 340.901C182.609 339.332 183.037 336.541 184.083 334.224C184.972 332.261 186.372 330.55 187.153 328.539C187.662 327.235 187.907 325.822 188.633 324.62C189.795 322.678 191.982 321.645 194.067 320.715C195.385 320.124 196.784 319.512 198.204 319.608C198.129 322.766 197.728 325.877 198.414 328.96C198.652 330.047 198.985 331.107 199.27 332.187C200.567 337.05 200.873 342.117 200.934 347.13C204.055 346.416 207.242 346.033 210.443 345.988C212.963 345.914 215.476 346.24 217.996 346.192C220.985 346.138 223.939 345.561 226.928 345.357C229.916 345.153 233.041 345.357 235.683 346.715C235.468 342.411 235.589 338.096 236.043 333.81L236.763 327.059C236.925 325.097 237.227 323.15 237.666 321.231C238.06 319.682 238.631 318.188 239.065 316.646C240.594 311.212 240.315 305.412 240.023 299.754C239.874 296.847 238.753 293.987 237.435 291.399C236.958 290.438 236.414 289.512 235.805 288.628C234.213 286.434 232.091 284.68 229.637 283.527C227.183 282.375 224.478 281.864 221.772 282.04C221.427 282.05 221.086 282.124 220.767 282.257C220.194 282.624 219.746 283.157 219.484 283.785C218.078 286.311 216.039 288.427 213.567 289.926Z" fill="#006574"/>
<path d="M200.146 274.004C200.452 273.325 201.274 273.074 201.776 272.53C202.741 271.498 202.306 269.848 202.455 268.455C202.7 266.417 204.391 264.713 206.327 263.986C208.301 263.352 210.402 263.219 212.44 263.599C213.421 263.67 214.369 263.985 215.198 264.516C215.551 264.774 215.877 265.107 216.21 265.344C216.816 265.711 217.542 265.826 218.233 265.665C218.923 265.504 219.523 265.079 219.905 264.482C217.5 261.588 214.838 258.532 211.183 257.642C209.93 257.386 208.652 257.265 207.373 257.282C205.682 257.248 203.936 257.221 202.374 257.866C200.248 258.742 198.754 260.76 197.986 262.933C197.315 265.136 196.956 267.422 196.92 269.725C196.781 271.262 196.781 272.808 196.92 274.344C197.182 276.442 197.962 278.442 199.188 280.165C199.354 280.432 199.589 280.651 199.868 280.797C202.965 282.155 199.895 274.568 200.146 274.004Z" fill="#006574"/>
<path d="M219.551 262.804C219.178 259.605 216.895 256.963 214.471 254.837C212.516 252.994 210.188 251.592 207.644 250.728C205.084 249.974 202.136 250.137 199.942 251.665C198.176 252.894 197.055 254.851 196.193 256.82C195.06 259.145 194.498 261.706 194.556 264.292C194.726 266.859 195.975 269.461 198.203 270.758C199.005 269.576 200.397 268.965 201.735 268.483C207.567 266.27 213.514 264.374 219.551 262.804V262.804Z" fill="#FED253"/>
<path opacity="0.1" d="M198.951 261.473C199.168 261.473 199.311 261.697 199.419 261.881C199.972 262.742 200.447 263.651 200.839 264.597C200.044 264.767 198.679 264.957 198.285 264.258C198.074 263.905 198.326 261.439 198.951 261.473Z" fill="black"/>
<path opacity="0.1" d="M214.43 259.938C214.267 260.094 214.077 259.775 214.077 259.544V256.909C214.072 256.835 214.089 256.762 214.124 256.698C214.153 256.666 214.187 256.64 214.225 256.621C214.264 256.602 214.306 256.592 214.349 256.589C214.899 256.528 215.354 256.997 215.707 257.445C216.243 258.172 216.709 258.947 217.099 259.761L214.226 259.673" fill="black"/>
<path d="M250.286 303.578C250.911 302.984 251.579 302.437 252.283 301.941C254.165 300.684 256.44 300.188 258.552 299.387C260.665 298.585 262.811 297.288 263.633 295.182C264.044 293.866 264.178 292.478 264.027 291.107C264.047 290.533 263.945 289.961 263.728 289.43C263.469 288.959 263.101 288.559 262.655 288.261C259.789 286.142 255.944 285.972 252.385 286.19C244.538 286.676 236.847 288.596 229.692 291.854C229.314 291.979 228.982 292.216 228.741 292.534C228.602 292.828 228.539 293.153 228.558 293.478C228.431 295.481 228.692 297.489 229.325 299.394C230.263 301.812 232.192 303.761 233 306.227C233.367 307.334 233.489 308.509 233.808 309.623C234.07 310.773 234.751 311.785 235.717 312.462C238.4 314.065 240.933 311.912 242.794 310.241L250.286 303.578Z" fill="#006574"/>
<path d="M215.15 312.985L211.707 305.473C211.202 304.432 210.766 303.358 210.402 302.26C210.009 300.949 209.818 299.591 209.452 298.273C208.243 293.885 205.193 290.231 203.705 285.931C203.611 285.543 203.42 285.186 203.148 284.892C202.931 284.739 202.683 284.635 202.421 284.588C202.16 284.541 201.891 284.552 201.634 284.621C199.555 284.981 197.932 286.563 196.03 287.46C195.147 287.867 194.196 288.139 193.313 288.608C192.872 288.817 192.481 289.118 192.167 289.492C191.853 289.866 191.623 290.303 191.493 290.774C191.282 291.814 191.799 292.812 192.233 293.824C194.081 297.994 194.502 302.654 194.583 307.218C194.645 310.288 194.488 313.583 192.675 316.048C189.19 320.803 191.418 327.785 192.722 333.538C192.879 334.217 193.062 334.951 193.171 335.671C193.286 336.572 193.338 337.48 193.327 338.388C193.327 341.437 193.157 344.582 191.88 347.347C193.141 348.017 194.53 348.411 195.955 348.501C199.899 349.004 203.859 349.357 207.835 349.561C209.081 349.678 210.337 349.614 211.564 349.371C213.021 348.977 214.306 348.109 215.215 346.903C216.124 345.698 216.605 344.224 216.583 342.714C216.801 344.596 217.201 346.64 218.567 347.944C219.932 349.248 221.922 349.445 223.776 349.547C229.01 349.825 234.257 349.677 239.466 349.106C239.799 349.091 240.126 349.015 240.431 348.882C241.436 348.379 241.49 346.993 241.409 345.88C241.26 343.794 241.103 341.709 240.852 339.637C240.639 338.317 240.53 336.981 240.526 335.644C240.63 334.268 240.857 332.904 241.205 331.568C242.115 327.33 242.835 323.003 242.53 318.663C242.409 317.606 242.366 316.541 242.401 315.478C242.577 313.08 243.841 310.798 243.603 308.414C242.924 301.404 242.373 294.211 240.417 287.446C240.064 286.237 239.616 284.94 238.563 284.247C237.205 283.337 235.296 283.812 233.741 283.235C233.011 282.895 232.317 282.483 231.669 282.006C230.261 281.125 228.648 280.629 226.989 280.566C225.739 280.518 224.347 280.797 223.593 281.802C223.244 282.368 223.013 282.999 222.914 283.656C221.929 287.799 220.774 291.895 219.619 295.991L218.512 299.917L215.544 310.458C215.252 311.579 215.449 311.925 215.15 312.985Z" fill="#FFBC20"/>
<path d="M232.518 271.858L298.219 340.901V346.756H268.924L219.551 282.318" fill="#F1C0C0"/>
<path opacity="0.1" d="M232.518 271.858L298.219 340.901V346.756H268.924L219.551 282.318" fill="black"/>
<path opacity="0.1" d="M220.597 281.408L220.808 281.483L269.345 340.901H298.219V346.756H268.924L219.551 282.318L220.597 281.408Z" fill="black"/>
<path d="M228.157 282.862C225.78 283.901 223.138 285.232 222.424 287.732C222.284 288.171 222.253 288.637 222.336 289.09C222.51 289.623 222.841 290.091 223.286 290.432C223.731 290.772 224.269 290.97 224.829 290.999C225.947 291.026 227.059 290.823 228.096 290.401L242.122 285.769C242.502 285.647 242.937 285.463 243.032 285.09C243.056 284.855 243.009 284.618 242.896 284.411C242.461 283.351 242.034 281.184 241.123 280.444C240.376 279.846 238.896 280.057 237.992 280.07C234.515 280.097 231.248 281.503 228.157 282.862Z" fill="#FFBC20"/>
<path d="M240.661 286.319C243.024 286.312 245.374 286.676 247.623 287.399C249.883 288.132 251.885 289.5 253.39 291.338C253.828 291.852 254.14 292.462 254.3 293.118C254.436 293.797 256.65 294.205 256.161 294.666C257.649 294.429 257.296 295.128 258.803 295.115C260.311 295.101 261.941 294.714 262.845 293.512C263.472 292.524 263.752 291.355 263.639 290.19C263.659 289.384 263.506 288.583 263.191 287.84C262.512 286.414 260.95 285.646 259.51 284.987L247.379 279.438C246.675 279.064 245.92 278.796 245.137 278.644C244.479 278.581 243.816 278.597 243.161 278.691L237.666 279.323C238.868 280.1 239.846 281.178 240.505 282.449C241.163 283.719 241.48 285.14 241.422 286.57" fill="#006574"/>
<path d="M620.235 65.7369L584.802 99.5387L618.604 134.972L654.037 101.17L689.47 67.3681L655.668 31.9351L621.866 -3.49797L586.433 30.3038L620.235 65.7369Z" fill="#006574"/>
<path d="M650.19 -4.24554L719.174 68.0676L646.861 137.052L611.679 100.172L647.112 66.3698L613.31 30.9368L650.19 -4.24554ZM716.346 68.001L650.123 -1.4179L616.137 31.0034L649.939 66.4364L614.506 100.238L646.927 134.224L716.346 68.001Z" fill="#FF9D00"/>
<path d="M578.111 91.7559L580.167 93.9121L610.919 64.5763L608.862 62.42L578.111 91.7559Z" fill="#FF9D00"/>
<path d="M572.864 86.2705L574.921 88.4268L605.672 59.0909L603.615 56.9347L572.864 86.2705Z" fill="#FF9D00"/>
<path d="M567.639 80.7793L569.696 82.9355L600.448 53.5997L598.391 51.4435L567.639 80.7793Z" fill="#FF9D00"/>
<path d="M562.407 75.2949L564.464 77.4512L595.215 48.1153L593.158 45.9591L562.407 75.2949Z" fill="#FF9D00"/>
<path d="M557.168 69.8174L559.225 71.9736L589.976 42.6378L587.919 40.4816L557.168 69.8174Z" fill="#FF9D00"/>
<path d="M552.005 64.3903L554 66.4814L584.752 37.1456L582.757 35.0545L552.005 64.3903Z" fill="#FF9D00"/>
</g>
<path d="M863.582 270.798C862.665 270.156 861.537 270.355 860.9 271.264C860.258 272.182 860.456 273.31 861.366 273.946C862.283 274.589 863.403 274.384 864.048 273.481C864.69 272.563 864.5 271.441 863.582 270.798Z" fill="#FF9D00"/>
<path d="M879.359 281.845C878.453 281.186 877.312 281.352 876.659 282.25C876 283.155 876.174 284.302 877.063 284.95C877.969 285.609 879.102 285.437 879.755 284.54C880.428 283.631 880.257 282.498 879.359 281.845Z" fill="#FF9D00"/>
<path d="M895.079 292.852C894.167 292.201 893.031 292.395 892.386 293.298C891.735 294.21 891.928 295.346 892.832 295.991C893.744 296.642 894.866 296.451 895.516 295.539C896.173 294.619 895.99 293.503 895.079 292.852Z" fill="#FF9D00"/>
<path d="M816.488 254.266C817.405 254.908 818.527 254.717 819.17 253.8C819.812 252.883 819.622 251.76 818.704 251.118C817.787 250.475 816.659 250.674 816.022 251.584C815.377 252.487 815.584 253.621 816.488 254.266Z" fill="#FF9D00"/>
<path d="M832.207 265.274C833.119 265.924 834.244 265.747 834.902 264.841C835.559 263.922 835.382 262.797 834.478 262.152C833.567 261.501 832.434 261.672 831.789 262.576C831.13 263.482 831.317 264.626 832.207 265.274Z" fill="#FF9D00"/>
<path d="M850.173 273.142C849.258 272.513 848.125 272.72 847.49 273.643C846.862 274.558 847.077 275.698 847.992 276.326C848.915 276.961 850.033 276.742 850.667 275.819C851.31 274.901 851.097 273.776 850.173 273.142Z" fill="#FF9D00"/>
<path d="M865.999 284.222C865.099 283.555 863.956 283.707 863.292 284.585C862.625 285.485 862.776 286.629 863.654 287.293C864.555 287.96 865.698 287.808 866.354 286.924C867.04 286.013 866.892 284.884 865.999 284.222Z" fill="#FF9D00"/>
<path d="M881.711 295.224C880.799 294.573 879.66 294.753 879.021 295.648C878.371 296.56 878.55 297.698 879.453 298.343C880.365 298.994 881.496 298.809 882.141 297.905C882.791 296.994 882.614 295.869 881.711 295.224Z" fill="#FF9D00"/>
<path d="M818.856 267.657C819.779 268.291 820.899 268.086 821.533 267.163C822.176 266.245 821.971 265.126 821.053 264.483C820.136 263.841 819.01 264.054 818.368 264.971C817.739 265.886 817.947 267.02 818.856 267.657Z" fill="#FF9D00"/>
<path d="M834.206 275.878C833.509 276.769 833.632 277.918 834.485 278.6C835.368 279.292 836.525 279.174 837.199 278.315C837.897 277.424 837.781 276.281 836.923 275.607C836.029 274.896 834.881 275.019 834.206 275.878Z" fill="#FF9D00"/>
<path d="M852.615 286.583C851.715 285.916 850.577 286.059 849.916 286.951C849.249 287.851 849.4 288.995 850.278 289.659C851.179 290.326 852.322 290.174 852.978 289.291C853.656 288.374 853.507 287.244 852.615 286.583Z" fill="#FF9D00"/>
<path d="M868.269 297.543C867.354 296.915 866.223 297.136 865.597 298.065C864.969 298.98 865.19 300.111 866.113 300.745C867.033 301.366 868.151 301.147 868.785 300.224C869.411 299.295 869.193 298.178 868.269 297.543Z" fill="#FF9D00"/>
<path d="M821.208 281.034C822.125 281.677 823.239 281.48 823.89 280.569C824.532 279.651 824.341 278.529 823.424 277.886C822.507 277.244 821.378 277.443 820.742 278.352C820.105 279.261 820.298 280.398 821.208 281.034Z" fill="#FF9D00"/>
<path d="M839.133 288.874C838.212 288.253 837.081 288.474 836.455 289.403C835.835 290.324 836.056 291.455 836.985 292.081C837.905 292.702 839.023 292.483 839.654 291.546C840.289 290.623 840.07 289.505 839.133 288.874Z" fill="#FF9D00"/>
<path d="M854.942 299.944C854.031 299.293 852.892 299.472 852.253 300.368C851.602 301.279 851.782 302.418 852.685 303.063C853.597 303.714 854.722 303.537 855.372 302.625C856.023 301.713 855.846 300.589 854.942 299.944Z" fill="#FF9D00"/>
<path d="M823.51 294.378C824.411 295.045 825.554 294.894 826.21 294.01C826.882 293.102 826.733 291.972 825.85 291.317C824.949 290.65 823.806 290.801 823.142 291.679C822.473 292.565 822.632 293.715 823.51 294.378Z" fill="#FF9D00"/>
<path d="M841.567 302.309C840.661 301.65 839.519 301.816 838.866 302.713C838.208 303.619 838.381 304.766 839.271 305.414C840.177 306.072 841.31 305.901 841.963 305.004C842.635 304.095 842.464 302.962 841.567 302.309Z" fill="#FF9D00"/>
<path d="M828.117 304.624C827.196 304.003 826.071 304.216 825.444 305.145C824.824 306.066 825.045 307.197 825.966 307.818C826.887 308.438 828.004 308.219 828.638 307.296C829.259 306.375 829.046 305.25 828.117 304.624Z" fill="#FF9D00"/>
<path d="M854.288 233.808C855.206 234.45 856.326 234.246 856.974 233.32C857.616 232.403 857.411 231.283 856.494 230.64C855.577 229.998 854.443 230.205 853.814 231.12C853.172 232.038 853.379 233.171 854.288 233.808Z" fill="#FF9D00"/>
<path d="M872.629 244.453C873.327 243.562 873.211 242.419 872.353 241.745C871.462 241.047 870.313 241.171 869.639 242.029C868.947 242.913 869.065 244.069 869.923 244.744C870.801 245.443 871.963 245.317 872.629 244.453Z" fill="#FF9D00"/>
<path d="M888.015 252.711C887.103 252.061 885.965 252.24 885.325 253.135C884.675 254.047 884.854 255.186 885.758 255.831C886.669 256.481 887.794 256.304 888.445 255.393C889.095 254.481 888.913 253.364 888.015 252.711Z" fill="#FF9D00"/>
<path d="M840.929 236.185C841.849 236.805 842.967 236.586 843.601 235.663C844.229 234.748 844.017 233.623 843.08 232.991C842.159 232.371 841.033 232.583 840.407 233.512C839.784 234.419 840.005 235.55 840.929 236.185Z" fill="#FF9D00"/>
<path d="M858.887 244.047C857.975 243.397 856.85 243.573 856.197 244.471C855.546 245.383 855.717 246.516 856.621 247.161C857.533 247.811 858.657 247.635 859.316 246.729C859.961 245.825 859.784 244.7 858.887 244.047Z" fill="#FF9D00"/>
<path d="M874.615 255.06C873.703 254.41 872.572 254.595 871.93 255.512C871.279 256.424 871.472 257.56 872.376 258.205C873.288 258.855 874.416 258.657 875.061 257.753C875.709 256.827 875.526 255.711 874.615 255.06Z" fill="#FF9D00"/>
<path d="M890.342 266.073C889.425 265.431 888.305 265.635 887.663 266.553C887.02 267.47 887.227 268.604 888.142 269.232C889.06 269.875 890.18 269.67 890.828 268.745C891.456 267.83 891.26 266.715 890.342 266.073Z" fill="#FF9D00"/>
<path d="M827.495 238.51C828.407 239.161 829.529 238.97 830.18 238.059C830.831 237.147 830.646 236.016 829.742 235.371C828.83 234.721 827.694 234.914 827.049 235.818C826.413 236.727 826.6 237.871 827.495 238.51Z" fill="#FF9D00"/>
<path d="M843.239 249.535C844.151 250.185 845.274 249.995 845.924 249.083C846.575 248.171 846.39 247.041 845.486 246.396C844.574 245.745 843.438 245.938 842.793 246.842C842.157 247.751 842.344 248.896 843.239 249.535Z" fill="#FF9D00"/>
<path d="M861.28 257.455C860.379 256.788 859.236 256.939 858.572 257.817C857.905 258.718 858.056 259.861 858.934 260.525C859.829 261.2 860.978 261.041 861.634 260.157C862.321 259.246 862.166 258.124 861.28 257.455Z" fill="#FF9D00"/>
<path d="M876.966 268.438C876.049 267.796 874.921 267.995 874.284 268.904C873.642 269.821 873.84 270.949 874.744 271.594C875.661 272.237 876.784 272.046 877.426 271.128C878.074 270.203 877.884 269.08 876.966 268.438Z" fill="#FF9D00"/>
<path d="M892.718 279.468C891.807 278.818 890.67 279.011 890.026 279.914C889.375 280.826 889.568 281.962 890.472 282.607C891.383 283.258 892.512 283.059 893.156 282.155C893.813 281.235 893.63 280.119 892.718 279.468Z" fill="#FF9D00"/>
<path d="M814.12 240.876C815.031 241.527 816.159 241.328 816.804 240.425C817.455 239.513 817.27 238.382 816.361 237.746C815.449 237.095 814.313 237.288 813.668 238.192C813.029 239.087 813.216 240.231 814.12 240.876Z" fill="#FF9D00"/>
<path d="M829.814 251.866C830.709 252.541 831.858 252.382 832.514 251.498C833.186 250.589 833.038 249.46 832.159 248.796C831.259 248.129 830.116 248.28 829.452 249.159C828.777 250.053 828.936 251.202 829.814 251.866Z" fill="#FF9D00"/>
<path d="M847.855 259.785C846.943 259.135 845.804 259.314 845.159 260.218C844.509 261.129 844.688 262.268 845.591 262.913C846.503 263.564 847.634 263.379 848.279 262.475C848.943 261.561 848.766 260.436 847.855 259.785Z" fill="#FF9D00"/>
<path d="M1218.23 425.342C1176.8 429.495 1136.23 417.261 1103.99 390.906L1105.25 389.362C1170.95 443.087 1268.09 433.349 1321.82 367.653C1347.84 335.828 1359.92 295.774 1355.82 254.879C1351.72 213.984 1331.93 177.114 1300.11 151.098L1301.37 149.555C1333.61 175.92 1353.65 213.258 1357.8 254.691C1361.95 296.123 1349.72 336.696 1323.36 368.935C1297 401.155 1259.67 421.189 1218.23 425.342Z" fill="#FFB300"/>
<path d="M1217.16 414.606C1180.16 418.314 1141.77 407.942 1110.79 382.606L1112.05 381.063C1173.16 431.037 1263.53 421.977 1313.52 360.867C1363.49 299.757 1354.43 209.37 1293.32 159.396L1294.58 157.853C1356.55 208.525 1365.73 300.166 1315.06 362.139C1289.73 393.111 1254.14 410.899 1217.16 414.606Z" fill="#FFB300"/>
<path d="M1216.09 403.999C1180.36 407.581 1145.38 397.028 1117.57 374.298L1118.83 372.754C1146.22 395.154 1180.69 405.538 1215.88 402.01C1251.09 398.481 1282.81 381.452 1305.2 354.072C1327.6 326.682 1337.98 292.214 1334.45 257.02C1330.93 221.817 1313.9 190.097 1286.52 167.706L1287.78 166.163C1315.58 188.894 1332.86 221.1 1336.45 256.831C1340.03 292.562 1329.47 327.549 1306.74 355.355C1284.02 383.13 1251.83 400.417 1216.09 403.999Z" fill="#FFB300"/>
<path d="M1215.02 393.263C1183.5 396.423 1150.77 387.583 1124.37 365.989L1125.63 364.445C1177.59 406.935 1254.42 399.233 1296.91 347.276C1339.4 295.318 1331.7 218.483 1279.74 175.994L1281 174.45C1333.81 217.638 1341.64 295.737 1298.45 348.538C1276.86 374.943 1246.54 390.103 1215.02 393.263Z" fill="#FFB300"/>
<path d="M1213.95 382.596C1185.16 385.482 1155.27 377.413 1131.15 357.69L1132.41 356.147C1179.8 394.894 1249.85 387.871 1288.59 340.491C1327.34 293.11 1320.32 223.051 1272.94 184.314L1274.2 182.77C1322.42 222.207 1329.57 293.539 1290.14 341.763C1270.43 365.869 1242.73 379.71 1213.95 382.596Z" fill="#FFB300"/>
<path d="M1212.88 371.929C1186.82 374.542 1159.77 367.234 1137.95 349.391L1139.21 347.847C1182 382.844 1245.3 376.499 1280.29 333.705C1297.25 312.97 1305.12 286.875 1302.45 260.229C1299.77 233.583 1286.88 209.568 1266.15 192.612L1267.41 191.068C1288.56 208.355 1301.7 232.857 1304.43 260.03C1307.15 287.204 1299.12 313.827 1281.84 334.967C1263.99 356.786 1238.94 369.317 1212.88 371.929Z" fill="#FFB300"/>
<path d="M1211.81 361.264C1188.49 363.602 1164.27 357.064 1144.73 341.084L1146 339.54C1184.21 370.794 1240.73 365.128 1271.98 326.911C1303.24 288.693 1297.57 232.176 1259.35 200.922L1260.62 199.378C1299.69 231.331 1305.48 289.111 1273.53 328.183C1257.57 347.702 1235.13 358.926 1211.81 361.264Z" fill="#FFB300"/>
<defs>
<clipPath id="clip0">
<rect width="800" height="492.075" fill="white"/>
</clipPath>
</defs>
</svg>
