<svg width="100%" height="100%" viewBox="0 0 1374 493" fill="none" xmlns="http://www.w3.org/2000/svg">
<path d="M341.512 101.234L21.0018 370.174" stroke="#8BD2BD" stroke-width="2" stroke-miterlimit="10"/>
<path d="M403.385 93.2666L42.6408 395.967" stroke="#FFE031" stroke-width="2" stroke-miterlimit="10"/>
<path d="M465.233 85.3193L64.2819 421.757" stroke="#1D262D" stroke-width="2" stroke-miterlimit="10"/>
<path d="M527.081 77.3701L85.9225 447.546" stroke="#1D262D" stroke-width="2" stroke-miterlimit="10"/>
<g clip-path="url(#clip0)">
<path opacity="0.1" d="M491.528 403.64C479.144 429.197 453.984 446.285 427.919 457.555C407.051 466.518 384.991 472.405 362.432 475.031C358.111 475.544 353.776 475.942 349.427 476.225C338.315 476.949 327.167 476.936 316.056 476.187C309.373 475.743 302.713 475.032 296.077 474.056C273.017 470.692 250.535 464.146 229.274 454.604C223.138 451.84 217.126 448.823 211.239 445.553C201.405 440.103 191.983 433.941 183.048 427.117C181.071 425.606 179.119 424.063 177.192 422.487L176.399 421.839C174.884 420.589 173.382 419.312 171.858 418.071C169.323 415.948 166.633 414.019 163.81 412.299C163.619 412.187 163.428 412.075 163.232 411.968C162.71 411.665 162.178 411.38 161.637 411.11C160.523 410.548 159.381 410.044 158.215 409.599C152.829 407.548 147.061 406.802 141.214 406.927C140.245 406.927 139.275 406.993 138.3 407.058C136.939 407.151 135.573 407.291 134.211 407.468L133.708 407.538C129.369 408.152 125.079 409.073 120.871 410.294C114.371 412.159 107.988 414.49 101.563 416.593C98.8352 417.493 96.1028 418.351 93.3472 419.12L92.741 419.288C88.8218 420.391 84.8322 421.226 80.7998 421.788C71.6365 422.959 62.3296 422.209 53.4718 419.587L53.164 419.498L52.5952 419.33L51.8165 419.088C50.5109 418.677 49.2163 418.228 47.9325 417.74L47.1538 417.442C45.9104 416.963 44.6934 416.449 43.5029 415.899L42.7242 415.544C41.4808 414.966 40.2639 414.355 39.0733 413.712C38.6444 413.488 38.2201 413.245 37.8004 413.017C36.5322 412.308 35.2888 411.565 34.0703 410.788C32.7771 409.964 31.512 409.105 30.2748 408.21C29.7029 407.799 29.1371 407.378 28.5776 406.946C25.3522 404.479 22.3317 401.755 19.5459 398.8C19.3921 398.647 19.2475 398.488 19.103 398.334C18.3616 397.532 17.6342 396.716 16.9302 395.882C16.6691 395.574 16.4079 395.266 16.1515 394.949C15.3153 393.929 14.5087 392.887 13.7316 391.82C13.615 391.666 13.5031 391.508 13.3912 391.354C10.2053 386.948 7.56416 382.173 5.5252 377.133C5.45993 376.979 5.39931 376.82 5.34336 376.667C4.72167 375.066 4.15437 373.438 3.64147 371.785C3.43165 371.095 3.23115 370.386 3.05397 369.696C2.99336 369.491 2.9374 369.281 2.88611 369.076C0.312304 358.944 0.0185547 348.411 0.0185547 337.938C0.0185547 336.717 0.0185547 335.496 0.0185547 334.278C0.0931579 317.338 0.354268 300.11 2.85348 283.403C2.85348 283.287 2.88611 283.17 2.90477 283.058C3.74124 277.434 4.87902 271.859 6.3132 266.356C7.81421 260.583 9.73252 254.926 12.053 249.431C17.8021 235.909 26.1623 223.604 35.4458 212.199C46.6362 198.477 59.4587 185.813 73.7405 175.364C75.7921 173.862 77.8717 172.405 79.9792 170.99L80.9537 170.351C81.2941 170.123 81.6345 169.885 81.9748 169.685C82.6742 169.218 83.3737 168.78 84.0824 168.337L84.875 167.843L86.3858 166.91L86.852 166.645L87.6587 166.178L88.456 165.712C89.3885 165.162 90.332 164.624 91.2863 164.099C95.3615 161.826 99.533 159.75 103.801 157.869C105.06 157.313 106.327 156.777 107.601 156.261C113.387 153.904 119.331 151.955 125.389 150.428C127.627 149.862 129.879 149.365 132.145 148.936C134.819 148.42 137.506 147.992 140.207 147.653C144.506 147.113 148.829 146.79 153.16 146.688C183.617 145.947 214.382 155.86 238.25 174.86C247.762 182.432 256.309 191.399 266.991 197.204C276.316 202.258 287.232 204.352 297.219 200.375C305.472 197.087 310.844 195.455 320.113 195.954C339.294 197.035 358.204 200.989 376.21 207.686C376.937 207.951 377.665 208.226 378.387 208.502C425.345 226.476 465.72 262.169 486.693 308.036C487.246 309.249 487.785 310.47 488.311 311.701C500.821 340.913 505.334 375.161 491.528 403.64Z" fill="#006574"/>
<path opacity="0.1" d="M93.3333 242.339V419.13L92.7271 419.298C88.8079 420.4 84.8183 421.235 80.7859 421.797C71.6226 422.968 62.3157 422.219 53.4578 419.596L53.1501 419.508L52.5813 419.34L51.8026 419.097C50.497 418.687 49.2024 418.238 47.9186 417.75L47.1399 417.451C45.8965 416.973 44.6795 416.458 43.489 415.908L42.7103 415.554C41.4669 414.975 40.25 414.365 39.0594 413.721C38.6305 413.497 38.2061 413.255 37.7865 413.026C36.5182 412.318 35.2749 411.575 34.0563 410.798C32.7632 409.974 31.4981 409.114 30.2609 408.219C29.6889 407.809 29.1232 407.388 28.5637 406.956C25.3382 404.489 22.3178 401.764 19.532 398.81C19.3782 398.656 19.2336 398.497 19.0891 398.344C18.3477 397.542 17.6203 396.726 16.9163 395.891C16.6551 395.583 16.394 395.276 16.1376 394.958C15.3014 393.939 14.4948 392.896 13.7176 391.83C13.6011 391.676 13.4892 391.517 13.3773 391.364C10.1914 386.958 7.55024 382.183 5.51129 377.142C5.44601 376.988 5.3854 376.83 5.32944 376.676C4.70775 375.075 4.14045 373.448 3.62756 371.794C3.41774 371.104 3.21724 370.395 3.04006 369.705C2.97944 369.5 2.92349 369.29 2.8722 369.085C0.298388 358.953 0.00463867 348.42 0.00463867 337.948C0.00463867 336.726 0.00463867 335.506 0.00463867 334.287C0.0792419 317.348 0.340352 300.119 2.83956 283.413C2.83956 283.296 2.8722 283.18 2.89085 283.068C3.72732 277.443 4.8651 271.868 6.29928 266.366H53.9148V242.339H63.4081V223.04H83.84V242.339H93.3333Z" fill="#006574"/>
<path opacity="0.1" d="M491.528 403.64C479.144 429.196 453.984 446.285 427.919 457.555C407.051 466.518 384.992 472.405 362.432 475.031C358.111 475.544 353.776 475.942 349.428 476.224C338.315 476.949 327.167 476.936 316.057 476.187C309.373 475.743 302.714 475.032 296.077 474.056C273.017 470.692 250.535 464.146 229.274 454.604C223.138 451.84 217.127 448.823 211.239 445.553C201.406 440.103 191.984 433.941 183.048 427.117C181.071 425.606 179.119 424.063 177.192 422.487L176.399 421.839C174.884 420.589 173.383 419.312 171.858 418.071C169.324 415.948 166.633 414.019 163.81 412.299C163.619 412.187 163.428 412.075 163.232 411.968C162.71 411.665 162.178 411.38 161.637 411.11C160.523 410.548 159.381 410.044 158.215 409.599V337.276H244.75V353.376H282.728V235.606H327.429V282.699H349.539V254.816H367.808V225.031H376.201V207.686C376.928 207.951 377.656 208.226 378.378 208.502V225.031H386.547V254.835H404.802V282.718H431.72V388.948H474.504V311.692H488.292C500.821 340.913 505.334 375.16 491.528 403.64Z" fill="#006574"/>
<path opacity="0.1" d="M316.066 253.329H296.086V273.309H316.066V253.329Z" fill="#006574"/>
<path opacity="0.1" d="M316.066 294.742H296.086V314.722H316.066V294.742Z" fill="#006574"/>
<path opacity="0.1" d="M316.066 336.161H296.086V356.141H316.066V336.161Z" fill="#006574"/>
<path opacity="0.1" d="M316.066 377.58H296.086V397.56H316.066V377.58Z" fill="#006574"/>
<path opacity="0.1" d="M316.066 418.995H296.086V438.974H316.066V418.995Z" fill="#006574"/>
<path opacity="0.1" d="M316.066 460.404V476.182C309.383 475.738 302.723 475.028 296.086 474.052V460.404H316.066Z" fill="#006574"/>
<path opacity="0.1" d="M234.739 363.098H164.803V372.148H234.739V363.098Z" fill="#006574"/>
<path opacity="0.1" d="M234.739 390.585H164.803V399.635H234.739V390.585Z" fill="#006574"/>
<path opacity="0.1" d="M234.739 418.071V427.117H183.058C181.081 425.606 179.129 424.063 177.201 422.487L176.409 421.839C174.893 420.589 173.392 419.312 171.867 418.071H234.739Z" fill="#006574"/>
<path opacity="0.1" d="M234.739 445.553V454.604H229.284C223.147 451.84 217.136 448.823 211.248 445.553H234.739Z" fill="#006574"/>
<path opacity="0.1" d="M362.441 307.43H349.437V320.434H362.441V307.43Z" fill="#006574"/>
<path opacity="0.1" d="M80.8139 246.824H67.8096V259.828H80.8139V246.824Z" fill="#006574"/>
<path opacity="0.1" d="M80.8139 277.039H67.8096V290.043H80.8139V277.039Z" fill="#006574"/>
<path opacity="0.1" d="M80.8139 307.248H67.8096V320.252H80.8139V307.248Z" fill="#006574"/>
<path opacity="0.1" d="M80.8139 337.462H67.8096V350.466H80.8139V337.462Z" fill="#006574"/>
<path opacity="0.1" d="M80.8139 367.677H67.8096V380.681H80.8139V367.677Z" fill="#006574"/>
<path opacity="0.1" d="M80.8139 397.886H67.8096V410.89H80.8139V397.886Z" fill="#006574"/>
<path opacity="0.1" d="M412.094 307.43H399.09V320.434H412.094V307.43Z" fill="#006574"/>
<path opacity="0.1" d="M362.441 339.51H349.437V352.514H362.441V339.51Z" fill="#006574"/>
<path opacity="0.1" d="M412.094 339.51H399.09V352.514H412.094V339.51Z" fill="#006574"/>
<path opacity="0.1" d="M362.441 371.594H349.437V384.598H362.441V371.594Z" fill="#006574"/>
<path opacity="0.1" d="M412.094 371.594H399.09V384.598H412.094V371.594Z" fill="#006574"/>
<path opacity="0.1" d="M362.441 403.678H349.437V416.682H362.441V403.678Z" fill="#006574"/>
<path opacity="0.1" d="M412.094 403.678H399.09V416.682H412.094V403.678Z" fill="#006574"/>
<path opacity="0.1" d="M362.441 435.757H349.437V448.761H362.441V435.757Z" fill="#006574"/>
<path opacity="0.1" d="M412.094 435.757H399.09V448.761H412.094V435.757Z" fill="#006574"/>
<path opacity="0.1" d="M349.437 476.225V467.836H362.441V475.031L349.437 476.225Z" fill="#006574"/>
<path opacity="0.1" d="M2.84424 283.072V290.533H52.5813V283.072H2.84424ZM7.2738 290.066H3.62291V283.539H7.2738V290.066ZM11.7034 290.066H8.05247V283.539H11.7034V290.066ZM16.1329 290.066H12.482V283.539H16.1329V290.066ZM20.5625 290.066H16.9116V283.539H20.5625V290.066ZM24.9921 290.066H21.3412V283.539H24.9921V290.066ZM29.4216 290.066H25.7707V283.539H29.4216V290.066ZM33.8512 290.066H30.2003V283.539H33.8512V290.066ZM38.2808 290.066H34.6299V283.539H38.2808V290.066ZM42.7103 290.066H39.0594V283.539H42.7103V290.066ZM47.1399 290.066H43.489V283.539H47.1399V290.066ZM51.8026 290.066H47.9186V283.539H51.8026V290.066Z" fill="#006574"/>
<path opacity="0.1" d="M2.84424 304.735V312.172H52.5813V304.735H2.84424ZM7.2738 311.706H3.62291V305.202H7.2738V311.706ZM11.7034 311.706H8.05247V305.202H11.7034V311.706ZM16.1329 311.706H12.482V305.202H16.1329V311.706ZM20.5625 311.706H16.9116V305.202H20.5625V311.706ZM24.9921 311.706H21.3412V305.202H24.9921V311.706ZM29.4216 311.706H25.7707V305.202H29.4216V311.706ZM33.8512 311.706H30.2003V305.202H33.8512V311.706ZM38.2808 311.706H34.6299V305.202H38.2808V311.706ZM42.7103 311.706H39.0594V305.202H42.7103V311.706ZM47.1399 311.706H43.489V305.202H47.1399V311.706ZM51.8026 311.706H47.9186V305.202H51.8026V311.706Z" fill="#006574"/>
<path opacity="0.1" d="M2.84424 326.394V333.831H52.5813V326.394H2.84424ZM7.2738 333.364H3.62291V326.86H7.2738V333.364ZM11.7034 333.364H8.05247V326.86H11.7034V333.364ZM16.1329 333.364H12.482V326.86H16.1329V333.364ZM20.5625 333.364H16.9116V326.86H20.5625V333.364ZM24.9921 333.364H21.3412V326.86H24.9921V333.364ZM29.4216 333.364H25.7707V326.86H29.4216V333.364ZM33.8512 333.364H30.2003V326.86H33.8512V333.364ZM38.2808 333.364H34.6299V326.86H38.2808V333.364ZM42.7103 333.364H39.0594V326.86H42.7103V333.364ZM47.1399 333.364H43.489V326.86H47.1399V333.364ZM51.8026 333.364H47.9186V326.86H51.8026V333.364Z" fill="#006574"/>
<path opacity="0.1" d="M2.84424 348.032V355.493H52.5813V348.032H2.84424ZM7.2738 355.026H3.62291V348.498H7.2738V355.026ZM11.7034 355.026H8.05247V348.498H11.7034V355.026ZM16.1329 355.026H12.482V348.498H16.1329V355.026ZM20.5625 355.026H16.9116V348.498H20.5625V355.026ZM24.9921 355.026H21.3412V348.498H24.9921V355.026ZM29.4216 355.026H25.7707V348.498H29.4216V355.026ZM33.8512 355.026H30.2003V348.498H33.8512V355.026ZM38.2808 355.026H34.6299V348.498H38.2808V355.026ZM42.7103 355.026H39.0594V348.498H42.7103V355.026ZM47.1399 355.026H43.489V348.498H47.1399V355.026ZM51.8026 355.026H47.9186V348.498H51.8026V355.026Z" fill="#006574"/>
<path opacity="0.1" d="M3.0354 369.71C3.21258 370.409 3.41308 371.109 3.6229 371.799V370.176H7.2738V376.704H5.32479C5.38074 376.858 5.44136 377.016 5.50663 377.17H52.5999V369.71H3.0354ZM11.7034 376.704H8.05247V370.176H11.7034V376.704ZM16.1329 376.704H12.482V370.176H16.1329V376.704ZM20.5625 376.704H16.9116V370.176H20.5625V376.704ZM24.9921 376.704H21.3412V370.176H24.9921V376.704ZM29.4216 376.704H25.7707V370.176H29.4216V376.704ZM33.8512 376.704H30.2003V370.176H33.8512V376.704ZM38.2808 376.704H34.6299V370.176H38.2808V376.704ZM42.7103 376.704H39.0594V370.176H42.7103V376.704ZM47.1399 376.704H43.489V370.176H47.1399V376.704ZM51.8026 376.704H47.9186V370.176H51.8026V376.704Z" fill="#006574"/>
<path opacity="0.1" d="M13.3726 391.368C13.4845 391.522 13.5964 391.681 13.7129 391.834H16.1329V394.963C16.3893 395.276 16.6504 395.583 16.9115 395.896V391.839H20.5624V398.367H19.0844C19.2289 398.521 19.3735 398.679 19.5273 398.833H52.5812V391.373L13.3726 391.368ZM24.992 398.362H21.3411V391.834H24.992V398.362ZM29.4216 398.362H25.7707V391.834H29.4216V398.362ZM33.8511 398.362H30.2002V391.834H33.8511V398.362ZM38.2807 398.362H34.6298V391.834H38.2807V398.362ZM42.7103 398.362H39.0594V391.834H42.7103V398.362ZM47.1398 398.362H43.4889V391.834H47.1398V398.362ZM51.8025 398.362H47.9185V391.834H51.8025V398.362Z" fill="#006574"/>
<path opacity="0.1" d="M37.7866 413.026C38.2063 413.264 38.6306 413.493 39.0595 413.721V413.493H42.7104V415.554L43.4891 415.908V413.493H47.14V417.451L47.9187 417.75V413.493H51.8027V419.088L52.5814 419.33V413.026H37.7866Z" fill="#006574"/>
<path opacity="0.1" d="M191.152 218.489C191.152 218.489 180.036 217.818 181.36 225.604C181.292 226 181.351 226.407 181.529 226.767C181.707 227.128 181.994 227.422 182.349 227.609C182.349 227.609 182.349 227.031 183.486 227.227C183.885 227.293 184.291 227.311 184.694 227.283C185.24 227.247 185.759 227.034 186.172 226.677C186.172 226.677 189.296 225.385 190.513 220.28C190.513 220.28 191.408 219.165 191.376 218.881L189.511 219.683C189.511 219.683 190.154 221.035 189.651 222.159C189.651 222.159 189.59 219.734 189.226 219.79C189.156 219.79 188.252 220.256 188.252 220.256C188.252 220.256 189.357 222.616 188.522 224.327C188.522 224.327 188.839 221.427 187.911 220.429L186.559 221.207C186.559 221.207 187.851 223.641 186.974 225.628C186.974 225.628 187.203 222.583 186.284 221.399L185.086 222.331C185.086 222.331 186.298 224.728 185.552 226.378C185.552 226.378 185.454 222.83 184.82 222.56C184.365 222.943 183.959 223.382 183.612 223.865C183.612 223.865 184.442 225.604 183.929 226.523C183.929 226.523 183.612 224.164 183.351 224.15C183.351 224.15 182.311 225.716 182.204 226.789C182.252 225.794 182.561 224.829 183.099 223.991C182.499 224.105 181.944 224.392 181.505 224.816C181.505 224.816 181.668 223.711 183.37 223.613C183.37 223.613 184.233 222.429 184.466 222.355C184.466 222.355 182.782 222.215 181.761 222.667C181.761 222.667 182.661 221.622 184.773 222.098L185.953 221.133C185.953 221.133 183.738 220.83 182.801 221.166C182.801 221.166 183.878 220.233 186.27 220.914L187.557 220.144C186.568 219.928 185.556 219.84 184.545 219.883C184.545 219.883 185.729 219.244 187.935 219.939L188.867 219.524C188.867 219.524 187.468 219.254 187.081 219.212C186.694 219.17 186.652 219.058 186.652 219.058C187.528 218.912 188.427 219.012 189.25 219.347C189.25 219.347 191.185 218.61 191.152 218.489Z" fill="#006574"/>
<path opacity="0.1" d="M161.973 256.383C161.973 256.383 158.173 266.846 166.015 267.802C166.375 267.979 166.78 268.038 167.175 267.97C167.569 267.902 167.932 267.711 168.212 267.425C168.212 267.425 167.666 267.243 168.17 266.222C168.346 265.859 168.481 265.477 168.571 265.084C168.689 264.55 168.63 263.992 168.403 263.494C168.403 263.494 168.053 260.132 163.502 257.516C163.502 257.516 162.691 256.337 162.407 256.29L162.64 258.318C162.64 258.318 164.118 258.085 165.055 258.887C165.055 258.887 162.724 258.258 162.663 258.621C162.663 258.691 162.836 259.689 162.836 259.689C162.836 259.689 165.409 259.297 166.813 260.584C166.813 260.584 164.118 259.456 162.901 260.067L163.264 261.55C163.264 261.55 165.964 261.009 167.619 262.408C167.619 262.408 164.766 261.33 163.367 261.871L163.922 263.27C163.922 263.27 166.566 262.804 167.937 263.965C167.937 263.965 164.505 263.032 164.071 263.583C164.31 264.125 164.614 264.637 164.976 265.107C164.976 265.107 166.883 264.809 167.615 265.573C167.615 265.573 165.26 265.205 165.176 265.448C165.176 265.448 166.384 266.893 167.382 267.313C166.445 266.981 165.61 266.41 164.962 265.657C164.9 266.267 165.018 266.881 165.302 267.425C165.302 267.425 164.286 266.958 164.673 265.303C164.673 265.303 163.777 264.142 163.777 263.904C163.777 263.904 163.162 265.476 163.311 266.585C163.311 266.585 162.565 265.424 163.619 263.536L163.031 262.137C163.031 262.137 162.099 264.175 162.164 265.172C162.164 265.172 161.586 263.872 162.91 261.769L162.542 260.319C162.054 261.199 161.682 262.14 161.437 263.116C161.437 263.116 161.157 261.797 162.449 259.88L162.313 258.883C162.313 258.883 161.661 260.132 161.507 260.51C161.353 260.887 161.236 260.873 161.236 260.873C161.344 259.992 161.694 259.157 162.248 258.463C162.248 258.463 162.099 256.383 161.973 256.383Z" fill="#006574"/>
<path opacity="0.1" d="M235.657 247.561C235.657 247.561 231.862 258.043 239.7 258.975C240.06 259.152 240.467 259.21 240.862 259.141C241.258 259.072 241.621 258.88 241.901 258.593C241.901 258.593 241.351 258.411 241.859 257.394C242.037 257.031 242.17 256.648 242.255 256.252C242.375 255.718 242.317 255.16 242.092 254.662C242.092 254.662 241.742 251.3 237.192 248.685C237.192 248.685 236.376 247.51 236.091 247.463L236.329 249.487C236.329 249.487 237.807 249.258 238.744 250.06C238.744 250.06 236.413 249.431 236.348 249.79C236.348 249.864 236.52 250.857 236.52 250.857C236.52 250.857 239.094 250.47 240.502 251.753C240.502 251.753 237.807 250.629 236.585 251.235L236.954 252.722C236.954 252.722 239.653 252.177 241.309 253.58C241.309 253.58 238.45 252.499 237.052 253.039L237.606 254.438C237.606 254.438 240.25 253.972 241.621 255.133C241.621 255.133 238.194 254.201 237.756 254.755C238.002 255.3 238.315 255.813 238.688 256.28C238.688 256.28 240.591 255.977 241.327 256.746C241.327 256.746 238.973 256.378 238.889 256.625C238.889 256.625 240.092 258.066 241.09 258.49C240.153 258.16 239.32 257.589 238.674 256.835C238.612 257.444 238.729 258.058 239.01 258.602C239.01 258.602 237.998 258.136 238.385 256.485C238.385 256.485 237.49 255.32 237.485 255.086C237.485 255.086 236.874 256.662 237.019 257.767C237.019 257.767 236.273 256.611 237.327 254.718L236.739 253.319C236.739 253.319 235.807 255.357 235.872 256.35C235.872 256.35 235.294 255.054 236.618 252.951L236.245 251.496C235.757 252.377 235.386 253.317 235.14 254.294C235.14 254.294 234.865 252.974 236.156 251.058L236.021 250.06C236.021 250.06 235.368 251.31 235.21 251.687C235.051 252.065 234.939 252.051 234.939 252.051C235.05 251.169 235.402 250.335 235.956 249.64C235.956 249.64 235.788 247.565 235.657 247.561Z" fill="#006574"/>
<path opacity="0.1" d="M130.327 333.112C130.327 333.112 126.527 343.58 134.37 344.536C134.729 344.712 135.135 344.771 135.53 344.702C135.925 344.633 136.287 344.441 136.566 344.153C136.566 344.153 136.02 343.971 136.524 342.955C136.703 342.592 136.838 342.208 136.925 341.813C137.045 341.279 136.986 340.72 136.757 340.223C136.757 340.223 136.407 336.861 131.857 334.25C131.857 334.25 131.045 333.07 130.761 333.023L130.994 335.047C130.994 335.047 132.477 334.819 133.409 335.621C133.409 335.621 131.078 334.991 131.017 335.35C131.017 335.425 131.19 336.418 131.19 336.418C131.19 336.418 133.764 336.031 135.167 337.313C135.167 337.313 132.472 336.189 131.255 336.796L131.619 338.283C131.619 338.283 134.318 337.737 135.974 339.141C135.974 339.141 133.12 338.059 131.721 338.6L132.276 339.999C132.276 339.999 134.92 339.533 136.291 340.694C136.291 340.694 132.864 339.761 132.425 340.316C132.664 340.859 132.968 341.371 133.33 341.841C133.33 341.841 135.237 341.538 135.974 342.307C135.974 342.307 133.614 341.939 133.53 342.186C133.53 342.186 134.738 343.626 135.736 344.051C134.799 343.722 133.964 343.153 133.316 342.4C133.254 343.008 133.373 343.621 133.656 344.163C133.656 344.163 132.64 343.696 133.027 342.046C133.027 342.046 132.136 340.88 132.132 340.647C132.132 340.647 131.516 342.223 131.665 343.328C131.665 343.328 130.919 342.172 131.973 340.279L131.386 338.88C131.386 338.88 130.453 340.917 130.523 341.911C130.523 341.911 129.945 340.614 131.269 338.511L130.896 337.061C130.407 337.942 130.036 338.882 129.791 339.859C129.791 339.859 129.511 338.535 130.803 336.623L130.668 335.621C130.668 335.621 130.015 336.87 129.861 337.248C129.707 337.626 129.59 337.612 129.59 337.612C129.698 336.729 130.05 335.894 130.607 335.201C130.607 335.201 130.453 333.112 130.327 333.112Z" fill="#006574"/>
<path opacity="0.1" d="M115.248 234.454C115.248 234.454 111.453 244.917 119.291 245.873C119.651 246.049 120.057 246.107 120.452 246.04C120.847 245.972 121.211 245.781 121.491 245.495C121.491 245.495 120.941 245.313 121.449 244.292C121.625 243.928 121.758 243.544 121.846 243.15C121.965 242.617 121.908 242.061 121.683 241.564C121.683 241.564 121.333 238.202 116.777 235.587C116.777 235.587 115.966 234.407 115.682 234.36L115.919 236.389C115.919 236.389 117.398 236.155 118.33 236.957C118.33 236.957 115.999 236.328 115.938 236.692C115.938 236.762 116.111 237.759 116.111 237.759C116.111 237.759 118.684 237.368 120.093 238.655C120.093 238.655 117.398 237.526 116.176 238.137L116.54 239.62C116.54 239.62 119.239 239.074 120.899 240.478C120.899 240.478 118.041 239.396 116.642 239.942L117.197 241.34C117.197 241.34 119.841 240.874 121.212 242.04C121.212 242.04 117.785 241.107 117.346 241.657C117.585 242.2 117.889 242.712 118.251 243.182C118.251 243.182 120.158 242.884 120.895 243.648C120.895 243.648 118.54 243.28 118.456 243.523C118.456 243.523 119.659 244.968 120.657 245.388C119.72 245.055 118.886 244.484 118.237 243.732C118.175 244.342 118.293 244.956 118.577 245.5C118.577 245.5 117.561 245.033 117.952 243.378C117.952 243.378 117.057 242.217 117.053 241.979C117.053 241.979 116.442 243.551 116.586 244.66C116.586 244.66 115.836 243.499 116.894 241.611L116.302 240.212C116.302 240.212 115.369 242.25 115.439 243.247C115.439 243.247 114.861 241.947 116.185 239.844L115.812 238.394C115.324 239.274 114.953 240.215 114.707 241.191C114.707 241.191 114.432 239.872 115.719 237.955L115.588 236.957C115.588 236.957 114.931 238.207 114.777 238.58C114.623 238.953 114.507 238.948 114.507 238.948C114.614 238.066 114.966 237.231 115.523 236.538C115.523 236.538 115.379 234.454 115.248 234.454Z" fill="#006574"/>
<path opacity="0.1" d="M143.429 291.432C143.429 291.432 146.362 302.156 153.319 298.426C153.714 298.363 154.079 298.177 154.363 297.894C154.646 297.611 154.832 297.245 154.895 296.85C154.895 296.85 154.345 297.018 154.172 295.894C154.106 295.495 153.994 295.106 153.836 294.733C153.63 294.227 153.261 293.804 152.787 293.53C152.787 293.53 150.563 290.984 145.327 291.469C145.327 291.469 143.984 290.98 143.723 291.106L145.084 292.621C145.084 292.621 146.162 291.581 147.388 291.688C147.388 291.688 145.108 292.528 145.276 292.85C145.313 292.915 146.031 293.624 146.031 293.624C146.031 293.624 147.896 291.819 149.798 292.057C149.798 292.057 146.95 292.691 146.306 293.894L147.458 294.896C147.458 294.896 149.351 292.896 151.514 293.083C151.514 293.083 148.554 293.847 147.724 295.097L148.992 295.932C148.992 295.932 150.857 294.015 152.675 294.188C152.675 294.188 149.346 295.414 149.295 296.104C149.804 296.41 150.349 296.653 150.917 296.827C150.917 296.827 152.316 295.484 153.337 295.675C153.337 295.675 151.197 296.734 151.272 296.981C151.272 296.981 153.09 297.447 154.139 297.223C153.184 297.494 152.175 297.51 151.211 297.27C151.511 297.803 151.962 298.237 152.507 298.515C152.507 298.515 151.407 298.715 150.773 297.144C150.773 297.144 149.374 296.71 149.225 296.514C149.225 296.514 149.635 298.156 150.391 298.976C150.391 298.976 149.113 298.459 148.885 296.305L147.593 295.498C147.593 295.498 148.017 297.694 148.633 298.473C148.633 298.473 147.411 297.745 147.281 295.265L146.143 294.295C146.254 295.301 146.495 296.289 146.861 297.232C146.861 297.232 145.877 296.3 145.826 294.006L145.14 293.264C145.14 293.264 145.327 294.663 145.416 295.06C145.504 295.456 145.416 295.526 145.416 295.526C144.995 294.743 144.802 293.858 144.856 292.971C144.856 292.971 143.536 291.362 143.429 291.432Z" fill="#006574"/>
<path opacity="0.1" d="M222.994 301.009C222.994 301.009 225.926 311.733 232.879 308.003C233.275 307.942 233.642 307.756 233.926 307.473C234.21 307.19 234.397 306.823 234.459 306.427C234.459 306.427 233.904 306.595 233.732 305.495C233.67 305.095 233.559 304.706 233.401 304.334C233.191 303.828 232.821 303.405 232.347 303.131C232.347 303.131 230.123 300.585 224.887 301.074C224.887 301.074 223.544 300.58 223.287 300.706L224.644 302.221C224.644 302.221 225.721 301.182 226.948 301.289C226.948 301.289 224.668 302.128 224.84 302.45C224.873 302.515 225.595 303.224 225.595 303.224C225.595 303.224 227.461 301.419 229.363 301.657C229.363 301.657 226.509 302.291 225.866 303.494L227.022 304.497C227.022 304.497 228.887 302.497 231.074 302.683C231.074 302.683 228.118 303.448 227.288 304.697L228.556 305.532C228.556 305.532 230.421 303.616 232.235 303.788C232.235 303.788 228.906 305.014 228.859 305.704C229.367 306.011 229.91 306.254 230.477 306.427C230.477 306.427 231.876 305.084 232.897 305.276C232.897 305.276 230.762 306.334 230.832 306.581C230.832 306.581 232.65 307.047 233.704 306.824C232.747 307.094 231.736 307.11 230.771 306.87C231.072 307.403 231.523 307.835 232.067 308.115C232.067 308.115 230.967 308.316 230.333 306.744C230.333 306.744 228.934 306.311 228.789 306.115C228.789 306.115 229.195 307.756 229.95 308.577C229.95 308.577 228.673 308.059 228.444 305.905L227.153 305.089C227.153 305.089 227.577 307.285 228.197 308.064C228.197 308.064 226.976 307.336 226.845 304.856L225.703 303.886C225.813 304.893 226.056 305.88 226.425 306.824C226.425 306.824 225.437 305.891 225.386 303.597L224.7 302.856C224.7 302.856 224.887 304.254 224.975 304.651C225.064 305.047 224.975 305.117 224.975 305.117C224.555 304.334 224.362 303.449 224.416 302.562C224.416 302.562 223.101 300.939 222.994 301.009Z" fill="#006574"/>
<path d="M193.143 408.708C193.143 408.708 217.333 400.563 212.325 371.701L181.598 363.723L174.464 387.405L193.143 408.708Z" fill="#FFC263"/>
<path opacity="0.1" d="M174.464 387.404L193.138 408.708C193.138 408.708 217.329 400.562 212.321 371.7L174.464 387.404Z" fill="#070707"/>
<path d="M72.8173 174.18C72.8173 174.18 76.0812 179.49 80.5434 176.837C85.0056 174.184 80.7253 166.854 80.7253 166.854C80.7253 166.854 72.1785 165.684 72.8173 174.18Z" fill="#FED253"/>
<path opacity="0.1" d="M80.5435 176.837C80.0172 177.178 79.4268 177.407 78.8087 177.512C78.1905 177.616 77.5575 177.593 76.9486 177.444C75.312 177.029 74.0531 175.77 73.377 174.944C73.1753 174.703 72.9884 174.449 72.8174 174.184C72.589 171.154 73.5308 169.349 74.8364 168.286C76.6315 166.827 79.1168 166.766 80.1892 166.813C80.5202 166.813 80.7114 166.859 80.7114 166.859L80.8 167.009C80.9259 167.246 81.201 167.773 81.4947 168.477C82.4926 170.785 83.6815 174.968 80.5435 176.837Z" fill="#070707"/>
<path d="M195.521 370.344L212.307 371.701L243.547 371.957L218.932 402.265C218.932 402.265 211.122 402.689 209.514 403.789C207.905 404.89 185.319 404.302 185.319 404.302L181.673 388.766L195.521 370.344Z" fill="#FFA2A2"/>
<path opacity="0.05" d="M195.521 370.344L212.307 371.701L243.547 371.957L218.932 402.265C218.932 402.265 211.122 402.689 209.514 403.789C207.905 404.89 185.319 404.302 185.319 404.302L181.673 388.766L195.521 370.344Z" fill="#070707"/>
<path d="M178.544 288.859L182.447 295.48L183.295 307.024C183.295 307.024 186.014 316.867 188.051 319.754C190.089 322.64 190.937 330.282 190.937 330.282C190.937 330.282 191.786 337.411 192.803 338.936C193.819 340.461 195.181 351.525 195.181 351.525C195.181 351.525 204.18 369.519 212.325 371.724C212.325 371.724 171.923 384.966 193.143 408.732C193.143 408.732 178.036 412.462 174.469 408.224C170.902 403.985 161.567 341.169 161.567 341.169L164.453 288.201L178.544 288.859Z" fill="#FFC263"/>
<path opacity="0.05" d="M178.544 288.859L182.447 295.48L183.295 307.024C183.295 307.024 186.014 316.867 188.051 319.754C190.089 322.64 190.937 330.282 190.937 330.282C190.937 330.282 191.786 337.411 192.803 338.936C193.819 340.461 195.181 351.525 195.181 351.525C195.181 351.525 204.18 369.519 212.325 371.724C212.325 371.724 171.923 384.966 193.143 408.732C193.143 408.732 178.036 412.462 174.469 408.224C170.902 403.985 161.567 341.169 161.567 341.169L164.453 288.201L178.544 288.859Z" fill="#070707"/>
<path d="M129.525 224.331C128.391 230.213 128.728 236.283 130.504 242.003L124.219 259.996C124.219 259.996 76.347 233.344 80.4222 226.891C82.7302 223.231 83.024 213.547 82.8375 205.853C82.7023 200.006 82.2873 195.315 82.2873 195.315C82.2873 195.315 141.037 201.093 133.218 214.502C131.448 217.55 130.2 220.872 129.525 224.331Z" fill="#FFA2A2"/>
<path opacity="0.1" d="M133.218 214.502C131.449 217.55 130.2 220.872 129.525 224.331C120.807 227.121 111.391 226.804 102.879 223.435C94.3678 220.066 87.2858 213.854 82.8376 205.853C82.7023 200.006 82.2874 195.315 82.2874 195.315C82.2874 195.315 141.023 201.093 133.218 214.502Z" fill="#070707"/>
<path d="M156.984 185.641C156.988 191.865 155.523 198.002 152.709 203.554C149.895 209.105 145.81 213.914 140.787 217.59C135.764 221.266 129.945 223.704 123.802 224.707C117.66 225.711 111.367 225.25 105.436 223.364C99.5042 221.477 94.1018 218.218 89.6673 213.851C85.2328 209.483 81.8915 204.131 79.9149 198.229C77.9383 192.327 77.3823 186.042 78.292 179.885C79.2017 173.727 81.5515 167.872 85.1503 162.794C85.7098 162.007 86.2989 161.239 86.9175 160.49C90.4422 156.206 94.8283 152.711 99.7912 150.232C102.484 148.885 105.324 147.856 108.254 147.164C113.545 145.911 119.037 145.759 124.389 146.72C129.741 147.68 134.838 149.731 139.364 152.746C143.889 155.76 147.745 159.674 150.693 164.243C153.641 168.812 155.617 173.939 156.499 179.304C156.828 181.4 156.99 183.519 156.984 185.641Z" fill="#FFA2A2"/>
<path d="M172.599 348.28C172.007 351.442 172.748 357.219 173.872 363.098C173.919 363.355 173.97 363.611 174.021 363.868C174.073 364.124 174.147 364.52 174.212 364.842C174.73 367.369 175.294 369.873 175.844 372.149C176.395 374.424 176.889 376.373 177.309 377.977C177.943 380.378 178.376 381.889 178.376 381.889C178.376 381.889 178.432 383.372 178.507 385.731C178.549 387.093 178.595 388.753 178.642 390.585C178.642 391.117 178.675 391.657 178.689 392.217C178.712 393.191 178.735 394.203 178.759 395.238C178.759 395.574 178.759 395.91 178.782 396.25C178.782 397.365 178.824 398.502 178.843 399.635C178.866 401.193 178.885 402.75 178.894 404.261C178.894 404.839 178.894 405.408 178.894 405.967C178.894 407.413 178.894 408.797 178.894 410.07C178.843 413.684 178.698 416.412 178.39 417.2C178.283 417.47 178.185 417.764 178.092 418.072C177.688 419.519 177.395 420.995 177.215 422.487L176.423 421.839C174.907 420.589 173.406 419.312 171.881 418.072C169.347 415.949 166.657 414.019 163.833 412.299C163.642 412.187 163.451 412.075 163.255 411.968C162.733 411.665 162.201 411.381 161.661 411.11C160.546 410.548 159.404 410.044 158.238 409.599C152.853 407.548 147.085 406.802 141.238 406.928C138.907 407.818 137.391 408.457 137.391 408.457L134.426 409.352L133.931 409.502C130.719 410.481 126.201 411.87 124.573 412.448C121.944 413.381 99.1104 418.132 99.1104 418.132C97.0244 418.702 94.8936 419.092 92.7411 419.298C88.8219 420.4 84.8323 421.235 80.7999 421.797C71.6366 422.969 62.3297 422.219 53.4719 419.596C53.2075 419.612 52.9422 419.604 52.6792 419.573C52.8424 419.573 53.0009 419.536 53.1455 419.508L52.5766 419.34L51.7979 419.097C50.4924 418.687 49.1977 418.238 47.9139 417.75L47.1352 417.451C45.8919 416.973 44.6749 416.458 43.4844 415.908L42.7057 415.554C41.4623 414.976 40.2453 414.365 39.0548 413.721C38.6258 413.497 38.2015 413.255 37.7819 413.027C36.5136 412.318 35.2702 411.575 34.0517 410.798C33.8466 409.04 33.7393 407.865 33.7393 407.865L31.9209 398.81L31.8276 398.344L30.522 391.816L30.4288 391.35L27.5892 377.147L27.496 376.681L26.1904 370.153L26.0971 369.687L23.2203 355.493L23.127 355.027L21.8214 348.499L21.7282 348.033L18.8746 333.812L18.7814 333.346L17.4758 326.841L17.3826 326.375L16.865 323.81L16.0863 319.926C16.0863 319.926 13.6011 316.373 10.8035 312.172L10.4911 311.706C9.69376 310.526 8.87313 309.3 8.07581 308.097C7.81003 307.701 7.55359 307.309 7.29714 306.922C6.90858 306.335 6.53245 305.761 6.16876 305.202L5.91697 304.815L5.86569 304.735C1.84644 298.515 4.53682 295.811 4.53682 295.811C4.53682 295.811 6.22471 293.526 8.40219 290.505C8.50944 290.351 8.62134 290.197 8.73791 290.039C9.67045 288.733 10.6962 287.306 11.7034 285.879L12.4821 284.77C12.7758 284.355 13.0649 283.94 13.3447 283.529C13.4566 283.376 13.5638 283.217 13.6664 283.063C15.8159 279.958 17.5877 277.249 17.9514 276.288C18.5203 274.773 22.1478 270.292 25.7614 266.361C28.6103 263.256 31.4453 260.496 32.7182 259.834C35.6044 258.309 36.7934 253.38 36.7934 253.38C36.7934 253.38 43.074 251.18 43.9226 249.482C44.7713 247.785 56.6565 240.157 56.6565 240.157C56.6565 240.157 61.4637 237.061 63.4081 235.196C63.6833 234.952 63.9234 234.671 64.1215 234.361C64.7976 233.149 69.2131 232.151 71.0083 231.792C71.4745 231.699 71.7636 231.648 71.7636 231.648C72.4883 230.331 73.4044 229.129 74.482 228.081C75.214 227.432 76.1279 225.199 76.8973 223.036C77.7319 220.676 78.38 218.405 78.38 218.405C79.7415 213.822 82.4552 215.179 82.4552 215.179C82.4515 215.805 82.5109 216.43 82.6324 217.044C83.7654 222.639 89.9202 224.971 93.1514 227.586C96.7184 230.468 102.318 237.942 106.734 239.467C110.389 240.73 114.628 245.496 115.971 247.086L116.073 247.207C116.297 247.468 116.409 247.617 116.409 247.617C116.409 247.617 118.913 247.487 120.438 247.459H120.992C121.303 247.428 121.597 247.308 121.841 247.114C123.356 246.083 125.613 243.062 126.597 242.367C127.781 241.514 128.975 227.763 128.975 227.763L129.036 227.736C133.265 225.754 137.801 245.589 137.801 245.589C137.801 245.589 145.779 247.967 146.46 249.664C146.591 250 147.192 250.597 148.097 251.319C152.215 254.467 156.599 257.252 161.199 259.642C161.301 259.694 161.399 259.745 161.502 259.787C161.594 259.837 161.689 259.882 161.786 259.922C161.959 260.006 162.127 260.081 162.285 260.151C162.537 260.263 162.77 260.356 162.985 260.43L163.264 260.528C163.933 260.751 164.562 261.076 165.13 261.493C165.297 261.615 165.465 261.741 165.628 261.876C166.263 262.404 166.847 262.991 167.372 263.629C167.452 263.722 167.526 263.82 167.601 263.913C167.955 264.356 168.272 264.795 168.533 265.2C168.962 265.826 169.353 266.477 169.704 267.149C169.704 267.149 176.66 279.035 178.871 280.387C181.081 281.739 182.438 295.499 182.438 295.499L174.977 323.153C174.977 323.153 174.627 330.147 173.975 337.281C173.611 341.282 173.149 345.352 172.599 348.28Z" fill="#FFC263"/>
<path d="M116.409 248.456C116.409 248.456 111.406 251.17 107.498 251.426C106.987 251.45 106.474 251.42 105.969 251.338C101.875 250.718 95.8696 247.351 95.8696 247.351L102.915 239.625L111.485 243.873L114.637 246.806L116.409 248.456Z" fill="#63667E"/>
<path opacity="0.1" d="M156.48 179.304C156.303 179.554 156.101 179.787 155.879 179.998C153.426 182.33 149.071 181.364 145.728 180.824C142.823 180.349 139.985 179.528 137.274 178.38C134.915 177.373 132.085 176.142 129.963 177.588C129.147 178.138 128.588 179.019 127.739 179.504C126.891 179.989 125.809 180.022 124.806 180.036C121.542 180.036 118.279 180.073 115.094 179.336C110.343 178.227 105.428 175.434 100.91 177.275C97.3757 178.711 95.4593 182.558 94.5035 186.256C94.0372 188.069 93.6922 189.986 92.6384 191.525C91.5846 193.063 89.547 194.154 87.8125 193.432C85.2527 192.364 84.875 188.018 81.7883 187.799C78.3985 187.561 78.4405 191.063 79.429 193.595C80.893 197.325 82.8094 201.055 82.8933 204.944C79.2502 198.419 77.5288 190.996 77.9282 183.533C78.3275 176.07 80.8314 168.873 85.1501 162.774C85.9017 162.309 86.4899 161.621 86.8333 160.807C86.8679 160.696 86.8959 160.584 86.9173 160.471C87.1737 159.17 86.451 157.804 86.409 156.442C86.2458 153.118 89.8454 150.801 93.1466 150.381C95.3428 150.101 97.5902 150.316 99.791 150.246C100.9 150.221 102.002 150.074 103.078 149.807C104.935 149.251 106.673 148.358 108.207 147.173C113.498 145.919 118.99 145.768 124.342 146.728C129.694 147.689 134.792 149.74 139.317 152.754C143.842 155.769 147.699 159.683 150.646 164.252C153.594 168.821 155.571 173.947 156.452 179.313L156.48 179.304Z" fill="#070707"/>
<path d="M157.278 176.557C157.045 177.479 156.561 178.319 155.879 178.982C153.426 181.313 149.071 180.343 145.728 179.802C142.823 179.338 139.984 178.524 137.275 177.378C134.915 176.375 132.085 175.144 129.963 176.59C129.147 177.14 128.588 178.021 127.739 178.506C126.891 178.991 125.809 179.024 124.806 179.033C121.543 179.056 118.279 179.075 115.094 178.338C110.343 177.224 105.428 174.436 100.91 176.273C97.3758 177.709 95.4594 181.56 94.5036 185.258C94.0373 187.072 93.6923 188.988 92.6385 190.522C91.5847 192.056 89.5471 193.156 87.8126 192.434C85.2528 191.366 84.8751 187.02 81.7884 186.801C78.3986 186.563 78.4406 190.065 79.4291 192.597C81.1636 197.012 83.5229 201.405 82.7489 206.086C81.9796 206.086 80.7067 206.058 79.9513 206.039C80.5388 205.037 79.4198 203.843 78.3054 203.503C77.191 203.163 75.8901 203.167 75.0415 202.356C74.1929 201.545 74.1882 200.29 74.2768 199.167C74.4702 196.765 75.0578 194.411 76.016 192.201C76.6268 190.802 77.4148 189.286 76.9485 187.822C76.6686 187.159 76.3317 186.521 75.9414 185.915C74.9715 184.05 75.2 181.719 76.03 179.793C76.3843 178.972 76.6408 178.198 76.9345 177.462C77.3055 176.415 77.8423 175.434 78.5245 174.557C79.5923 173.228 80.6367 171.228 79.4571 169.992C79.1586 169.68 79.7555 169.465 79.5643 169.06C79.5305 168.99 79.507 168.916 79.4944 168.84C79.4395 168.349 79.5583 167.854 79.8301 167.442C79.8851 167.334 79.9458 167.23 80.0119 167.129C80.0655 167.023 80.1263 166.92 80.1938 166.821C81.2262 165.098 82.5985 163.602 84.227 162.425C85.2388 161.692 86.4231 160.988 86.8241 159.804C87.2904 158.405 86.4698 156.918 86.3998 155.44C86.2366 152.115 89.8362 149.798 93.1374 149.378C96.4386 148.959 99.861 149.653 103.078 148.8C107.643 147.597 110.851 143.569 114.996 141.307C117.264 140.095 119.779 139.416 122.348 139.324C124.918 139.232 127.475 139.729 129.824 140.776C134.663 142.986 138.314 147.453 143.369 149.131C145.159 149.728 147.099 149.966 148.712 150.954C150.577 152.101 151.71 154.106 152.68 156.083C154.158 159.081 154.457 162.093 155.478 165.269C156.289 167.787 157.413 171.078 157.506 173.979C157.558 174.845 157.481 175.714 157.278 176.557Z" fill="#896363"/>
<g opacity="0.1">
<path opacity="0.1" d="M80.0632 170.715C80.1378 170.416 80.1452 170.105 80.0847 169.803C80.0242 169.502 79.8974 169.217 79.7135 168.971C79.8347 169.334 79.3079 169.544 79.5969 169.847C79.8272 170.089 79.9883 170.389 80.0632 170.715Z" fill="#070707"/>
<path opacity="0.1" d="M79.6995 167.903C79.6445 168.066 79.6116 168.235 79.6016 168.407C79.6901 168.258 79.8114 168.104 79.6995 167.903Z" fill="#070707"/>
<path opacity="0.1" d="M156.009 177.844C153.552 180.175 149.202 179.21 145.849 178.665C142.946 178.197 140.111 177.378 137.405 176.226C135.041 175.219 132.216 173.988 130.089 175.433C129.278 175.984 128.719 176.865 127.865 177.35C127.012 177.835 125.935 177.867 124.932 177.877C121.669 177.877 118.405 177.919 115.215 177.177C110.469 176.067 105.554 173.284 101.036 175.116C97.5018 176.557 95.5854 180.404 94.6296 184.101C94.1633 185.915 93.8229 187.831 92.7645 189.37C91.7061 190.909 89.6685 192 87.9386 191.282C85.3788 190.209 85.0011 185.868 81.9144 185.649C79.5038 185.477 78.8324 187.202 78.9956 189.118C79.1354 187.654 79.9281 186.526 81.9144 186.666C85.0011 186.885 85.3788 191.231 87.9386 192.298C89.6685 193.021 91.7107 191.935 92.7645 190.387C93.8183 188.839 94.1633 186.932 94.6296 185.122C95.5854 181.425 97.5018 177.574 101.036 176.137C105.554 174.3 110.469 177.07 115.215 178.198C118.386 178.94 121.678 178.916 124.932 178.893C125.935 178.893 126.993 178.865 127.865 178.371C128.737 177.877 129.264 177.005 130.089 176.45C132.216 175.009 135.041 176.24 137.405 177.242C140.111 178.394 142.946 179.215 145.849 179.686C149.202 180.227 153.552 181.201 156.009 178.86C157.343 177.588 157.744 175.746 157.655 173.731C157.581 175.331 157.114 176.781 156.009 177.844Z" fill="#070707"/>
<path opacity="0.1" d="M86.563 154.596C86.5372 154.828 86.5279 155.062 86.535 155.295C86.5817 156.265 86.95 157.235 87.0666 158.181C87.2391 157.02 86.7029 155.808 86.563 154.596Z" fill="#070707"/>
<path opacity="0.1" d="M77.0886 187.677C77.127 187.817 77.1566 187.958 77.1771 188.101C77.2527 187.62 77.2225 187.129 77.0886 186.661C76.8106 185.995 76.4735 185.355 76.0814 184.749C75.7311 184.059 75.5234 183.306 75.4706 182.534C75.3758 183.648 75.587 184.767 76.0814 185.77C76.4744 186.374 76.8115 187.012 77.0886 187.677Z" fill="#070707"/>
<path opacity="0.1" d="M82.8749 204.92L80.1472 204.878C80.2108 205.042 80.2363 205.219 80.2218 205.395C80.2072 205.571 80.153 205.742 80.0632 205.894C80.8326 205.894 82.1102 205.922 82.8609 205.941C82.9913 205.143 83.0366 204.333 82.9961 203.525C82.9855 203.992 82.945 204.458 82.8749 204.92Z" fill="#070707"/>
<path opacity="0.1" d="M78.4127 202.341C77.2983 202.006 76.0021 202.001 75.1721 201.185C74.6835 200.651 74.4081 199.955 74.3981 199.231C74.3281 200.304 74.3981 201.46 75.1721 202.206C76.0021 203.022 77.2983 203.027 78.4127 203.363C78.7753 203.468 79.1124 203.647 79.4035 203.887C79.6946 204.128 79.9334 204.425 80.1052 204.761C80.5762 203.796 79.4944 202.663 78.4127 202.341Z" fill="#070707"/>
</g>
<path opacity="0.1" d="M163.241 411.967C162.719 411.664 162.187 411.38 161.647 411.11C160.532 410.548 159.39 410.044 158.224 409.599C152.839 407.547 147.071 406.801 141.224 406.927C138.893 407.818 137.377 408.456 137.377 408.456L134.412 409.352L133.917 409.501C133.885 409.174 133.847 408.848 133.815 408.517C133.782 408.186 133.745 407.869 133.708 407.543C132.663 397.653 131.843 387.493 131.843 387.493V378.718V377.697L131.787 351.842L131.32 343.319L131.101 339.546L131.059 338.828L130.975 337.355L130.929 336.478C130.826 336.201 130.739 335.917 130.668 335.63C130.635 335.513 130.602 335.383 130.574 335.247C130.458 334.781 130.332 334.18 130.201 333.527C129.348 329.237 128.28 322.005 128.215 320.537C128.131 318.578 126.434 306.866 126.434 306.866C126.261 300.417 120.839 288.275 119.472 285.986C118.106 283.697 116.582 269.942 117.094 269.2C117.36 268.804 117.533 266.459 117.64 264.295C117.64 264.048 117.663 263.805 117.673 263.568C117.743 261.875 117.775 260.462 117.775 260.462L123.109 259.409L124.541 259.129L124.653 259.105L124.699 259.199C124.853 259.483 125.333 260.392 125.898 261.586C125.963 261.712 126.023 261.847 126.089 261.982C126.117 262.048 126.149 262.113 126.182 262.178C127.226 264.463 128.434 267.47 128.383 269.2C128.299 272.259 131.782 279.645 131.782 279.645C132.118 281.342 139.503 298.23 139.503 298.23C139.503 298.23 145.532 314.783 145.192 317.501C144.851 320.219 148.078 338.213 148.078 338.213L151.389 356.719C152.997 360.365 155.119 368.768 155.119 368.768L155.925 373.533L156.079 374.442L158.229 387.157L159.283 393.387C159.283 393.387 159.725 396.697 160.397 400.381C160.453 400.712 160.518 401.047 160.583 401.383C160.997 403.808 161.585 406.2 162.341 408.54C162.717 409.662 163.017 410.806 163.241 411.967Z" fill="#070707"/>
<path d="M163.819 412.299C163.628 412.187 163.437 412.075 163.241 411.968C162.719 411.665 162.187 411.38 161.647 411.11C160.532 410.548 159.39 410.044 158.224 409.599C152.839 407.548 147.071 406.802 141.224 406.928C138.893 407.818 137.377 408.457 137.377 408.457L134.412 409.352C134.374 409.026 134.342 408.699 134.305 408.368C134.267 408.037 134.239 407.772 134.211 407.473C133.167 397.607 132.346 387.493 132.346 387.493V378.634V377.613L132.29 351.824L131.824 343.683L131.731 341.995L131.665 340.852L131.581 339.342L131.498 337.808L131.437 336.703V336.46C131.437 336.437 131.437 336.409 131.404 336.381C131.316 336.129 131.208 335.747 131.092 335.262L131.036 335.029C131.013 334.921 130.985 334.805 130.961 334.688C130.085 330.711 128.798 322.136 128.728 320.528C128.644 318.569 126.947 306.857 126.947 306.857C126.774 300.408 121.352 288.267 119.985 285.977C118.619 283.688 117.099 269.933 117.607 269.191C117.901 268.725 118.074 265.895 118.186 263.559C118.186 263.372 118.186 263.191 118.186 263.018C118.246 261.577 118.269 260.454 118.269 260.454L123.231 259.474L124.49 259.227L124.685 259.19L125.152 259.097C125.152 259.097 125.762 260.225 126.494 261.778L126.588 261.974C127.656 264.277 128.919 267.41 128.882 269.191C128.798 272.25 132.281 279.636 132.281 279.636C132.617 281.333 140.002 298.221 140.002 298.221C140.002 298.221 146.031 314.774 145.691 317.492C145.35 320.211 148.577 338.204 148.577 338.204L151.888 356.71C153.496 360.357 155.618 368.759 155.618 368.759L156.368 373.198L156.522 374.098L158.215 384.132L159.777 393.378C159.777 393.378 160.243 396.674 160.887 400.372C160.947 400.708 161.008 401.043 161.073 401.384C161.486 403.819 162.074 406.222 162.831 408.574C163.244 409.792 163.575 411.036 163.819 412.299Z" fill="#63667E"/>
<path d="M159.614 172.827C159.614 172.827 157.832 175.121 156.224 175.121C154.615 175.121 148.353 174.864 145.089 173.848C141.825 172.831 125.823 172.062 125.823 172.062C125.823 172.062 103.162 172.146 102.398 171.381C101.633 170.617 88.3069 166.541 86.95 166.798C86.6656 166.854 85.9709 166.975 85.043 167.129L83.9799 167.301C82.3713 167.558 80.3616 167.856 78.5245 168.075C76.2538 168.341 74.2582 168.476 73.624 168.243V166.29C73.624 166.29 76.2538 162.466 76.4216 161.37C76.5895 160.275 78.7996 144.389 84.572 138.705C86.9568 134.146 90.816 130.53 95.5201 128.447C103.33 125.048 111.14 122.166 111.14 122.166L112.506 121.971L116.913 121.318C117.046 121.184 117.192 121.063 117.346 120.954C118.568 120.022 122.27 117.993 127.096 122.353L127.949 123.714C127.949 123.714 142.8 127.193 149.673 139.33C156.545 151.467 156.891 163.352 157.399 168.784C157.399 168.784 157.058 170.313 157.739 170.906C157.986 171.123 158.221 171.354 158.443 171.596C158.504 171.656 158.564 171.717 158.62 171.782C158.816 171.978 158.998 172.183 159.147 172.351C159.165 172.364 159.181 172.38 159.194 172.398C159.23 172.442 159.269 172.484 159.31 172.524L159.614 172.827Z" fill="#FED253"/>
<path opacity="0.05" d="M159.614 172.827C159.614 172.827 157.832 175.121 156.224 175.121C154.615 175.121 148.353 174.865 145.089 173.848C141.825 172.832 125.823 172.062 125.823 172.062C125.823 172.062 103.162 172.146 102.398 171.382C101.633 170.617 88.307 166.542 86.9501 166.798C86.6657 166.854 85.9709 166.975 85.0431 167.129L84.8006 165.637L84.74 165.269C84.74 165.269 110.459 159.753 127.604 162.644C144.749 165.535 157.399 168.752 157.399 168.752C157.399 168.752 157.058 170.281 157.739 170.873C157.986 171.091 158.221 171.321 158.443 171.563C158.504 171.624 158.565 171.685 158.62 171.75C158.816 171.946 158.998 172.151 159.147 172.319C159.165 172.332 159.181 172.348 159.194 172.365C159.23 172.41 159.269 172.452 159.311 172.491L159.614 172.827Z" fill="#070707"/>
<path opacity="0.1" d="M157.278 176.557C154.102 176.804 148.251 176.03 145.691 175.652C144.963 175.545 144.25 175.414 143.532 175.256C140.786 174.659 132.341 172.985 127.212 173.759C121.016 174.692 103.531 172.994 103.531 172.994C103.531 172.994 92.7504 170.789 88.4188 169.008C86.8288 168.35 84.171 168.145 81.5273 168.472C80.8531 168.556 80.1838 168.675 79.5223 168.831C75.9134 169.684 72.8686 171.628 73.3955 174.943C73.1938 174.702 73.007 174.448 72.836 174.183C72.6075 171.153 73.5494 169.348 74.855 168.285L75.1627 168.159C76.7575 167.706 78.3806 167.359 80.0212 167.119C80.2777 167.077 80.5434 167.04 80.8139 167.007C85.4533 166.383 92.1629 166.243 97.8234 169.092C97.8234 169.092 103.083 171.558 106.65 171.558C110.217 171.558 139.242 171.815 146.036 173.764C147.388 174.154 148.767 174.446 150.162 174.636C152.639 174.955 155.156 174.718 157.529 173.941C157.578 174.821 157.493 175.702 157.278 176.557Z" fill="#070707"/>
<path opacity="0.1" d="M159.614 172.828C159.614 172.828 157.832 175.122 156.224 175.122C154.615 175.122 148.353 174.865 145.089 173.849C141.825 172.832 125.823 172.063 125.823 172.063C125.823 172.063 103.162 172.147 102.398 171.382C101.633 170.617 88.3069 166.542 86.95 166.799C86.6656 166.855 85.9709 166.976 85.043 167.13L83.9799 167.302C82.1334 167.293 80.2955 167.554 78.5245 168.076C76.2538 168.342 74.2582 168.477 73.624 168.244V167.857C74.1129 167.573 74.6226 167.327 75.1487 167.12C78.2951 166.239 81.5351 165.735 84.8005 165.619C88.8711 165.47 93.6317 165.945 97.8141 168.053C97.8141 168.053 103.074 170.519 106.641 170.519C110.208 170.519 139.233 170.771 146.026 172.725C147.38 173.112 148.759 173.402 150.153 173.592C153.213 173.978 156.32 173.532 159.147 172.301C159.165 172.314 159.181 172.329 159.194 172.347C159.23 172.391 159.269 172.433 159.31 172.473L159.614 172.828Z" fill="#070707"/>
<path d="M73.4609 174.865C73.4609 174.865 67.7724 170.533 75.1581 167.647C75.1581 167.647 88.0598 163.66 97.8235 168.579C97.8235 168.579 103.083 171.037 106.65 171.037C110.217 171.037 139.242 171.293 146.036 173.247C147.389 173.634 148.768 173.924 150.162 174.114C153.777 174.552 157.438 173.857 160.639 172.123C161.106 171.867 161.525 171.736 161.651 171.885C162.076 172.398 161.74 175.368 158.005 175.96C155.091 176.427 148.47 175.545 145.686 175.14C144.963 175.033 144.245 174.897 143.532 174.743C140.786 174.147 132.341 172.473 127.189 173.247C120.997 174.179 103.507 172.482 103.507 172.482C103.507 172.482 92.7318 170.277 88.4002 168.491C84.0685 166.705 71.8476 168.244 73.4609 174.865Z" fill="#FED253"/>
<path opacity="0.1" d="M121.417 129.352C120.95 128.681 114.959 123.883 112.516 121.943L116.922 121.29C117.056 121.157 117.201 121.035 117.355 120.927C120.559 124.289 121.417 129.352 121.417 129.352Z" fill="#070707"/>
<path opacity="0.1" d="M101.982 155.085L100.029 157.972L107.498 157.72L107.666 154.493L101.982 155.085Z" fill="#070707"/>
<path opacity="0.1" d="M147.561 158.568L148.409 161.198L153.165 161.963L151.128 158.82L147.561 158.568Z" fill="#070707"/>
<path opacity="0.1" d="M65.9072 246.852C66.4155 247.7 83.1359 269.699 87.5515 269.088C91.9671 268.477 65.9072 246.852 65.9072 246.852Z" fill="#070707"/>
<path opacity="0.1" d="M121.93 266.957C121.93 266.957 126.005 270.864 125.408 272.389C124.811 273.914 121.93 266.957 121.93 266.957Z" fill="#070707"/>
<path opacity="0.1" d="M77.4522 293.782C77.4522 293.782 73.8852 310.503 75.755 311.034C77.6247 311.566 77.4522 293.782 77.4522 293.782Z" fill="#070707"/>
<path opacity="0.1" d="M123.287 358.715C123.879 360.412 128.803 371.449 129.908 372.041C131.013 372.633 123.287 358.715 123.287 358.715Z" fill="#070707"/>
<path opacity="0.1" d="M180.498 313.389C180.325 313.981 176.082 317.464 177.015 318.737C177.947 320.01 180.498 313.389 180.498 313.389Z" fill="#070707"/>
<path opacity="0.1" d="M147.561 344.368C147.477 344.797 146.628 353.694 148.241 355.405C149.855 357.116 147.561 344.368 147.561 344.368Z" fill="#070707"/>
<path opacity="0.1" d="M191.054 390.585C189.823 391.27 188.55 391.932 187.254 392.566C185.855 393.247 184.456 393.895 183.03 394.506C182.461 394.753 181.892 394.996 181.328 395.229C180.47 395.583 179.621 395.924 178.782 396.25C176.231 397.248 173.774 398.115 171.587 398.847C170.739 399.132 169.927 399.393 169.172 399.635C165.367 400.843 162.84 401.5 162.84 401.5C162.263 401.377 161.672 401.328 161.082 401.356C160.919 401.356 160.751 401.356 160.579 401.356C159.789 401.413 159.003 401.513 158.224 401.654C153.016 402.587 145.658 405.202 141.224 406.914C138.893 407.804 137.377 408.443 137.377 408.443L134.412 409.338L133.917 409.487C130.705 410.467 126.187 411.856 124.559 412.434C121.93 413.367 99.0964 418.118 99.0964 418.118C97.0104 418.687 94.8796 419.077 92.7271 419.284C87.4232 419.77 82.092 419.892 76.7714 419.647C71.4279 419.992 62.7833 418.817 57.7522 418.025L56.9502 417.899C55.0059 417.582 53.7703 417.353 53.7703 417.353L54.423 416.453L67.8097 397.985L67.8889 397.873L80.3616 380.672L80.8279 380.047L81.961 378.485C81.961 378.485 82.6417 377.553 85.2621 377.492C85.5699 377.492 85.9056 377.492 86.274 377.492C88.4751 377.669 90.6466 378.112 92.7411 378.811L93.3473 378.993C102.379 381.581 116.339 380.933 116.339 380.933C116.339 380.933 125.026 379.534 131.852 378.695L132.36 378.63C134.591 378.314 136.837 378.12 139.088 378.047C143.247 378.131 152.247 375.925 152.247 375.925C154.182 375.51 154.997 375.161 156.089 374.382C156.233 374.279 156.387 374.167 156.555 374.046C157.021 373.696 157.557 373.268 158.247 372.736C159.506 371.771 161.273 370.461 164.052 368.623C164.295 368.465 164.551 368.306 164.826 368.157C165.102 368.008 165.451 367.807 165.787 367.64C168.478 366.365 171.316 365.426 174.236 364.842C176.658 364.321 179.116 363.983 181.589 363.83H181.957C188.951 363.457 196.095 364.656 200.272 368.586C201.003 369.277 201.639 370.061 202.165 370.918C202.421 371.324 202.648 371.748 202.846 372.186C203.227 373.021 203.51 373.897 203.69 374.797C203.724 374.965 203.752 375.133 203.774 375.3C203.774 375.352 203.774 375.398 203.774 375.45C203.774 375.585 203.802 375.72 203.811 375.855C204.184 381.437 198.393 386.482 191.054 390.585Z" fill="#070707"/>
<path d="M53.7703 416.351C53.7703 416.351 68.8774 419.148 76.7714 418.64C76.7714 418.64 91.2864 419.405 99.0964 417.115C99.0964 417.115 121.944 412.36 124.559 411.427C127.175 410.494 137.377 407.436 137.377 407.436C137.377 407.436 157.24 399.117 162.84 400.474C162.84 400.474 206.809 389.102 203.667 373.738C200.524 358.375 172.772 361.858 164.034 367.626C155.296 373.393 156.573 373.995 152.237 374.927C152.237 374.927 143.238 377.133 139.079 377.049C134.92 376.965 116.33 379.935 116.33 379.935C116.33 379.935 101.731 380.616 92.7365 377.814C83.7421 375.011 81.9563 377.473 81.9563 377.473L53.7703 416.351Z" fill="#FFA2A2"/>
<path opacity="0.1" d="M86.5306 376.476C86.5329 376.494 86.5329 376.513 86.5306 376.532C86.498 376.878 86.4082 377.217 86.2648 377.534C84.4743 381.926 74.3096 393.774 74.3096 393.774C73.8462 395.182 73.2869 396.556 72.6357 397.887C71.2351 400.732 69.6219 403.467 67.8098 406.07C65.1238 409.963 62.1911 413.681 59.03 417.2H59.0066C58.6044 417.498 58.1856 417.774 57.7524 418.025C56.6566 418.678 55.0107 419.485 53.458 419.582C53.1936 419.598 52.9284 419.59 52.6654 419.559C52.8286 419.559 52.9871 419.522 53.1316 419.494L52.5628 419.326L51.7841 419.084C50.4786 418.673 49.1839 418.224 47.9001 417.736L47.1214 417.438C45.878 416.959 44.6611 416.444 43.4705 415.894L42.6919 415.54C41.4485 414.962 40.2315 414.351 39.041 413.707C38.612 413.484 38.1877 413.241 37.768 413.013C36.4998 412.304 35.2564 411.561 34.0379 410.784C32.7448 409.96 31.4796 409.101 30.2424 408.205C29.3099 406.476 28.5406 404.942 28.1209 404.116C27.3562 402.582 27.2909 400.386 27.3842 398.796C27.3842 398.633 27.3842 398.479 27.4122 398.33C27.4914 397.332 27.6127 396.647 27.6127 396.647C26.9218 395.723 26.2985 394.751 25.7476 393.737C25.4311 393.234 25.2511 392.657 25.2254 392.063C25.2465 391.825 25.2243 391.585 25.1601 391.354C24.8011 389.881 23.2577 387.349 21.8309 385.759C20.7678 384.589 20.7026 380.215 20.8051 377.115C20.8657 375.249 20.9823 373.879 20.9823 373.879C20.7734 373.744 20.617 373.541 20.5394 373.305C20.1644 372.285 19.9109 371.224 19.784 370.144C19.784 369.99 19.742 369.836 19.7187 369.678C19.4203 367.537 19.2851 365.388 19.2851 365.388C15.8347 362.875 14.1934 358.953 13.4287 355.456L13.3308 354.99C12.9109 352.841 12.7326 350.651 12.7993 348.462C12.7993 348.252 12.7993 348.094 12.7993 347.996C12.7993 347.898 12.7993 347.879 12.7993 347.879C12.7993 347.879 13.2562 337.775 14.5338 333.831C14.5851 333.663 14.641 333.509 14.697 333.364C14.7911 333.117 14.9131 332.881 15.0607 332.66C15.527 332.04 15.858 330.87 16.1331 329.485C16.3243 328.525 16.4828 327.457 16.5994 326.394C16.7066 325.508 16.7905 324.627 16.8558 323.811C17.0377 321.628 17.0936 319.927 17.0936 319.927L16.231 315.674C15.9932 314.513 15.8114 313.343 15.6855 312.172C15.6855 312.019 15.6482 311.865 15.6295 311.706C15.4115 309.545 15.3725 307.369 15.513 305.202C15.513 305.043 15.513 304.889 15.5409 304.735C15.905 299.798 17.1958 294.974 19.3457 290.514L19.5788 290.048C19.8897 289.426 20.2161 288.815 20.558 288.215C20.8051 287.773 21.0662 287.334 21.3367 286.901C22.0536 285.739 22.8318 284.617 23.668 283.539C23.7893 283.38 23.9152 283.226 24.041 283.073C25.496 281.269 27.1129 279.602 28.8716 278.093C33.5809 274.046 37.9033 272.288 41.8292 272.153C58.9973 271.546 68.6258 301.91 70.1831 307.23C70.3323 307.743 70.4069 308.023 70.4069 308.023C70.4069 308.023 77.3637 314.984 75.3261 318.038C74.931 318.71 74.6905 319.462 74.622 320.239C74.0625 324.347 75.6665 331.112 75.6665 331.112C75.6665 331.112 76.2353 332.977 77.8952 337.444L78.3848 338.75C79.4246 341.547 79.6671 346.243 79.0702 350.449C78.4967 354.477 77.1492 358.039 74.9904 358.953C70.5748 360.818 71.7638 362.684 72.7803 364.218C73.3843 365.317 73.8883 366.469 74.2863 367.659C74.9251 369.379 75.5173 371.188 75.7411 371.892C75.8064 372.088 75.839 372.195 75.839 372.195C76.4575 371.956 77.1 371.784 77.7554 371.682C78.59 371.566 79.4153 371.65 79.5738 372.363C79.6577 372.746 80.138 373.198 80.8141 373.65C82.8191 375.03 86.5306 376.476 86.5306 376.476Z" fill="#070707"/>
<path d="M85.5139 376.475C85.4854 376.83 85.3955 377.177 85.2481 377.501C83.467 381.898 73.293 393.774 73.293 393.774C72.8275 395.181 72.2683 396.555 71.619 397.886C70.4938 400.184 69.2214 402.407 67.8096 404.54C64.8867 408.949 61.6486 413.141 58.1205 417.083L58.0133 417.199C58.0133 417.199 57.603 417.512 56.9502 417.913C55.7838 418.657 54.4985 419.197 53.1501 419.507L52.5812 419.34L51.8026 419.097C50.497 418.687 49.2023 418.238 47.9185 417.75L47.1399 417.451C45.8965 416.972 44.6795 416.458 43.489 415.908L42.7103 415.553C41.4669 414.975 40.25 414.364 39.0594 413.721C38.6304 413.497 38.2061 413.255 37.7865 413.026C36.5182 412.318 35.2749 411.575 34.0563 410.798C32.7632 409.974 31.4981 409.114 30.2609 408.219C29.6889 407.809 29.1232 407.388 28.5637 406.955C27.9342 405.762 27.4306 404.755 27.1182 404.13C26.3536 402.596 26.2883 400.4 26.3815 398.81C26.3815 398.647 26.3815 398.493 26.4095 398.343C26.4888 397.346 26.61 396.66 26.61 396.66C26.61 396.66 26.2323 396.152 25.7754 395.462C25.5189 395.08 25.2438 394.637 24.9967 394.198C24.5304 393.378 24.1667 392.548 24.2367 392.077C24.2461 391.996 24.2461 391.915 24.2367 391.834C24.2297 391.677 24.2062 391.521 24.1668 391.368C23.8077 389.895 22.2597 387.363 20.8329 385.773C19.7698 384.602 19.7045 380.229 19.8025 377.128C19.8025 376.97 19.8025 376.816 19.8025 376.662C19.8677 375.053 19.9657 373.892 19.9657 373.892C19.4388 373.664 19.0331 371.971 18.772 370.162L18.7021 369.696C18.4037 367.556 18.2684 365.406 18.2684 365.406C14.818 362.893 13.1768 358.972 12.4167 355.475C11.8873 353.025 11.6835 350.517 11.8106 348.014C11.8106 347.94 11.8106 347.898 11.8106 347.898C11.8106 347.898 12.2116 337.742 13.4892 333.793C13.5405 333.625 13.5964 333.471 13.6524 333.327C13.7642 333.085 13.9035 332.856 14.0673 332.646C14.7761 331.657 15.247 329.28 15.5547 326.846L15.6107 326.379C15.9977 323.115 16.1049 319.912 16.1049 319.912L15.2377 315.66C15.0014 314.494 14.8196 313.327 14.6921 312.158C14.6688 312.004 14.6548 311.846 14.6362 311.692C14.4182 309.531 14.3792 307.355 14.5196 305.187C14.5196 305.029 14.5196 304.875 14.5523 304.721C14.9141 299.783 16.205 294.959 18.357 290.5C18.4316 290.341 18.5062 290.187 18.5902 290.034C19.1897 288.823 19.8559 287.646 20.5858 286.509C20.8376 286.112 21.094 285.721 21.3645 285.334C21.7888 284.718 22.2317 284.112 22.6933 283.524L23.0664 283.058C24.5089 281.261 26.1116 279.599 27.8549 278.092C32.9839 273.695 37.6466 271.998 41.8431 272.152C58.3723 272.744 67.6511 302.017 69.1758 307.23C69.325 307.742 69.3996 308.022 69.3996 308.022C69.3996 308.022 76.361 314.984 74.3234 318.038C73.9283 318.71 73.6878 319.462 73.6194 320.239C73.0552 324.346 74.6638 331.112 74.6638 331.112C74.6638 331.112 75.2326 332.977 76.8926 337.444C77.0418 337.859 77.205 338.293 77.3588 338.749C78.3986 341.547 78.6411 346.242 78.0443 350.448C77.4707 354.481 76.1279 358.039 73.9644 358.953C69.5535 360.818 70.7378 362.683 71.7589 364.217C72.3629 365.317 72.867 366.468 73.265 367.658C74.0716 369.854 74.813 372.195 74.813 372.195C75.1182 372.077 75.4295 371.976 75.7455 371.892C76.3942 371.679 77.0811 371.607 77.7598 371.682C77.9476 371.697 78.126 371.77 78.2693 371.893C78.4125 372.015 78.5133 372.18 78.5571 372.363C78.683 372.922 79.6482 373.617 80.8186 374.275C82.3382 375.102 83.9061 375.836 85.5139 376.475Z" fill="#FFC263"/>
<path opacity="0.1" d="M24.1436 331.638C25.7568 331.554 43.0741 324.849 46.6411 327.139C50.208 329.428 72.2859 344.283 72.2859 344.283C72.2859 344.283 58.4517 326.206 46.3986 321.963C34.3455 317.72 24.1436 331.638 24.1436 331.638Z" fill="#070707"/>
<path opacity="0.1" d="M49.0376 358.972C49.0376 358.972 66.3549 362.45 68.9846 364.828L49.0376 358.972Z" fill="#070707"/>
<path opacity="0.1" d="M45.7038 384.868C45.4521 385.125 39.1761 399.211 39.6796 399.211C40.1832 399.211 45.536 390.818 45.536 390.818L45.7038 384.868Z" fill="#070707"/>
<path opacity="0.1" d="M57.5052 367.966C57.5052 367.966 52.4135 369.752 53.0057 369.919C53.5978 370.087 57.3327 368.73 57.5052 367.966Z" fill="#070707"/>
<path opacity="0.1" d="M52.4136 389.274C53.2622 391.056 55.9759 396.404 56.5727 395.555C57.1695 394.706 52.4136 389.274 52.4136 389.274Z" fill="#070707"/>
<path opacity="0.1" d="M115.975 248.097L115.248 249.132C115.248 249.132 109.471 245.062 107.097 243.024C104.724 240.987 99.1196 250.321 94.704 252.867C90.2884 255.413 82.8234 256.094 82.8234 256.094C82.8234 256.094 77.051 250.321 77.2282 248.634C77.4054 246.946 74.5145 246.428 74.342 245.239C74.1695 244.05 73.153 240.656 71.7961 238.958C71.0781 238.063 70.9755 235.261 71.0408 232.822C71.507 232.729 71.7961 232.678 71.7961 232.678C72.5208 231.361 73.4369 230.159 74.5145 229.111C76.0439 227.754 78.4172 219.436 78.4172 219.436C79.774 214.852 82.4877 216.209 82.4877 216.209C82.4877 223.171 89.6216 225.716 93.1839 228.603C96.7462 231.489 102.351 238.958 106.766 240.488C110.389 241.723 114.628 246.503 115.975 248.097Z" fill="#070707"/>
<path d="M115.975 247.076L115.248 248.116C115.248 248.116 109.448 244.055 107.074 242.003C104.701 239.952 99.0964 249.3 94.6808 251.846C90.2652 254.392 82.8002 255.078 82.8002 255.078C82.8002 255.078 77.0278 249.3 77.205 247.617C77.3822 245.934 74.4913 245.412 74.3188 244.218C74.1463 243.024 73.1298 239.635 71.7729 237.937C71.0549 237.042 70.9523 234.24 71.0176 231.801L71.7729 231.661C72.4977 230.345 73.4137 229.142 74.4913 228.095C76.0207 226.733 78.394 218.419 78.394 218.419C79.7508 213.836 82.4645 215.188 82.4645 215.188C82.4645 222.15 89.5984 224.7 93.1607 227.586C96.7231 230.472 102.328 237.937 106.743 239.467C110.389 240.721 114.628 245.482 115.975 247.076Z" fill="#FFC263"/>
<path opacity="0.1" d="M116.409 248.456C116.409 248.456 111.406 251.17 107.499 251.426C106.987 251.45 106.475 251.42 105.969 251.337C105.969 251.337 110.282 248.115 114.287 247.458L116.409 248.456Z" fill="#070707"/>
<path opacity="0.1" d="M126.597 262.29C126.597 262.29 120.288 259.833 118.204 263.53C118.274 261.833 118.302 260.425 118.302 260.425L125.18 259.063C125.18 259.063 125.842 260.29 126.616 261.94C126.597 262.159 126.597 262.29 126.597 262.29Z" fill="#070707"/>
<path d="M105.969 251.338C105.969 251.338 113.527 246.801 117.16 247.183C120.969 247.579 128.35 247.859 128.35 247.859C128.35 247.859 125.804 253.632 126.145 254.821C126.485 256.01 126.569 261.782 126.569 261.782C126.569 261.782 118.932 258.812 117.659 264.328C117.659 264.328 113.499 258.131 110.697 256.261C108.838 254.918 107.236 253.25 105.969 251.338Z" fill="#63667E"/>
<path opacity="0.1" d="M148.666 256.606C146.46 256.606 138.65 251.678 136.953 248.456C135.256 245.234 132.878 248.791 130.672 249.985C129.273 250.75 123.73 249.15 120.741 247.989C122.256 246.959 125.613 244.059 126.597 243.364C127.781 242.511 128.975 228.76 128.975 228.76C133.218 226.555 137.802 246.586 137.802 246.586C137.802 246.586 145.784 248.964 146.46 250.661C146.591 250.997 147.192 251.594 148.097 252.316C149.029 254.666 149.542 256.606 148.666 256.606Z" fill="#070707"/>
<path d="M148.666 255.585C146.46 255.585 138.65 250.661 136.953 247.44C135.256 244.218 132.878 247.775 130.672 248.964C129.273 249.729 124.83 248.251 121.841 247.099C123.356 246.073 125.613 243.052 126.597 242.353C127.781 241.504 128.975 227.754 128.975 227.754C133.218 225.548 137.801 245.579 137.801 245.579C137.801 245.579 145.784 247.957 146.46 249.654C146.591 249.99 147.192 250.587 148.097 251.31C149.029 253.646 149.542 255.585 148.666 255.585Z" fill="#FFC263"/>
<path d="M178.829 404.311L252.644 342.764C253.38 342.141 254.319 341.81 255.283 341.831L282.821 342.554C282.821 342.554 284.728 343.953 281.93 347.011L212.297 404.153C211.545 404.768 210.611 405.119 209.64 405.151L179.528 406.148C179.312 406.155 179.099 406.094 178.919 405.974C178.739 405.854 178.601 405.681 178.524 405.479C178.447 405.277 178.435 405.056 178.489 404.846C178.544 404.637 178.663 404.45 178.829 404.311Z" fill="#006574"/>
<path d="M214.535 396.739C214.535 396.739 230.659 419.829 248.573 398.352C266.487 376.876 261.307 365.592 255.875 364.996C250.443 364.399 219.879 387.913 214.535 396.739Z" fill="#FFA2A2"/>
<path opacity="0.1" d="M323.284 138.491C323.284 138.491 344.065 98.1587 368.628 118.959C368.628 118.959 373.991 120.913 373.585 126.583C373.585 126.583 371.519 125.449 369.878 129.781C369.275 131.318 368.493 132.778 367.547 134.131C366.289 135.959 364.473 137.33 362.371 138.039C362.371 138.039 351.348 146.296 330.931 139.927C330.931 139.927 325.158 140.757 324.226 140.039L330.935 135.134C330.935 135.134 334.344 140.193 339.328 140.771C339.328 140.771 330.935 135.502 331.896 134.36C332.092 134.127 335.57 131.921 335.57 131.921C335.57 131.921 341.534 140.692 349.264 141.34C349.264 141.34 338.433 136.402 336.88 131.082L342.321 128.047C342.321 128.047 348.169 137.628 356.948 138.701C356.948 138.701 345.805 133.148 343.557 127.464L349.316 125.216C349.316 125.216 355.205 134.449 362.511 135.292C362.511 135.292 350.285 127.576 350.668 124.787C350.668 124.787 356.081 123.044 357.741 123.272C357.741 123.272 362.119 129.8 366.409 129.916C366.409 129.916 358.785 123.892 359.289 122.964C359.289 122.964 366.945 122.568 370.946 124.419C370.946 124.419 365.257 121.253 359.289 121.766C359.289 121.766 361.989 118.591 365.509 117.891C365.509 117.891 361.289 116.157 357.433 121.883C357.433 121.883 351.479 122.428 350.742 123.09C350.742 123.09 353.754 116.898 357.461 114.264C357.461 114.264 351.936 115.238 349.199 123.631L343.361 125.762C343.361 125.762 346.91 117.369 350.038 114.777C350.038 114.777 344.555 116.642 341.934 126.433L336.563 129.352C336.563 129.352 339.067 121.892 341.925 118.25C341.925 118.25 337.211 121.076 335.052 130.243L331.695 132.607C331.695 132.607 333.621 127.189 334.316 125.683C335.01 124.177 334.661 123.864 334.661 123.864C332.327 126.623 330.805 129.976 330.264 133.549C330.264 133.549 323.671 138.864 323.284 138.491Z" fill="#006574"/>
<path opacity="0.1" d="M409.231 160.061C409.231 160.061 418.622 141.834 429.719 151.234C429.719 151.234 432.144 152.115 431.957 154.675C431.957 154.675 431.025 154.167 430.283 156.125C430.015 156.819 429.664 157.478 429.239 158.088C428.671 158.912 427.854 159.532 426.907 159.855C426.907 159.855 421.923 163.586 412.696 160.709C412.696 160.709 410.089 161.082 409.669 160.76L412.7 158.54C412.7 158.54 414.239 160.83 416.496 161.086C416.496 161.086 412.71 158.708 413.139 158.191C413.222 158.088 414.794 157.09 414.794 157.09C414.794 157.09 417.489 161.054 420.986 161.347C420.986 161.347 416.09 159.114 415.391 156.685L417.853 155.319C417.853 155.319 420.492 159.65 424.46 160.135C424.46 160.135 419.424 157.627 418.398 155.057L421 154.041C421 154.041 423.658 158.214 426.959 158.596C426.959 158.596 421.433 155.109 421.611 153.85C421.611 153.85 424.054 153.062 424.805 153.164C424.805 153.164 426.782 156.116 428.721 156.163C428.721 156.163 425.276 153.444 425.504 153.025C425.504 153.025 428.964 152.847 430.764 153.682C430.764 153.682 428.194 152.251 425.504 152.484C426.246 151.64 427.218 151.03 428.302 150.73C428.302 150.73 426.395 149.947 424.651 152.535C424.651 152.535 421.96 152.782 421.629 153.08C421.629 153.08 422.991 150.283 424.665 149.094C424.665 149.094 422.166 149.532 420.935 153.328L418.323 154.307C418.323 154.307 419.923 150.516 421.34 149.341C421.34 149.341 418.86 150.185 417.675 154.605L415.251 155.92C415.251 155.92 416.379 152.544 417.671 150.903C417.671 150.903 415.54 152.181 414.57 156.321L413.05 157.389C413.05 157.389 413.922 154.941 414.234 154.26C414.547 153.579 414.388 153.439 414.388 153.439C413.334 154.691 412.646 156.209 412.402 157.827C412.402 157.827 409.394 160.228 409.231 160.061Z" fill="#006574"/>
<path opacity="0.1" d="M307.477 181.267C307.477 181.267 316.868 163.04 327.993 172.44C327.993 172.44 330.413 173.321 330.231 175.886C330.231 175.886 329.298 175.373 328.557 177.331C328.287 178.024 327.936 178.683 327.513 179.294C326.939 180.122 326.113 180.742 325.158 181.061C325.158 181.061 320.178 184.792 310.951 181.915C310.951 181.915 308.344 182.292 307.925 181.966L310.955 179.747C310.955 179.747 312.494 182.036 314.746 182.297C314.746 182.297 310.96 179.914 311.389 179.397C311.478 179.294 313.049 178.296 313.049 178.296C313.049 178.296 315.744 182.26 319.236 182.553C319.236 182.553 314.345 180.32 313.641 177.891L316.103 176.529C316.103 176.529 318.747 180.856 322.715 181.341C322.715 181.341 317.679 178.833 316.653 176.264L319.255 175.247C319.255 175.247 321.917 179.42 325.219 179.802C325.219 179.802 319.693 176.315 319.866 175.056C319.866 175.056 322.314 174.268 323.064 174.37C323.064 174.37 325.041 177.322 326.981 177.373C326.981 177.373 323.535 174.65 323.764 174.231C323.764 174.231 327.219 174.053 329.023 174.888C329.023 174.888 326.45 173.457 323.759 173.69C324.501 172.846 325.474 172.236 326.557 171.937C326.557 171.937 324.654 171.153 322.911 173.741C322.911 173.741 320.22 173.988 319.889 174.287C319.889 174.287 321.246 171.489 322.925 170.3C322.925 170.3 320.425 170.738 319.194 174.534L316.551 175.513C316.551 175.513 318.155 171.722 319.567 170.552C319.567 170.552 317.092 171.391 315.907 175.811L313.478 177.126C313.478 177.126 314.611 173.75 315.903 172.109C315.903 172.109 313.772 173.387 312.797 177.527L311.277 178.595C311.277 178.595 312.149 176.147 312.461 175.466C312.774 174.785 312.62 174.646 312.62 174.646C311.563 175.895 310.876 177.415 310.634 179.033C310.634 179.033 307.64 181.434 307.477 181.267Z" fill="#006574"/>
</g>
<path d="M1153 138.43L1185.58 157.24L1218.16 138.43V100.81L1185.58 82L1153 100.81V138.43Z" fill="#FFC263"/>
<path d="M1153 176.05L1185.58 194.86L1218.16 176.05V138.43L1185.58 119.62L1153 138.43V176.05Z" stroke="#1D262D" stroke-width="2" stroke-miterlimit="10"/>
<defs>
<clipPath id="clip0">
<rect width="500" height="363.756" fill="white" transform="translate(0 113)"/>
</clipPath>
</defs>
</svg>
