<?xml version="1.0" encoding="UTF-8" standalone="no"?>
<svg
   xmlns:dc="http://purl.org/dc/elements/1.1/"
   xmlns:cc="http://creativecommons.org/ns#"
   xmlns:rdf="http://www.w3.org/1999/02/22-rdf-syntax-ns#"
   xmlns:svg="http://www.w3.org/2000/svg"
   xmlns="http://www.w3.org/2000/svg"
   xml:space="preserve"
   style="enable-background:new 0 0 499.998 499.998;"
   viewBox="0 0 499.998 499.998"
   height="499.998px"
   width="499.998px"
   y="0px"
   x="0px"
   id="Capa_1"
   version="1.1"><metadata
     id="metadata41"><rdf:RDF><cc:Work
         rdf:about=""><dc:format>image/svg+xml</dc:format><dc:type
           rdf:resource="http://purl.org/dc/dcmitype/StillImage" /></cc:Work></rdf:RDF></metadata><defs
     id="defs39" /><g
     id="g4"><path
       id="path2"
       d="M498.417,185.53c-2.499-5.235-7.339-8.617-12.329-8.617c-2.453,0-6.081,0.83-9.443,4.782   c-9.877,11.612-33.169,35.684-38.034,40.548c-1.536,1.537-3.07,1.767-3.85,1.767c-1.135,0.001-2.062-0.465-2.359-1.184   c-0.336-0.811,0.032-2.402,2.066-4.439c7.709-7.708,33.339-34.469,48.126-51.921c3.729-4.398,4.595-9.665,2.377-14.446   c-2.417-5.217-8.04-8.722-13.993-8.722c-3.275,0-8.111,1.044-12.535,6.018c-3.525,3.967-8.305,9.411-13.361,15.176   c-11.766,13.407-26.405,30.092-31.442,35.129c-1.379,1.379-2.89,2.108-4.369,2.108c-1.565,0.001-2.982-0.876-3.521-2.182   c-0.568-1.374-0.082-2.931,1.371-4.383c2.902-2.905,10.933-11.694,20.227-21.868c12.128-13.276,25.873-28.32,32.268-34.716   c4.431-4.429,5.68-10.809,3.262-16.649c-2.437-5.879-7.876-9.678-13.862-9.678c-4.585,0-9.203,2.193-13.354,6.343   c-15.697,15.7-47.939,49.47-51.714,53.786c-0.713,0.815-2.238,1.363-3.798,1.363c-1.386,0-2.338-0.444-2.531-0.862   c-0.192-0.42-0.006-1.735,1.931-4.001c3.842-4.501,10.746-12.15,18.737-21.007c7.896-8.749,16.845-18.665,24.423-27.31   c5.39-6.148,6.965-13.02,4.32-18.851c-2.52-5.56-8.456-9.152-15.127-9.152c-5.273,0-10.462,2.281-14.603,6.422   c-3.543,3.544-8.747,10.241-14.772,17.997c-14.157,18.22-34.371,44.232-50.683,52.209c-1.53,0.59-4.236,2.519-14.292,1.127   c-11.994-1.661-18.41-21.455-20.142-32.581c-0.867-5.587-1.688-10.866-4.262-15.094c-3.522-5.784-11.713-9.824-19.92-9.824   c-5.658,0-10.341,1.955-13.184,5.504c-2.048,2.558-4.119,7.247-2.37,15.066c1.054,4.704,2.281,9.325,3.586,14.218   c4.492,16.883,11.064,44.512,8.472,77.195c-0.741,10.738-6.121,20.53-13.83,29.205c-14.83-13.608-23.007-26.655-23.851-38.245   c-0.507-27.062,4.156-44.584,8.287-60.108c1.25-4.691,2.428-9.12,3.452-13.699c2.273-10.15-0.717-16.611-3.626-20.242   c-4.063-5.072-10.459-7.866-18.014-7.866c-10.278,0-20.295,5.106-24.92,12.706c-3.171,5.211-4.094,11.154-4.987,16.903   c-1.588,10.22-2.958,19.047-15.479,25.776c-0.409,0.22-1.561,0.8-2.401,0.551c-13.241-7.427-35.952-30.768-50.344-49.292   c-5.853-7.53-10.904-14.034-14.573-17.701c-5.261-5.262-11.952-8.158-18.843-8.158c-9.089,0-17.244,5.033-20.772,12.823   c-1.415,3.122-1.987,6.467-1.754,9.85c-3.999-2.629-8.3-3.995-12.678-3.995c-8.54,0-16.26,5.313-19.666,13.535   c-2.194,5.304-2.238,10.928-0.317,15.932c-0.284-0.011-0.569-0.017-0.854-0.017c-8.343,0-16.248,4.968-19.675,12.361   c-3.018,6.511-2.19,13.8,2.165,19.816c-6.225,1.14-11.857,5.559-14.886,11.901c-3.646,7.643-2.636,16.444,2.641,22.968   C13.173,220.149,188.18,403.03,188.47,403.446c1.526,2.205,3.93,3.638,6.604,3.933c0.328,0.037,0.668,0.057,1.005,0.057   c2.337,0,4.566-0.872,6.281-2.456l47.39-43.761l47.159,42.73c0.433,0.397,0.995,0.615,1.575,0.615c0.084,0,0.17-0.004,0.254-0.016   c0.668-0.071,1.271-0.432,1.654-0.984c0.313-0.451,186.67-189.957,196.171-201.702C500.362,197.165,501.054,191.058,498.417,185.53   z M200.144,313.572l39.206,38.044l-42.52,39.265c-8.457-11.658-172.191-178.987-181.058-189.947   c-1.907-2.36-3.247-5.266-1.906-8.077c1.17-2.449,3.58-4.13,5.835-4.13c1.22,0,2.949,0.719,4.109,2.082   c9.48,11.147,31.803,34.222,36.463,38.882c10.021,9.508,21.514-0.511,12.673-9.94c-7.25-7.249-31.478-34.276-45.38-50.684   c-10.314-12.376,4.688-21.479,13.609-8.858c3.292,3.702,37.859,43.094,42.788,48.021c2.657,2.66,5.895,4.075,9.21,4.076   l-0.078-0.009c4.371,0,8.241-2.52,9.859-6.424c1.654-3.991,0.041-8.06-3.05-11.357c-1.529-1.529-15.356-15.481-30.862-31.114   c-15.002-16.749-23.024-24.758-20.317-30.866c1.214-2.931,3.856-5.117,6.669-5.117c3.083,0,5.876,2.148,7.678,3.951   c14.821,14.819,45.194,46.629,48.742,50.683c2.433,2.138,5.496,4.434,9.045,4.434c4.095,0,7.25-2.575,8.667-5.647   c1.092-2.36,1.48-6.242-2.869-11.337c-3.717-4.355-10.292-11.639-17.902-20.073l-0.147-0.163   c-7.427-8.23-15.843-17.559-22.952-25.667c-1.517-1.732-4.695-6.748-2.979-10.321c1.25-2.757,4.572-5.254,8.136-5.254   c3.123,0,6.056,2.145,8.654,4.742c3.045,3.043,8.077,9.522,13.431,16.411c11.563,14.882,34.407,40.057,51.547,51.083   c5.379,3.209,12.379,5.146,18.999,1.397c18.473-10.463,21.032-25.071,22.734-36.035c0.714-4.587,1.39-8.92,3.102-11.735   c3.047-4.895,6.759-6.958,12.771-6.958c3.186,0,5.767,1.941,7.098,3.604c1.381,1.722,1.689,4.685,0.87,8.342   c-0.963,4.304-2.104,8.603-3.334,13.213c-4.148,15.586-8.817,33.161-8.779,59.898c0.48,8.546,0.98,11.671,2.686,16.994   c3.998,11.393,12.392,23.044,25.134,34.85c-22.884,24.625-46.11,46.759-46.278,47.56   C199.012,312.242,199.545,313.018,200.144,313.572z" /></g><g
     id="g6" /><g
     id="g8" /><g
     id="g10" /><g
     id="g12" /><g
     id="g14" /><g
     id="g16" /><g
     id="g18" /><g
     id="g20" /><g
     id="g22" /><g
     id="g24" /><g
     id="g26" /><g
     id="g28" /><g
     id="g30" /><g
     id="g32" /><g
     id="g34" /></svg>