<?xml version="1.0" encoding="iso-8859-1"?>
<!-- Generator: Adobe Illustrator 19.0.0, SVG Export Plug-In . SVG Version: 6.00 Build 0)  -->
<svg version="1.1" id="Capa_1" xmlns="http://www.w3.org/2000/svg" xmlns:xlink="http://www.w3.org/1999/xlink" x="0px" y="0px"
	 viewBox="0 0 512 512" style="enable-background:new 0 0 512 512;" xml:space="preserve">
<g>
	<g>
		<g>
			<path d="M439.307,162.115c0-5.768,4.692-10.46,10.46-10.46h62.23l-0.095-7.591c-0.493-39.812-9.075-78.41-25.508-114.723
				l-1.165-2.574l-2.575-1.166C446.343,9.169,407.745,0.588,367.934,0.094L360.343,0v62.23c0,5.768-4.693,10.46-10.461,10.46
				s-10.461-4.693-10.461-10.46V1.036l-8.368,0.977c-20.683,2.414-41.134,7.09-60.782,13.897l-5.044,1.747v126.667
				c0,5.768-4.693,10.46-10.461,10.46c-5.768,0-10.461-4.693-10.461-10.46V26.062l-10.916,5.591
				c-22.769,11.663-43.901,26.347-62.81,43.647l-2.437,2.229v117.84c0,5.768-4.693,10.46-10.461,10.46
				c-5.768,0-10.46-4.693-10.46-10.46V98.242l-50.48,50.479C66.045,179.42,50.31,221.874,53.573,265.203
				c1.978,26.276,13.831,50.613,33.372,68.527c17.675,16.202,40.135,25.794,63.901,27.419c1.626,23.766,11.218,46.228,27.42,63.901
				c17.914,19.541,42.251,31.393,68.527,33.372c3.758,0.283,7.503,0.423,11.24,0.423c39.357-0.002,77.207-15.556,105.241-43.591
				l50.478-50.479h-97.126c-5.768,0-10.461-4.693-10.461-10.46s4.693-10.461,10.461-10.461h117.839l2.228-2.437
				c17.301-18.91,31.986-40.041,43.647-62.81l5.592-10.916H367.674c-5.768,0-10.461-4.693-10.461-10.461s4.693-10.46,10.461-10.46
				H494.34l1.747-5.044c6.808-19.651,11.483-40.102,13.896-60.783l0.978-8.368h-61.194
				C443.999,172.575,439.307,167.883,439.307,162.115z M493.982,187.57c-2.224,14.991-5.7,29.806-10.373,44.203H367.673
				c-14.037,0-25.457,11.42-25.457,25.456c0,14.037,11.42,25.457,25.457,25.457h93.412c-9.424,16.49-20.571,31.971-33.251,46.172
				H316.628c-14.037,0-25.457,11.42-25.457,25.457s11.42,25.456,25.457,25.456h60.924l-24.881,24.881
				c-27.605,27.604-65.793,41.748-104.75,38.819c-45.16-3.401-80.726-41.132-82.252-86.538l43.032-43.032h47.421v-14.996h-32.426
				l83.872-83.872h112.055v-14.996h-97.06l21.897-21.897l-10.604-10.603l-21.897,21.897V92.372h-14.996v112.056L213.093,288.3
				V141.699h-14.996v161.598l-43.031,43.031c-45.406-1.526-83.138-37.091-86.539-82.252c-2.935-38.967,11.215-77.147,38.82-104.752
				l24.881-24.881v60.925c0,14.037,11.42,25.456,25.456,25.456c14.037,0,25.457-11.42,25.457-25.456V84.162
				c14.2-12.68,29.679-23.826,46.172-33.251v93.413c0,14.037,11.42,25.456,25.457,25.456s25.457-11.42,25.457-25.456V28.388
				c14.395-4.672,29.211-8.148,44.202-10.372V62.23c0,14.037,11.42,25.456,25.457,25.456c14.037,0,25.457-11.42,25.457-25.456
				V15.288c34.105,1.359,67.209,9.023,98.548,22.822c13.8,31.339,21.465,64.443,22.823,98.549h-46.943
				c-14.036,0-25.456,11.42-25.456,25.456c0,14.036,11.42,25.456,25.456,25.456H493.982z"/>
			<path d="M109.11,172.04c-21.951,24.877-33.109,58.149-30.613,91.285l14.953-1.127c-2.193-29.128,7.613-58.374,26.905-80.237
				L109.11,172.04z"/>
			<path d="M232.374,430.499c5.291,1.577,10.775,2.586,16.298,3.002l1.127-14.954c-4.457-0.335-8.878-1.15-13.144-2.42
				L232.374,430.499z"/>
			<path d="M207.82,418.133c4.433,3.314,9.214,6.162,14.21,8.464l6.275-13.619c-4.043-1.863-7.915-4.169-11.508-6.854
				L207.82,418.133z"/>
			<path d="M201.473,389.906l-12.491,8.297c3.047,4.588,6.575,8.874,10.486,12.741l10.542-10.664
				C206.826,397.131,203.954,393.641,201.473,389.906z"/>
			
				<rect x="379.603" y="80.294" transform="matrix(-0.7071 -0.7071 0.7071 -0.7071 572.4999 486.95)" width="14.996" height="89.223"/>
			
				<rect x="423.483" y="73.503" transform="matrix(0.7071 0.7071 -0.7071 0.7071 183.5073 -281.0245)" width="14.995" height="14.995"/>
			
				<rect x="441.157" y="55.842" transform="matrix(0.7071 0.7071 -0.7071 0.7071 176.1966 -298.6959)" width="14.996" height="14.996"/>
			<rect x="397.064" y="299.153" width="14.996" height="14.996"/>
			<rect x="268.922" y="299.153" width="93.153" height="14.996"/>
			<rect x="372.072" y="299.153" width="14.996" height="14.996"/>
			<polygon points="44.428,490.304 21.699,467.576 125.071,373.121 114.955,362.052 0.003,467.087 44.916,512 149.949,397.052 
				138.878,386.937 			"/>
			
				<rect x="80.375" y="416.593" transform="matrix(0.7071 0.7071 -0.7071 0.7071 325.6147 62.078)" width="14.995" height="14.995"/>
			
				<rect x="98.046" y="398.925" transform="matrix(0.7071 0.7071 -0.7071 0.7071 318.2964 44.4075)" width="14.996" height="14.995"/>
			
				<rect x="51.668" y="429.714" transform="matrix(-0.7071 -0.7071 0.7071 -0.7071 -219.2159 814.9117)" width="14.995" height="46.286"/>
		</g>
	</g>
</g>
<g>
</g>
<g>
</g>
<g>
</g>
<g>
</g>
<g>
</g>
<g>
</g>
<g>
</g>
<g>
</g>
<g>
</g>
<g>
</g>
<g>
</g>
<g>
</g>
<g>
</g>
<g>
</g>
<g>
</g>
</svg>
