<svg width="100%" height="100%" viewBox="0 0 200 200" fill="none" xmlns="http://www.w3.org/2000/svg">
<path d="M174.91 4.08291C174.91 1.84048 176.729 0 178.993 0C181.235 0 183.076 1.81932 183.076 4.08291C183.076 6.34651 181.257 8.16583 178.993 8.16583C176.751 8.16583 174.91 6.32535 174.91 4.08291Z" fill="#006574"/>
<path d="M174.91 42.4584C174.91 40.216 176.729 38.3755 178.993 38.3755C181.235 38.3755 183.076 40.1948 183.076 42.4584C183.076 44.7008 181.257 46.5413 178.993 46.5413C176.751 46.5202 174.91 44.7008 174.91 42.4584Z" fill="#006574"/>
<path d="M174.91 80.8124C174.91 78.57 176.729 76.7295 178.993 76.7295C181.235 76.7295 183.076 78.5488 183.076 80.8124C183.076 83.0548 181.257 84.8953 178.993 84.8953C176.751 84.8953 174.91 83.076 174.91 80.8124Z" fill="#006574"/>
<path d="M174.91 119.188C174.91 116.946 176.729 115.105 178.993 115.105C181.235 115.105 183.076 116.924 183.076 119.188C183.076 121.43 181.257 123.271 178.993 123.271C176.751 123.271 174.91 121.43 174.91 119.188Z" fill="#006574"/>
<path d="M174.91 157.542C174.91 155.3 176.729 153.459 178.993 153.459C181.235 153.459 183.076 155.278 183.076 157.542C183.076 159.784 181.257 161.625 178.993 161.625C176.751 161.625 174.91 159.806 174.91 157.542Z" fill="#006574"/>
<path d="M174.91 195.917C174.91 193.675 176.729 191.834 178.993 191.834C181.235 191.834 183.076 193.654 183.076 195.917C183.076 198.181 181.257 200 178.993 200C176.751 200 174.91 198.16 174.91 195.917Z" fill="#006574"/>
<path d="M139.92 4.08291C139.92 1.84048 141.739 0 144.003 0C146.245 0 148.085 1.81932 148.085 4.08291C148.085 6.34651 146.266 8.16583 144.003 8.16583C141.76 8.16583 139.92 6.32535 139.92 4.08291Z" fill="#006574"/>
<path d="M139.92 42.4584C139.92 40.216 141.739 38.3755 144.003 38.3755C146.245 38.3755 148.085 40.1948 148.085 42.4584C148.085 44.7008 146.266 46.5413 144.003 46.5413C141.76 46.5202 139.92 44.7008 139.92 42.4584Z" fill="#006574"/>
<path d="M139.92 80.8124C139.92 78.57 141.739 76.7295 144.003 76.7295C146.245 76.7295 148.085 78.5488 148.085 80.8124C148.085 83.0548 146.266 84.8953 144.003 84.8953C141.76 84.8953 139.92 83.076 139.92 80.8124Z" fill="#006574"/>
<path d="M139.92 119.188C139.92 116.946 141.739 115.105 144.003 115.105C146.245 115.105 148.085 116.924 148.085 119.188C148.085 121.43 146.266 123.271 144.003 123.271C141.76 123.271 139.92 121.43 139.92 119.188Z" fill="#006574"/>
<path d="M139.92 157.542C139.92 155.3 141.739 153.459 144.003 153.459C146.245 153.459 148.085 155.278 148.085 157.542C148.085 159.784 146.266 161.625 144.003 161.625C141.76 161.625 139.92 159.806 139.92 157.542Z" fill="#006574"/>
<path d="M139.92 195.917C139.92 193.675 141.739 191.834 144.003 191.834C146.245 191.834 148.085 193.654 148.085 195.917C148.085 198.181 146.266 200 144.003 200C141.76 200 139.92 198.16 139.92 195.917Z" fill="#006574"/>
<path d="M104.95 4.08291C104.95 1.84048 106.769 0 109.033 0C111.275 0 113.116 1.81932 113.116 4.08291C113.116 6.34651 111.297 8.16583 109.033 8.16583C106.769 8.16583 104.95 6.32535 104.95 4.08291Z" fill="#006574"/>
<path d="M104.95 42.4584C104.95 40.216 106.769 38.3755 109.033 38.3755C111.275 38.3755 113.116 40.1948 113.116 42.4584C113.116 44.7008 111.297 46.5413 109.033 46.5413C106.769 46.5202 104.95 44.7008 104.95 42.4584Z" fill="#006574"/>
<path d="M104.95 80.8124C104.95 78.57 106.769 76.7295 109.033 76.7295C111.275 76.7295 113.116 78.5488 113.116 80.8124C113.116 83.0548 111.297 84.8953 109.033 84.8953C106.769 84.8953 104.95 83.076 104.95 80.8124Z" fill="#006574"/>
<path d="M104.95 119.188C104.95 116.946 106.769 115.105 109.033 115.105C111.275 115.105 113.116 116.924 113.116 119.188C113.116 121.43 111.297 123.271 109.033 123.271C106.769 123.271 104.95 121.43 104.95 119.188Z" fill="#006574"/>
<path d="M104.95 157.542C104.95 155.3 106.769 153.459 109.033 153.459C111.275 153.459 113.116 155.278 113.116 157.542C113.116 159.784 111.297 161.625 109.033 161.625C106.769 161.625 104.95 159.806 104.95 157.542Z" fill="#006574"/>
<path d="M104.95 195.917C104.95 193.675 106.769 191.834 109.033 191.834C111.275 191.834 113.116 193.654 113.116 195.917C113.116 198.181 111.297 200 109.033 200C106.769 200 104.95 198.16 104.95 195.917Z" fill="#006574"/>
<path d="M69.9596 4.08291C69.9596 1.84048 71.779 0 74.0425 0C76.285 0 78.1255 1.81932 78.1255 4.08291C78.1255 6.34651 76.3061 8.16583 74.0425 8.16583C71.8001 8.16583 69.9596 6.32535 69.9596 4.08291Z" fill="#006574"/>
<path d="M69.9596 42.4584C69.9596 40.216 71.779 38.3755 74.0425 38.3755C76.285 38.3755 78.1255 40.1948 78.1255 42.4584C78.1255 44.7008 76.3061 46.5413 74.0425 46.5413C71.8001 46.5202 69.9596 44.7008 69.9596 42.4584Z" fill="#006574"/>
<path d="M69.9596 80.8124C69.9596 78.57 71.779 76.7295 74.0425 76.7295C76.285 76.7295 78.1255 78.5488 78.1255 80.8124C78.1255 83.0548 76.3061 84.8953 74.0425 84.8953C71.8001 84.8953 69.9596 83.076 69.9596 80.8124Z" fill="#006574"/>
<path d="M69.9596 119.188C69.9596 116.946 71.779 115.105 74.0425 115.105C76.285 115.105 78.1255 116.924 78.1255 119.188C78.1255 121.43 76.3061 123.271 74.0425 123.271C71.8001 123.271 69.9596 121.43 69.9596 119.188Z" fill="#006574"/>
<path d="M69.9596 157.542C69.9596 155.3 71.779 153.459 74.0425 153.459C76.285 153.459 78.1255 155.278 78.1255 157.542C78.1255 159.784 76.3061 161.625 74.0425 161.625C71.8001 161.625 69.9596 159.806 69.9596 157.542Z" fill="#006574"/>
<path d="M69.9596 195.917C69.9596 193.675 71.779 191.834 74.0425 191.834C76.285 191.834 78.1255 193.654 78.1255 195.917C78.1255 198.181 76.3061 200 74.0425 200C71.8001 200 69.9596 198.16 69.9596 195.917Z" fill="#006574"/>
<path d="M34.9694 4.08291C34.9694 1.84048 36.7887 0 39.0523 0C41.2948 0 43.1353 1.81932 43.1353 4.08291C43.1353 6.34651 41.3159 8.16583 39.0523 8.16583C36.8099 8.16583 34.9694 6.32535 34.9694 4.08291Z" fill="#006574"/>
<path d="M34.9694 42.4584C34.9694 40.216 36.7887 38.3755 39.0523 38.3755C41.2948 38.3755 43.1353 40.1948 43.1353 42.4584C43.1353 44.7008 41.3159 46.5413 39.0523 46.5413C36.8099 46.5202 34.9694 44.7008 34.9694 42.4584Z" fill="#006574"/>
<path d="M34.9694 80.8124C34.9694 78.57 36.7887 76.7295 39.0523 76.7295C41.2948 76.7295 43.1353 78.5488 43.1353 80.8124C43.1353 83.0548 41.3159 84.8953 39.0523 84.8953C36.8099 84.8953 34.9694 83.076 34.9694 80.8124Z" fill="#006574"/>
<path d="M34.9694 119.188C34.9694 116.946 36.7887 115.105 39.0523 115.105C41.2948 115.105 43.1353 116.924 43.1353 119.188C43.1353 121.43 41.3159 123.271 39.0523 123.271C36.8099 123.271 34.9694 121.43 34.9694 119.188Z" fill="#006574"/>
<path d="M34.9694 157.542C34.9694 155.3 36.7887 153.459 39.0523 153.459C41.2948 153.459 43.1353 155.278 43.1353 157.542C43.1353 159.784 41.3159 161.625 39.0523 161.625C36.8099 161.625 34.9694 159.806 34.9694 157.542Z" fill="#006574"/>
<path d="M34.9694 195.917C34.9694 193.675 36.7887 191.834 39.0523 191.834C41.2948 191.834 43.1353 193.654 43.1353 195.917C43.1353 198.181 41.3159 200 39.0523 200C36.8099 200 34.9694 198.16 34.9694 195.917Z" fill="#006574"/>
<path d="M0.000156403 4.08291C0.000156403 1.84048 1.81951 0 4.0831 0C6.32554 0 8.16602 1.81932 8.16602 4.08291C8.16602 6.34651 6.3467 8.16583 4.0831 8.16583C1.81951 8.16583 0.000156403 6.32535 0.000156403 4.08291Z" fill="#006574"/>
<path d="M0.000156403 42.4584C0.000156403 40.216 1.81951 38.3755 4.0831 38.3755C6.32554 38.3755 8.16602 40.1948 8.16602 42.4584C8.16602 44.7008 6.3467 46.5413 4.0831 46.5413C1.81951 46.5202 0.000156403 44.7008 0.000156403 42.4584Z" fill="#006574"/>
<path d="M0.000156403 80.8124C0.000156403 78.57 1.81951 76.7295 4.0831 76.7295C6.32554 76.7295 8.16602 78.5488 8.16602 80.8124C8.16602 83.0548 6.3467 84.8953 4.0831 84.8953C1.81951 84.8953 0.000156403 83.076 0.000156403 80.8124Z" fill="#006574"/>
<path d="M0.000156403 119.188C0.000156403 116.946 1.81951 115.105 4.0831 115.105C6.32554 115.105 8.16602 116.924 8.16602 119.188C8.16602 121.43 6.3467 123.271 4.0831 123.271C1.81951 123.271 0.000156403 121.43 0.000156403 119.188Z" fill="#006574"/>
<path d="M0.000156403 157.542C0.000156403 155.3 1.81951 153.459 4.0831 153.459C6.32554 153.459 8.16602 155.278 8.16602 157.542C8.16602 159.784 6.3467 161.625 4.0831 161.625C1.81951 161.625 0.000156403 159.806 0.000156403 157.542Z" fill="#006574"/>
<path d="M0.000156403 195.917C0.000156403 193.675 1.81951 191.834 4.0831 191.834C6.32554 191.834 8.16602 193.654 8.16602 195.917C8.16602 198.181 6.3467 200 4.0831 200C1.81951 200 0.000156403 198.16 0.000156403 195.917Z" fill="#006574"/>
<path d="M85 189.05L170.05 104V189.05H85Z" fill="#FF9D00"/>
</svg>
