<svg width="1342" height="709" viewBox="0 0 1342 709" fill="none" xmlns="http://www.w3.org/2000/svg">
<path d="M539.392 395.79L295.992 139" stroke="#8BD2BD" stroke-width="2" stroke-miterlimit="10"/>
<path d="M549.284 447.612L275.329 158.587" stroke="#FFE031" stroke-width="2" stroke-miterlimit="10"/>
<path d="M559.153 499.41L254.665 178.172" stroke="#1D262D" stroke-width="2" stroke-miterlimit="10"/>
<path d="M569.023 551.211L234.001 197.759" stroke="#1D262D" stroke-width="2" stroke-miterlimit="10"/>
<g opacity="0.6">
<path d="M92.3532 620.935C110.352 629.328 131.743 621.542 140.135 603.544C148.528 585.545 140.742 564.154 122.744 555.762C104.746 547.369 83.3548 555.154 74.962 573.153C66.5692 591.151 74.3548 612.542 92.3532 620.935ZM116.777 568.557C127.708 573.654 132.437 586.646 127.34 597.577C122.243 608.508 109.251 613.236 98.32 608.139C87.389 603.042 82.6604 590.05 87.7576 579.12C92.8548 568.189 105.846 563.46 116.777 568.557Z" fill="#FFBC20"/>
<path d="M177.883 409.972C199.333 419.974 215.604 437.733 223.703 459.973L222.638 460.36C206.14 415.033 155.849 391.582 110.521 408.079C88.5638 416.071 71.0328 432.135 61.1603 453.307C51.2878 474.478 50.2486 498.239 58.2428 520.191L57.1778 520.578C49.0815 498.334 50.1354 474.273 60.1376 452.823C70.1398 431.374 87.8992 415.103 110.138 407.004C132.373 398.916 156.434 399.97 177.883 409.972Z" fill="#006574"/>
<path d="M175.292 415.53C194.444 424.461 210.192 440.678 217.972 462.054L216.907 462.442C201.561 420.279 154.773 398.462 112.605 413.805C70.4427 429.151 48.6224 475.945 63.9683 518.107L62.9033 518.495C47.343 475.743 69.4659 428.3 112.22 412.735C133.593 404.96 156.145 406.602 175.292 415.53Z" fill="#006574"/>
<path d="M172.731 421.021C191.229 429.647 205.259 444.963 212.244 464.143L211.179 464.531C204.301 445.633 190.476 430.55 172.256 422.054C154.031 413.556 133.588 412.665 114.697 419.54C95.7986 426.419 80.7161 440.244 72.22 458.464C63.7215 476.689 62.8307 497.132 69.7063 516.023L68.6413 516.411C61.6612 497.233 62.5663 476.477 71.1921 457.979C79.8179 439.481 95.1339 425.45 114.314 418.465C133.482 411.493 154.233 412.396 172.731 421.021Z" fill="#006574"/>
<path d="M170.139 426.58C186.458 434.189 199.881 448.011 206.512 466.23L205.447 466.618C192.399 430.77 152.621 412.221 116.773 425.269C80.9253 438.316 62.3766 478.094 75.4241 513.942L74.3591 514.33C61.0971 477.892 79.9509 437.46 116.386 424.204C134.604 417.573 153.82 418.97 170.139 426.58Z" fill="#006574"/>
<path d="M167.564 432.102C182.467 439.051 194.73 451.674 200.786 468.314L199.721 468.701C187.823 436.011 151.553 419.098 118.867 430.999C86.1767 442.897 69.2638 479.167 81.1646 511.852L80.0996 512.24C67.9895 478.968 85.2098 442.039 118.482 429.928C135.109 423.872 152.662 425.152 167.564 432.102Z" fill="#006574"/>
<path d="M164.989 437.624C178.48 443.915 189.576 455.342 195.056 470.395L193.991 470.783C183.244 441.257 150.477 425.978 120.951 436.724C106.645 441.931 95.2242 452.397 88.7915 466.192C82.3587 479.987 81.6831 495.463 86.8901 509.769L85.825 510.156C80.5112 495.569 81.2064 479.782 87.7664 465.714C94.3264 451.646 105.978 440.968 120.564 435.659C135.617 430.18 151.498 431.333 164.989 437.624Z" fill="#006574"/>
<path d="M162.414 443.146C174.489 448.776 184.421 459.001 189.328 472.484L188.263 472.872C178.665 446.503 149.406 432.859 123.038 442.457C96.6694 452.054 83.0257 481.313 92.6231 507.682L91.5581 508.069C81.7463 481.112 95.695 451.198 122.653 441.387C136.12 436.485 150.34 437.515 162.414 443.146Z" fill="#006574"/>
<path d="M80.1969 535.809L84.5528 534.228L83.1692 537.195L80.1969 535.809Z" fill="#006574"/>
<path d="M74.6954 533.243L87.1206 528.721L85.737 531.688L77.6625 534.627L74.6954 533.243Z" fill="#006574"/>
<path d="M58.2218 525.562L94.8 512.253L93.438 515.173L61.1477 526.926L58.2218 525.562Z" fill="#006574"/>
<path d="M63.6821 528.108L92.2538 517.713L90.8702 520.68L66.6492 529.491L63.6821 528.108Z" fill="#006574"/>
<path d="M69.1887 530.676L89.6884 523.214L88.3024 526.187L72.1559 532.059L69.1887 530.676Z" fill="#006574"/>
<path d="M238.772 429.201C181.859 402.662 114.208 427.285 87.6688 484.199C61.1298 541.112 85.7528 608.763 142.666 635.302C199.579 661.841 267.231 637.218 293.77 580.305C320.309 523.392 295.686 455.74 238.772 429.201Z" fill="url(#paint0_radial)"/>
<path d="M255.233 455.484C199.589 429.537 133.446 453.611 107.498 509.255C81.5508 564.9 105.625 631.043 161.269 656.99C216.914 682.938 283.057 658.864 309.004 603.219C334.951 547.575 310.877 481.432 255.233 455.484Z" fill="#F9F5EF"/>
<path d="M170.803 632.645C170.092 632.313 169.247 632.621 168.915 633.332C168.583 634.043 168.891 634.889 169.602 635.22C170.313 635.552 171.159 635.244 171.491 634.533C171.822 633.822 171.514 632.976 170.803 632.645Z" fill="#006574"/>
<path d="M157.864 625.25C158.56 625.574 158.859 626.398 158.535 627.093C158.211 627.789 157.388 628.088 156.692 627.764C155.997 627.44 155.697 626.616 156.021 625.921C156.346 625.226 157.169 624.926 157.864 625.25Z" fill="#006574"/>
<path d="M146.396 615.738C145.719 615.422 144.914 615.715 144.598 616.392C144.282 617.069 144.575 617.874 145.252 618.19C145.929 618.506 146.734 618.213 147.05 617.536C147.366 616.859 147.073 616.054 146.396 615.738Z" fill="#006574"/>
<path d="M136.754 604.393C137.413 604.701 137.699 605.486 137.392 606.146C137.084 606.805 136.298 607.091 135.639 606.784C134.98 606.476 134.694 605.691 135.001 605.031C135.304 604.369 136.089 604.084 136.754 604.393Z" fill="#006574"/>
<path d="M129.202 591.565C129.846 591.866 130.124 592.628 129.823 593.272C129.523 593.916 128.76 594.194 128.116 593.894C127.472 593.593 127.195 592.831 127.495 592.187C127.795 591.543 128.558 591.265 129.202 591.565Z" fill="#006574"/>
<path d="M123.965 577.634C123.336 577.341 122.589 577.613 122.295 578.242C122.002 578.87 122.274 579.618 122.903 579.911C123.532 580.204 124.279 579.932 124.572 579.303C124.865 578.675 124.593 577.927 123.965 577.634Z" fill="#006574"/>
<path d="M121.19 563.02C121.803 563.306 122.067 564.031 121.781 564.644C121.496 565.257 120.77 565.521 120.158 565.236C119.545 564.95 119.281 564.225 119.566 563.612C119.852 562.999 120.577 562.735 121.19 563.02Z" fill="#006574"/>
<path d="M119.485 548.537C119.117 549.08 119.258 549.819 119.801 550.187C120.344 550.556 121.082 550.414 121.451 549.872C121.819 549.329 121.678 548.59 121.135 548.222C120.592 547.853 119.853 547.995 119.485 548.537Z" fill="#006574"/>
<path d="M123.327 533.463C123.904 533.732 124.155 534.419 123.886 534.996C123.617 535.573 122.929 535.823 122.352 535.554C121.775 535.285 121.525 534.598 121.794 534.021C122.063 533.444 122.751 533.194 123.327 533.463Z" fill="#006574"/>
<path d="M128.182 519.408C128.743 519.67 128.985 520.335 128.723 520.896C128.461 521.458 127.797 521.7 127.235 521.438C126.674 521.176 126.432 520.511 126.694 519.95C126.955 519.388 127.62 519.147 128.182 519.408Z" fill="#006574"/>
<path d="M135.36 506.382C135.906 506.636 136.137 507.283 135.885 507.824C135.63 508.37 134.983 508.602 134.442 508.349C133.896 508.095 133.665 507.448 133.917 506.907C134.169 506.366 134.819 506.129 135.36 506.382Z" fill="#006574"/>
<path d="M144.673 494.788C145.198 495.033 145.426 495.66 145.181 496.186C144.936 496.711 144.31 496.939 143.784 496.694C143.259 496.449 143.03 495.822 143.275 495.297C143.52 494.772 144.147 494.543 144.673 494.788Z" fill="#006574"/>
<path d="M155.858 484.978C156.368 485.216 156.587 485.82 156.35 486.33C156.112 486.84 155.508 487.06 154.998 486.822C154.488 486.584 154.268 485.98 154.506 485.47C154.741 484.965 155.348 484.74 155.858 484.978Z" fill="#006574"/>
<path d="M168.564 477.244C169.058 477.475 169.267 478.061 169.039 478.551C168.809 479.045 168.222 479.255 167.732 479.026C167.238 478.796 167.029 478.209 167.257 477.72C167.485 477.23 168.069 477.013 168.564 477.244Z" fill="#006574"/>
<path d="M182.41 471.798C182.889 472.021 183.096 472.588 182.872 473.067C182.649 473.546 182.082 473.752 181.603 473.529C181.124 473.305 180.918 472.739 181.141 472.26C181.37 471.783 181.937 471.577 182.41 471.798Z" fill="#006574"/>
<path d="M196.99 468.801C197.449 469.015 197.652 469.561 197.436 470.024C197.22 470.488 196.676 470.686 196.212 470.47C195.749 470.254 195.551 469.71 195.767 469.246C195.983 468.783 196.532 468.587 196.99 468.801Z" fill="#006574"/>
<path d="M211.874 468.353C212.317 468.56 212.509 469.088 212.303 469.531C212.096 469.974 211.567 470.167 211.124 469.96C210.681 469.754 210.489 469.225 210.696 468.782C210.902 468.339 211.431 468.146 211.874 468.353Z" fill="#006574"/>
<path d="M226.614 470.486C227.042 470.685 227.226 471.191 227.027 471.619C226.827 472.046 226.321 472.231 225.894 472.031C225.466 471.832 225.282 471.326 225.481 470.898C225.681 470.471 226.187 470.287 226.614 470.486Z" fill="#006574"/>
<path d="M240.775 475.126C241.187 475.318 241.363 475.801 241.171 476.213C240.978 476.625 240.495 476.801 240.083 476.609C239.671 476.417 239.495 475.934 239.687 475.522C239.879 475.109 240.363 474.933 240.775 475.126Z" fill="#006574"/>
<path d="M253.942 482.112C254.333 482.295 254.504 482.763 254.321 483.154C254.138 483.546 253.67 483.716 253.279 483.534C252.887 483.351 252.717 482.883 252.899 482.491C253.082 482.1 253.55 481.929 253.942 482.112Z" fill="#006574"/>
<path d="M265.72 491.255C266.096 491.43 266.259 491.876 266.083 492.252C265.908 492.628 265.462 492.79 265.086 492.615C264.71 492.439 264.548 491.994 264.723 491.618C264.899 491.241 265.344 491.079 265.72 491.255Z" fill="#006574"/>
<path d="M275.751 502.304C276.112 502.472 276.263 502.9 276.097 503.256C275.929 503.616 275.501 503.768 275.146 503.602C274.785 503.434 274.634 503.006 274.799 502.65C274.962 502.287 275.39 502.136 275.751 502.304Z" fill="#006574"/>
<path d="M283.732 514.912C284.077 515.073 284.22 515.478 284.061 515.818C283.903 516.158 283.495 516.307 283.155 516.148C282.815 515.99 282.667 515.582 282.825 515.242C282.984 514.902 283.386 514.751 283.732 514.912Z" fill="#006574"/>
<path d="M289.448 528.703C289.121 528.55 288.732 528.692 288.58 529.019C288.427 529.346 288.569 529.735 288.896 529.888C289.223 530.04 289.612 529.899 289.764 529.572C289.917 529.245 289.775 528.856 289.448 528.703Z" fill="#006574"/>
<path d="M173.616 626.612C172.905 626.281 172.059 626.588 171.728 627.3C171.396 628.011 171.704 628.856 172.415 629.188C173.126 629.52 173.972 629.212 174.303 628.501C174.635 627.79 174.327 626.944 173.616 626.612Z" fill="#006574"/>
<path d="M160.863 619.236C161.548 619.556 161.845 620.371 161.526 621.056C161.206 621.742 160.391 622.038 159.705 621.719C159.02 621.399 158.723 620.584 159.043 619.899C159.362 619.213 160.178 618.917 160.863 619.236Z" fill="#006574"/>
<path d="M149.693 609.65C149.036 609.343 148.254 609.628 147.948 610.285C147.642 610.942 147.926 611.723 148.583 612.03C149.24 612.336 150.021 612.052 150.328 611.395C150.634 610.737 150.35 609.956 149.693 609.65Z" fill="#006574"/>
<path d="M140.499 598.163C141.128 598.456 141.405 599.206 141.11 599.84C140.817 600.468 140.066 600.746 139.433 600.45C138.804 600.157 138.527 599.407 138.823 598.773C139.123 598.142 139.871 597.87 140.499 598.163Z" fill="#006574"/>
<path d="M133.585 585.193C134.187 585.474 134.448 586.191 134.167 586.794C133.886 587.397 133.169 587.658 132.566 587.377C131.963 587.096 131.702 586.378 131.983 585.776C132.264 585.173 132.977 584.909 133.585 585.193Z" fill="#006574"/>
<path d="M129.164 571.178C129.741 571.447 129.991 572.135 129.722 572.712C129.453 573.289 128.765 573.539 128.189 573.27C127.612 573.001 127.361 572.313 127.63 571.736C127.9 571.159 128.587 570.909 129.164 571.178Z" fill="#006574"/>
<path d="M127.392 556.593C127.943 556.85 128.177 557.505 127.923 558.051C127.666 558.602 127.011 558.836 126.465 558.581C125.919 558.327 125.68 557.67 125.934 557.124C126.189 556.578 126.841 556.336 127.392 556.593Z" fill="#006574"/>
<path d="M128.347 541.943C127.824 541.699 127.201 541.926 126.957 542.449C126.713 542.972 126.94 543.595 127.463 543.839C127.987 544.083 128.609 543.856 128.853 543.333C129.097 542.809 128.871 542.187 128.347 541.943Z" fill="#006574"/>
<path d="M132.007 527.721C132.501 527.951 132.716 528.54 132.485 529.035C132.255 529.529 131.665 529.744 131.171 529.513C130.676 529.283 130.462 528.693 130.692 528.199C130.923 527.704 131.512 527.49 132.007 527.721Z" fill="#006574"/>
<path d="M138.211 514.415C138.68 514.634 138.883 515.193 138.665 515.661C138.446 516.13 137.887 516.333 137.419 516.115C136.95 515.896 136.746 515.337 136.965 514.869C137.184 514.4 137.743 514.196 138.211 514.415Z" fill="#006574"/>
<path d="M146.752 502.475C147.195 502.681 147.382 503.208 147.178 503.645C146.971 504.088 146.445 504.276 146.007 504.072C145.564 503.865 145.377 503.339 145.581 502.901C145.785 502.463 146.309 502.268 146.752 502.475Z" fill="#006574"/>
<path d="M157.363 492.321C157.78 492.516 157.959 493.007 157.764 493.424C157.569 493.841 157.078 494.02 156.661 493.826C156.244 493.631 156.065 493.14 156.26 492.723C156.452 492.311 156.945 492.127 157.363 492.321Z" fill="#006574"/>
<path d="M169.667 484.306C170.053 484.486 170.221 484.947 170.041 485.333C169.861 485.719 169.4 485.887 169.014 485.707C168.627 485.527 168.459 485.066 168.64 484.68C168.82 484.293 169.281 484.126 169.667 484.306Z" fill="#006574"/>
<path d="M183.244 478.684C183.605 478.852 183.762 479.283 183.594 479.643C183.425 480.004 182.995 480.16 182.634 479.992C182.274 479.824 182.117 479.394 182.285 479.033C182.458 478.675 182.884 478.516 183.244 478.684Z" fill="#006574"/>
<path d="M197.63 475.646C197.965 475.803 198.105 476.2 197.952 476.53C197.798 476.86 197.398 477.006 197.068 476.852C196.733 476.696 196.592 476.298 196.746 475.968C196.9 475.638 197.295 475.49 197.63 475.646Z" fill="#006574"/>
<path d="M212.338 475.305C212.648 475.449 212.78 475.812 212.635 476.121C212.491 476.43 212.129 476.562 211.82 476.418C211.511 476.274 211.379 475.911 211.523 475.602C211.667 475.293 212.029 475.161 212.338 475.305Z" fill="#006574"/>
<path d="M226.865 477.695C226.583 477.564 226.248 477.686 226.117 477.968C225.985 478.249 226.107 478.584 226.389 478.715C226.671 478.847 227.005 478.725 227.137 478.443C227.268 478.162 227.146 477.827 226.865 477.695Z" fill="#006574"/>
<path d="M240.71 482.728C240.457 482.61 240.156 482.72 240.038 482.973C239.92 483.226 240.03 483.527 240.283 483.645C240.536 483.763 240.837 483.654 240.955 483.4C241.073 483.147 240.964 482.846 240.71 482.728Z" fill="#006574"/>
<path d="M176.859 619.658C176.148 619.327 175.302 619.634 174.971 620.346C174.639 621.057 174.947 621.902 175.658 622.234C176.369 622.566 177.215 622.258 177.546 621.547C177.878 620.835 177.57 619.99 176.859 619.658Z" fill="#006574"/>
<path d="M164.62 612.578C165.269 612.881 165.544 613.649 165.244 614.293C164.941 614.942 164.173 615.217 163.53 614.917C162.886 614.616 162.605 613.846 162.905 613.202C163.201 612.556 163.971 612.275 164.62 612.578Z" fill="#006574"/>
<path d="M154.024 603.253C154.606 603.525 154.859 604.22 154.587 604.802C154.316 605.384 153.621 605.637 153.039 605.365C152.457 605.094 152.204 604.399 152.475 603.817C152.747 603.235 153.442 602.982 154.024 603.253Z" fill="#006574"/>
<path d="M145.489 592.049C144.971 591.808 144.356 592.032 144.114 592.549C143.873 593.067 144.097 593.683 144.615 593.924C145.132 594.166 145.748 593.942 145.989 593.424C146.231 592.906 146.007 592.291 145.489 592.049Z" fill="#006574"/>
<path d="M139.321 579.402C139.774 579.613 139.972 580.157 139.76 580.61C139.549 581.064 139.005 581.262 138.552 581.05C138.099 580.839 137.901 580.295 138.112 579.842C138.323 579.388 138.867 579.19 139.321 579.402Z" fill="#006574"/>
<path d="M135.748 565.814C136.139 565.997 136.307 566.457 136.125 566.849C135.942 567.24 135.481 567.408 135.09 567.226C134.698 567.043 134.531 566.582 134.713 566.191C134.896 565.799 135.356 565.632 135.748 565.814Z" fill="#006574"/>
<path d="M134.912 551.803C135.237 551.954 135.382 552.342 135.229 552.672C135.077 552.996 134.69 553.142 134.36 552.988C134.035 552.837 133.89 552.449 134.044 552.119C134.198 551.79 134.588 551.652 134.912 551.803Z" fill="#006574"/>
<path d="M136.862 537.912C137.125 538.035 137.238 538.344 137.115 538.607C136.993 538.87 136.683 538.983 136.42 538.86C136.158 538.738 136.045 538.428 136.167 538.165C136.29 537.902 136.6 537.79 136.862 537.912Z" fill="#006574"/>
<path d="M141.513 524.684C141.316 524.593 141.083 524.678 140.991 524.874C140.9 525.07 140.985 525.304 141.181 525.395C141.377 525.487 141.611 525.402 141.702 525.206C141.794 525.009 141.709 524.776 141.513 524.684Z" fill="#006574"/>
<path d="M280.242 551.445C309.645 565.156 322.412 600.234 308.699 629.642C294.985 659.051 259.91 671.813 230.507 658.102C201.104 644.391 188.331 609.311 202.042 579.908C215.753 550.504 250.833 537.732 280.242 551.445ZM230.987 657.071C259.824 670.518 294.222 657.998 307.668 629.162C321.115 600.325 308.598 565.922 279.761 552.476C250.925 539.029 216.522 551.546 203.073 580.388C189.626 609.225 202.151 643.625 230.987 657.071Z" fill="#006574"/>
<path d="M276.175 560.166C300.772 571.636 311.447 600.978 299.98 625.57C288.51 650.167 259.168 660.843 234.576 649.375C209.979 637.906 199.303 608.563 210.771 583.971C222.233 559.377 251.578 548.696 276.175 560.166ZM236.219 645.852C258.869 656.414 285.887 646.58 296.449 623.93C307.011 601.28 297.177 574.262 274.527 563.7C251.877 553.138 224.859 562.972 214.297 585.622C203.735 608.272 213.569 635.29 236.219 645.852Z" fill="#FFB300"/>
<path d="M272.106 568.892C291.892 578.119 300.483 601.723 291.257 621.509C282.03 641.294 258.426 649.886 238.64 640.659C218.855 631.433 210.263 607.829 219.49 588.043C228.716 568.257 252.32 559.666 272.106 568.892ZM239.121 639.629C258.34 648.591 281.264 640.247 290.226 621.028C299.189 601.809 290.845 578.885 271.626 569.923C252.406 560.961 229.482 569.304 220.52 588.524C211.558 607.743 219.902 630.667 239.121 639.629Z" fill="#006574"/>
<path d="M268.039 577.614C283.014 584.596 289.521 602.462 282.536 617.442C275.55 632.422 257.687 638.924 242.707 631.938C227.727 624.953 221.225 607.09 228.211 592.11C235.196 577.13 253.059 570.628 268.039 577.614ZM243.19 630.903C257.598 637.622 274.789 631.364 281.508 616.956C288.226 602.548 281.969 585.357 267.561 578.639C253.153 571.92 235.962 578.177 229.243 592.585C222.525 606.993 228.777 624.182 243.19 630.903Z" fill="#006574"/>
<path d="M263.972 586.334C274.141 591.076 278.551 603.204 273.809 613.373C269.068 623.541 256.94 627.951 246.776 623.212C236.608 618.47 232.192 606.34 236.932 596.176C241.673 586.008 253.804 581.593 263.972 586.334ZM247.257 622.182C256.853 626.657 268.304 622.489 272.779 612.892C277.254 603.296 273.089 591.84 263.492 587.365C253.895 582.89 242.439 587.055 237.962 596.657C233.485 606.259 237.655 617.704 247.257 622.182Z" fill="#006574"/>
<path d="M259.906 595.056C265.263 597.554 267.589 603.944 265.091 609.301C262.593 614.659 256.202 616.984 250.845 614.486C245.488 611.988 243.162 605.598 245.66 600.241C248.151 594.886 254.548 592.558 259.906 595.056ZM251.323 613.461C256.114 615.695 261.824 613.617 264.058 608.826C266.292 604.035 264.214 598.325 259.423 596.091C254.632 593.857 248.922 595.936 246.688 600.726C244.451 605.509 246.533 611.227 251.323 613.461Z" fill="#006574"/>
<path d="M228.921 530.349L223.641 532.271L224.208 533.827L231.038 531.337L228.555 524.503L226.999 525.07L228.921 530.349Z" fill="white"/>
<path d="M222.637 527.419L217.357 529.34L217.923 530.896L224.759 528.408L222.271 521.573L220.715 522.139L222.637 527.419Z" fill="white"/>
<path d="M216.275 524.452L210.995 526.374L211.561 527.93L218.397 525.442L215.909 518.606L214.353 519.172L216.275 524.452Z" fill="white"/>
<path d="M190.346 576.197L195.626 574.276L195.057 572.725L188.224 575.208L190.712 582.043L192.268 581.477L190.346 576.197Z" fill="white"/>
<path d="M196.63 579.127L201.91 577.206L201.341 575.655L194.508 578.138L196.996 584.973L198.552 584.407L196.63 579.127Z" fill="white"/>
<path d="M202.987 582.092L208.267 580.17L207.703 578.622L200.87 581.104L203.358 587.94L204.909 587.371L202.987 582.092Z" fill="white"/>
<path d="M175.284 499.404C157.335 505.937 148.08 525.784 154.613 543.733C161.146 561.682 180.993 570.936 198.942 564.404C216.891 557.871 226.145 538.024 219.612 520.075C213.079 502.126 193.233 492.872 175.284 499.404Z" fill="#FFB300"/>
<path d="M187.637 518.281C180.115 517.998 173.788 523.867 173.506 531.389C173.223 538.911 179.092 545.237 186.614 545.52C194.136 545.802 200.462 539.934 200.745 532.412C201.027 524.89 195.159 518.563 187.637 518.281Z" fill="#006574"/>
</g>
<path d="M1284.76 433.761H1228V490.521H1284.76V433.761Z" stroke="#1D262D" stroke-width="2" stroke-miterlimit="10"/>
<path d="M1313.14 405.38H1256.38V462.14H1313.14V405.38Z" fill="#006574" fill-opacity="0.6"/>
<path d="M1076.14 114.492C1115.95 82.3274 1174.3 88.5247 1206.46 128.334C1238.63 168.144 1232.43 226.492 1192.62 258.657" fill="#FFB300" fill-opacity="0.6"/>
<path d="M1214.74 121.641C1250.61 166.025 1243.7 231.08 1199.31 266.941" stroke="#1D262D" stroke-miterlimit="10"/>
<path d="M1069.45 106.208C1113.83 70.3479 1178.88 77.2578 1214.74 121.641" stroke="#1D262D" stroke-width="4" stroke-miterlimit="10"/>
<path d="M1214.74 121.641C1250.61 166.025 1243.7 231.08 1199.31 266.941" stroke="#1D262D" stroke-miterlimit="10"/>
<path d="M1069.45 106.208C1113.83 70.3479 1178.88 77.2578 1214.74 121.641" stroke="#1D262D" stroke-width="4" stroke-miterlimit="10"/>
<path d="M1222.17 115.646C1261.34 164.128 1253.79 235.189 1205.31 274.361" stroke="#1D262D" stroke-miterlimit="10"/>
<path d="M1063.45 98.7877C1111.93 59.6153 1182.99 67.163 1222.17 115.646" stroke="#1D262D" stroke-width="4" stroke-miterlimit="10"/>
<path d="M1222.17 115.646C1261.34 164.128 1253.79 235.189 1205.31 274.361" stroke="#1D262D" stroke-miterlimit="10"/>
<path d="M1063.45 98.7877C1111.93 59.6153 1182.99 67.163 1222.17 115.646" stroke="#1D262D" stroke-width="4" stroke-miterlimit="10"/>
<path d="M1229.55 109.675C1272.03 162.241 1263.84 239.278 1211.28 281.75" stroke="#1D262D" stroke-miterlimit="10"/>
<path d="M1057.48 91.3985C1110.05 48.9267 1187.08 57.1091 1229.55 109.675" stroke="#1D262D" stroke-width="4" stroke-miterlimit="10"/>
<path d="M1237.57 103.196C1283.62 160.188 1274.75 243.722 1217.76 289.77" stroke="#1D262D" stroke-miterlimit="10"/>
<path d="M1051 83.3789C1107.99 37.3312 1191.53 46.2037 1237.57 103.196" stroke="#1D262D" stroke-width="4" stroke-miterlimit="10"/>
<defs>
<radialGradient id="paint0_radial" cx="0" cy="0" r="1" gradientUnits="userSpaceOnUse" gradientTransform="translate(190.72 532.25) rotate(-155) scale(113.703)">
<stop/>
<stop offset="1" stop-color="white"/>
</radialGradient>
</defs>
</svg>
